<mxfile host="app.diagrams.net" modified="2022-04-04T12:46:28.490Z" agent="5.0 (Windows NT 10.0; Win64; x64) AppleWebKit/537.36 (KHTML, like Gecko) Chrome/99.0.4844.74 Safari/537.36 Edg/99.0.1150.55" etag="1nIReLlyflMYJ9br4lmW" version="17.4.0" type="github" pages="3">
  <diagram id="nzichOOmSURMl8vuzd4C" name="Page-1">
    <mxGraphModel dx="1440" dy="1644" grid="0" gridSize="10" guides="1" tooltips="1" connect="1" arrows="1" fold="1" page="0" pageScale="1" pageWidth="1169" pageHeight="827" math="0" shadow="0">
      <root>
        <mxCell id="0" />
        <mxCell id="1" style="" parent="0" />
        <mxCell id="6YiGRtF6zz8yhD4ga1EQ-23" value="" style="rounded=1;whiteSpace=wrap;html=1;glass=1;fillColor=none;dashed=1;strokeWidth=1;shadow=0;arcSize=13;" parent="1" vertex="1">
          <mxGeometry x="621" y="-544" width="179" height="281" as="geometry" />
        </mxCell>
        <mxCell id="6YiGRtF6zz8yhD4ga1EQ-24" value="" style="ellipse;whiteSpace=wrap;html=1;aspect=fixed;rounded=0;sketch=0;strokeWidth=1;fillColor=#dae8fc;strokeColor=#6c8ebf;gradientColor=#7ea6e0;" parent="1" vertex="1">
          <mxGeometry x="662" y="-533" width="25" height="25" as="geometry" />
        </mxCell>
        <mxCell id="6YiGRtF6zz8yhD4ga1EQ-25" value="" style="ellipse;whiteSpace=wrap;html=1;aspect=fixed;rounded=0;sketch=0;strokeWidth=1;fillColor=#dae8fc;strokeColor=#6c8ebf;gradientColor=#7ea6e0;" parent="1" vertex="1">
          <mxGeometry x="662" y="-497" width="25" height="25" as="geometry" />
        </mxCell>
        <mxCell id="6YiGRtF6zz8yhD4ga1EQ-26" value="" style="ellipse;whiteSpace=wrap;html=1;aspect=fixed;rounded=0;sketch=0;strokeWidth=1;fillColor=#dae8fc;strokeColor=#6c8ebf;gradientColor=#7ea6e0;" parent="1" vertex="1">
          <mxGeometry x="662" y="-461" width="25" height="25" as="geometry" />
        </mxCell>
        <mxCell id="6YiGRtF6zz8yhD4ga1EQ-27" value="" style="ellipse;whiteSpace=wrap;html=1;aspect=fixed;rounded=0;sketch=0;strokeWidth=1;fillColor=#dae8fc;strokeColor=#6c8ebf;gradientColor=#7ea6e0;" parent="1" vertex="1">
          <mxGeometry x="662" y="-425" width="25" height="25" as="geometry" />
        </mxCell>
        <mxCell id="6YiGRtF6zz8yhD4ga1EQ-28" value="" style="ellipse;whiteSpace=wrap;html=1;aspect=fixed;rounded=0;sketch=0;strokeWidth=1;fillColor=#dae8fc;strokeColor=#6c8ebf;gradientColor=#7ea6e0;" parent="1" vertex="1">
          <mxGeometry x="662" y="-389" width="25" height="25" as="geometry" />
        </mxCell>
        <mxCell id="6YiGRtF6zz8yhD4ga1EQ-29" value="" style="ellipse;whiteSpace=wrap;html=1;aspect=fixed;rounded=0;sketch=0;strokeWidth=1;fillColor=#fff2cc;strokeColor=#d6b656;gradientColor=#ffd966;" parent="1" vertex="1">
          <mxGeometry x="739" y="-533" width="25" height="25" as="geometry" />
        </mxCell>
        <mxCell id="6YiGRtF6zz8yhD4ga1EQ-30" value="" style="ellipse;whiteSpace=wrap;html=1;aspect=fixed;rounded=0;sketch=0;strokeWidth=1;fillColor=#fff2cc;strokeColor=#d6b656;gradientColor=#ffd966;" parent="1" vertex="1">
          <mxGeometry x="739" y="-497" width="25" height="25" as="geometry" />
        </mxCell>
        <mxCell id="6YiGRtF6zz8yhD4ga1EQ-31" value="" style="ellipse;whiteSpace=wrap;html=1;aspect=fixed;rounded=0;sketch=0;strokeWidth=1;fillColor=#fff2cc;strokeColor=#d6b656;gradientColor=#ffd966;" parent="1" vertex="1">
          <mxGeometry x="739" y="-461" width="25" height="25" as="geometry" />
        </mxCell>
        <mxCell id="6YiGRtF6zz8yhD4ga1EQ-32" value="" style="ellipse;whiteSpace=wrap;html=1;aspect=fixed;rounded=0;sketch=0;strokeWidth=1;fillColor=#fff2cc;strokeColor=#d6b656;gradientColor=#ffd966;" parent="1" vertex="1">
          <mxGeometry x="739" y="-425" width="25" height="25" as="geometry" />
        </mxCell>
        <mxCell id="6YiGRtF6zz8yhD4ga1EQ-33" value="" style="ellipse;whiteSpace=wrap;html=1;aspect=fixed;rounded=0;sketch=0;strokeWidth=1;fillColor=#fff2cc;strokeColor=#d6b656;gradientColor=#ffd966;" parent="1" vertex="1">
          <mxGeometry x="739" y="-389" width="25" height="25" as="geometry" />
        </mxCell>
        <mxCell id="6YiGRtF6zz8yhD4ga1EQ-34" value="" style="endArrow=none;html=1;rounded=1;sketch=0;curved=0;entryX=0;entryY=0.5;entryDx=0;entryDy=0;exitX=1;exitY=0.5;exitDx=0;exitDy=0;" parent="1" source="6YiGRtF6zz8yhD4ga1EQ-24" target="6YiGRtF6zz8yhD4ga1EQ-29" edge="1">
          <mxGeometry width="50" height="50" relative="1" as="geometry">
            <mxPoint x="694" y="-479" as="sourcePoint" />
            <mxPoint x="744" y="-529" as="targetPoint" />
          </mxGeometry>
        </mxCell>
        <mxCell id="6YiGRtF6zz8yhD4ga1EQ-35" value="" style="endArrow=none;html=1;rounded=1;sketch=0;curved=0;entryX=1;entryY=0.5;entryDx=0;entryDy=0;exitX=0;exitY=0.5;exitDx=0;exitDy=0;" parent="1" source="6YiGRtF6zz8yhD4ga1EQ-30" target="6YiGRtF6zz8yhD4ga1EQ-24" edge="1">
          <mxGeometry width="50" height="50" relative="1" as="geometry">
            <mxPoint x="778" y="-377" as="sourcePoint" />
            <mxPoint x="828" y="-427" as="targetPoint" />
          </mxGeometry>
        </mxCell>
        <mxCell id="6YiGRtF6zz8yhD4ga1EQ-36" value="" style="endArrow=none;html=1;rounded=1;sketch=0;curved=0;exitX=0;exitY=0.5;exitDx=0;exitDy=0;entryX=1;entryY=0.5;entryDx=0;entryDy=0;" parent="1" source="6YiGRtF6zz8yhD4ga1EQ-30" target="6YiGRtF6zz8yhD4ga1EQ-25" edge="1">
          <mxGeometry width="50" height="50" relative="1" as="geometry">
            <mxPoint x="777.000000000003" y="-474.5" as="sourcePoint" />
            <mxPoint x="697" y="-510.5" as="targetPoint" />
          </mxGeometry>
        </mxCell>
        <mxCell id="6YiGRtF6zz8yhD4ga1EQ-41" value="" style="endArrow=none;html=1;rounded=1;sketch=0;curved=0;exitX=0;exitY=0.5;exitDx=0;exitDy=0;entryX=1;entryY=0.5;entryDx=0;entryDy=0;" parent="1" edge="1">
          <mxGeometry width="50" height="50" relative="1" as="geometry">
            <mxPoint x="739" y="-484.5" as="sourcePoint" />
            <mxPoint x="687" y="-448.4999999999999" as="targetPoint" />
          </mxGeometry>
        </mxCell>
        <mxCell id="6YiGRtF6zz8yhD4ga1EQ-42" value="" style="endArrow=none;html=1;rounded=1;sketch=0;curved=0;exitX=0;exitY=0.5;exitDx=0;exitDy=0;entryX=1;entryY=0.5;entryDx=0;entryDy=0;dashed=1;strokeColor=#FF0000;" parent="1" source="6YiGRtF6zz8yhD4ga1EQ-32" target="6YiGRtF6zz8yhD4ga1EQ-27" edge="1">
          <mxGeometry width="50" height="50" relative="1" as="geometry">
            <mxPoint x="749" y="-474.5" as="sourcePoint" />
            <mxPoint x="697" y="-438.4999999999999" as="targetPoint" />
          </mxGeometry>
        </mxCell>
        <mxCell id="6YiGRtF6zz8yhD4ga1EQ-43" value="" style="endArrow=none;html=1;rounded=1;sketch=0;curved=0;exitX=0;exitY=0.5;exitDx=0;exitDy=0;entryX=1;entryY=0.5;entryDx=0;entryDy=0;" parent="1" source="6YiGRtF6zz8yhD4ga1EQ-32" target="6YiGRtF6zz8yhD4ga1EQ-28" edge="1">
          <mxGeometry width="50" height="50" relative="1" as="geometry">
            <mxPoint x="749" y="-402.5" as="sourcePoint" />
            <mxPoint x="697" y="-402.5" as="targetPoint" />
          </mxGeometry>
        </mxCell>
        <mxCell id="6YiGRtF6zz8yhD4ga1EQ-44" value="" style="endArrow=none;html=1;rounded=1;sketch=0;curved=0;exitX=0;exitY=0.5;exitDx=0;exitDy=0;entryX=1;entryY=0.5;entryDx=0;entryDy=0;" parent="1" source="6YiGRtF6zz8yhD4ga1EQ-31" target="6YiGRtF6zz8yhD4ga1EQ-27" edge="1">
          <mxGeometry width="50" height="50" relative="1" as="geometry">
            <mxPoint x="759" y="-392.5" as="sourcePoint" />
            <mxPoint x="707" y="-392.5" as="targetPoint" />
          </mxGeometry>
        </mxCell>
        <mxCell id="6YiGRtF6zz8yhD4ga1EQ-45" value="" style="endArrow=none;html=1;rounded=1;sketch=0;curved=0;exitX=0;exitY=0.5;exitDx=0;exitDy=0;entryX=1;entryY=0.5;entryDx=0;entryDy=0;" parent="1" source="6YiGRtF6zz8yhD4ga1EQ-33" target="6YiGRtF6zz8yhD4ga1EQ-27" edge="1">
          <mxGeometry width="50" height="50" relative="1" as="geometry">
            <mxPoint x="769" y="-382.5" as="sourcePoint" />
            <mxPoint x="717" y="-382.5" as="targetPoint" />
          </mxGeometry>
        </mxCell>
        <mxCell id="6YiGRtF6zz8yhD4ga1EQ-46" value="" style="endArrow=none;html=1;rounded=1;sketch=0;curved=0;exitX=0;exitY=0.5;exitDx=0;exitDy=0;entryX=1;entryY=0.5;entryDx=0;entryDy=0;" parent="1" source="6YiGRtF6zz8yhD4ga1EQ-33" target="6YiGRtF6zz8yhD4ga1EQ-25" edge="1">
          <mxGeometry width="50" height="50" relative="1" as="geometry">
            <mxPoint x="779" y="-372.5" as="sourcePoint" />
            <mxPoint x="727" y="-372" as="targetPoint" />
          </mxGeometry>
        </mxCell>
        <mxCell id="6YiGRtF6zz8yhD4ga1EQ-47" value="" style="endArrow=none;html=1;rounded=1;sketch=0;curved=0;exitX=0;exitY=0.5;exitDx=0;exitDy=0;entryX=1;entryY=0.5;entryDx=0;entryDy=0;strokeColor=#FF0000;dashed=1;" parent="1" edge="1">
          <mxGeometry width="50" height="50" relative="1" as="geometry">
            <mxPoint x="739" y="-376.78" as="sourcePoint" />
            <mxPoint x="687" y="-376.78" as="targetPoint" />
          </mxGeometry>
        </mxCell>
        <mxCell id="6YiGRtF6zz8yhD4ga1EQ-48" value="" style="endArrow=none;html=1;rounded=1;sketch=0;curved=0;exitX=0;exitY=0.5;exitDx=0;exitDy=0;entryX=1;entryY=0.5;entryDx=0;entryDy=0;strokeColor=#FF0000;dashed=1;" parent="1" source="6YiGRtF6zz8yhD4ga1EQ-31" target="6YiGRtF6zz8yhD4ga1EQ-24" edge="1">
          <mxGeometry width="50" height="50" relative="1" as="geometry">
            <mxPoint x="749" y="-366.78" as="sourcePoint" />
            <mxPoint x="697" y="-366.78" as="targetPoint" />
          </mxGeometry>
        </mxCell>
        <mxCell id="6YiGRtF6zz8yhD4ga1EQ-49" value="" style="endArrow=none;html=1;rounded=1;sketch=0;curved=0;exitX=1;exitY=0.5;exitDx=0;exitDy=0;strokeColor=#FF0000;dashed=1;" parent="1" source="6YiGRtF6zz8yhD4ga1EQ-26" edge="1">
          <mxGeometry width="50" height="50" relative="1" as="geometry">
            <mxPoint x="759" y="-356.78" as="sourcePoint" />
            <mxPoint x="737" y="-520" as="targetPoint" />
          </mxGeometry>
        </mxCell>
        <mxCell id="6YiGRtF6zz8yhD4ga1EQ-50" value="" style="endArrow=none;html=1;rounded=1;sketch=0;curved=0;exitX=0;exitY=0.5;exitDx=0;exitDy=0;entryX=1;entryY=0.5;entryDx=0;entryDy=0;strokeColor=#FF0000;dashed=1;" parent="1" source="6YiGRtF6zz8yhD4ga1EQ-32" target="6YiGRtF6zz8yhD4ga1EQ-25" edge="1">
          <mxGeometry width="50" height="50" relative="1" as="geometry">
            <mxPoint x="769" y="-346.78" as="sourcePoint" />
            <mxPoint x="717" y="-346.78" as="targetPoint" />
          </mxGeometry>
        </mxCell>
        <mxCell id="6YiGRtF6zz8yhD4ga1EQ-53" value="" style="endArrow=none;html=1;rounded=1;sketch=0;curved=0;exitX=0;exitY=0.5;exitDx=0;exitDy=0;entryX=1;entryY=0.5;entryDx=0;entryDy=0;strokeColor=#000000;" parent="1" edge="1">
          <mxGeometry width="50" height="50" relative="1" as="geometry">
            <mxPoint x="739" y="-448.78" as="sourcePoint" />
            <mxPoint x="687" y="-448.78" as="targetPoint" />
          </mxGeometry>
        </mxCell>
        <mxCell id="6YiGRtF6zz8yhD4ga1EQ-55" value="" style="ellipse;whiteSpace=wrap;html=1;aspect=fixed;rounded=0;sketch=0;strokeWidth=1;fillColor=#dae8fc;strokeColor=#6c8ebf;gradientColor=#7ea6e0;" parent="1" vertex="1">
          <mxGeometry x="635" y="-344" width="18" height="18" as="geometry" />
        </mxCell>
        <mxCell id="6YiGRtF6zz8yhD4ga1EQ-57" value="&lt;p&gt;&lt;font style=&quot;font-size: 6px&quot;&gt;&lt;b&gt;Undiscovered links&lt;/b&gt;&lt;/font&gt;&lt;/p&gt;" style="text;html=1;align=center;verticalAlign=middle;resizable=0;points=[];autosize=1;strokeColor=none;fillColor=none;strokeWidth=1;" parent="1" vertex="1">
          <mxGeometry x="676.75" y="-305" width="120" height="42" as="geometry" />
        </mxCell>
        <mxCell id="6YiGRtF6zz8yhD4ga1EQ-59" value="&lt;b&gt;Diseases&lt;/b&gt;" style="text;html=1;align=center;verticalAlign=middle;resizable=0;points=[];autosize=1;strokeColor=none;fillColor=none;" parent="1" vertex="1">
          <mxGeometry x="714" y="-344" width="62" height="18" as="geometry" />
        </mxCell>
        <mxCell id="6YiGRtF6zz8yhD4ga1EQ-60" value="&lt;p&gt;&lt;font style=&quot;font-size: 5px&quot;&gt;&lt;b&gt;Drugs&lt;/b&gt;&lt;/font&gt;&lt;/p&gt;" style="text;html=1;strokeColor=none;fillColor=none;align=center;verticalAlign=middle;whiteSpace=wrap;rounded=0;sketch=0;fontSize=6;" parent="1" vertex="1">
          <mxGeometry x="658" y="-345" width="36" height="19" as="geometry" />
        </mxCell>
        <mxCell id="6YiGRtF6zz8yhD4ga1EQ-68" value="" style="ellipse;whiteSpace=wrap;html=1;aspect=fixed;rounded=0;sketch=0;strokeWidth=1;fillColor=#fff2cc;strokeColor=#d6b656;gradientColor=#ffd966;" parent="1" vertex="1">
          <mxGeometry x="699" y="-344" width="18" height="18" as="geometry" />
        </mxCell>
        <mxCell id="6YiGRtF6zz8yhD4ga1EQ-76" value="" style="endArrow=none;html=1;rounded=1;sketch=0;fontSize=6;strokeColor=#000000;curved=0;strokeWidth=1;labelBackgroundColor=none;" parent="1" edge="1">
          <mxGeometry width="50" height="50" relative="1" as="geometry">
            <mxPoint x="672.5" y="-306" as="sourcePoint" />
            <mxPoint x="631.5" y="-306" as="targetPoint" />
          </mxGeometry>
        </mxCell>
        <mxCell id="6YiGRtF6zz8yhD4ga1EQ-77" value="&lt;font style=&quot;font-size: 11px&quot;&gt;&lt;b&gt;Known association&lt;/b&gt;&lt;/font&gt;" style="text;html=1;strokeColor=none;fillColor=none;align=center;verticalAlign=middle;whiteSpace=wrap;rounded=0;sketch=0;fontSize=6;" parent="1" vertex="1">
          <mxGeometry x="675.5" y="-314" width="122.5" height="14" as="geometry" />
        </mxCell>
        <mxCell id="6YiGRtF6zz8yhD4ga1EQ-79" value="" style="endArrow=none;html=1;rounded=1;sketch=0;curved=0;strokeColor=#FF0000;dashed=1;" parent="1" edge="1">
          <mxGeometry width="50" height="50" relative="1" as="geometry">
            <mxPoint x="672.5" y="-282.78787878787875" as="sourcePoint" />
            <mxPoint x="629.5" y="-282.78787878787875" as="targetPoint" />
          </mxGeometry>
        </mxCell>
        <mxCell id="6YiGRtF6zz8yhD4ga1EQ-81" style="edgeStyle=orthogonalEdgeStyle;curved=0;rounded=1;sketch=0;orthogonalLoop=1;jettySize=auto;html=1;exitX=0.5;exitY=1;exitDx=0;exitDy=0;fontSize=11;strokeColor=#000000;strokeWidth=1;" parent="1" source="6YiGRtF6zz8yhD4ga1EQ-23" target="6YiGRtF6zz8yhD4ga1EQ-23" edge="1">
          <mxGeometry relative="1" as="geometry" />
        </mxCell>
        <mxCell id="6YiGRtF6zz8yhD4ga1EQ-114" value="" style="shape=table;startSize=0;container=1;collapsible=0;childLayout=tableLayout;rounded=0;shadow=0;sketch=0;fontSize=11;strokeWidth=1;" parent="1" vertex="1">
          <mxGeometry x="880" y="-499" width="267" height="173.9052413137336" as="geometry" />
        </mxCell>
        <mxCell id="6YiGRtF6zz8yhD4ga1EQ-115" value="" style="shape=tableRow;horizontal=0;startSize=0;swimlaneHead=0;swimlaneBody=0;top=0;left=0;bottom=0;right=0;collapsible=0;dropTarget=0;fillColor=none;points=[[0,0.5],[1,0.5]];portConstraint=eastwest;rounded=0;shadow=0;sketch=0;fontSize=11;strokeWidth=1;strokeColor=#000000;" parent="6YiGRtF6zz8yhD4ga1EQ-114" vertex="1">
          <mxGeometry width="267" height="36" as="geometry" />
        </mxCell>
        <mxCell id="6YiGRtF6zz8yhD4ga1EQ-116" value="" style="shape=partialRectangle;html=1;whiteSpace=wrap;connectable=0;overflow=hidden;fillColor=none;top=0;left=0;bottom=0;right=0;pointerEvents=1;rounded=0;shadow=0;sketch=0;fontSize=11;strokeWidth=1;" parent="6YiGRtF6zz8yhD4ga1EQ-115" vertex="1">
          <mxGeometry width="39" height="36" as="geometry">
            <mxRectangle width="39" height="36" as="alternateBounds" />
          </mxGeometry>
        </mxCell>
        <mxCell id="6YiGRtF6zz8yhD4ga1EQ-117" value="" style="shape=partialRectangle;html=1;whiteSpace=wrap;connectable=0;overflow=hidden;fillColor=none;top=0;left=0;bottom=0;right=0;pointerEvents=1;rounded=0;shadow=0;sketch=0;fontSize=11;strokeWidth=1;" parent="6YiGRtF6zz8yhD4ga1EQ-115" vertex="1">
          <mxGeometry x="39" width="37" height="36" as="geometry">
            <mxRectangle width="37" height="36" as="alternateBounds" />
          </mxGeometry>
        </mxCell>
        <mxCell id="6YiGRtF6zz8yhD4ga1EQ-118" value="1" style="shape=partialRectangle;html=1;whiteSpace=wrap;connectable=0;overflow=hidden;fillColor=#60a917;top=0;left=0;bottom=0;right=0;pointerEvents=1;rounded=0;shadow=0;sketch=0;fontSize=11;strokeWidth=1;fontColor=#ffffff;strokeColor=#2D7600;" parent="6YiGRtF6zz8yhD4ga1EQ-115" vertex="1">
          <mxGeometry x="76" width="39" height="36" as="geometry">
            <mxRectangle width="39" height="36" as="alternateBounds" />
          </mxGeometry>
        </mxCell>
        <mxCell id="6YiGRtF6zz8yhD4ga1EQ-119" value="?" style="shape=partialRectangle;html=1;whiteSpace=wrap;connectable=0;overflow=hidden;fillColor=#FF0000;top=0;left=0;bottom=0;right=0;pointerEvents=1;rounded=0;shadow=0;sketch=0;fontSize=11;strokeWidth=1;strokeColor=#2D7600;fontColor=#ffffff;" parent="6YiGRtF6zz8yhD4ga1EQ-115" vertex="1">
          <mxGeometry x="115" width="41" height="36" as="geometry">
            <mxRectangle width="41" height="36" as="alternateBounds" />
          </mxGeometry>
        </mxCell>
        <mxCell id="6YiGRtF6zz8yhD4ga1EQ-120" value="" style="shape=partialRectangle;html=1;whiteSpace=wrap;connectable=0;overflow=hidden;fillColor=none;top=0;left=0;bottom=0;right=0;pointerEvents=1;rounded=0;shadow=0;sketch=0;fontSize=11;strokeWidth=1;" parent="6YiGRtF6zz8yhD4ga1EQ-115" vertex="1">
          <mxGeometry x="156" width="35" height="36" as="geometry">
            <mxRectangle width="35" height="36" as="alternateBounds" />
          </mxGeometry>
        </mxCell>
        <mxCell id="6YiGRtF6zz8yhD4ga1EQ-121" value="1" style="shape=partialRectangle;html=1;whiteSpace=wrap;connectable=0;overflow=hidden;fillColor=#60a917;top=0;left=0;bottom=0;right=0;pointerEvents=1;rounded=0;shadow=0;sketch=0;fontSize=11;strokeWidth=1;strokeColor=#2D7600;fontColor=#ffffff;" parent="6YiGRtF6zz8yhD4ga1EQ-115" vertex="1">
          <mxGeometry x="191" width="37" height="36" as="geometry">
            <mxRectangle width="37" height="36" as="alternateBounds" />
          </mxGeometry>
        </mxCell>
        <mxCell id="6YiGRtF6zz8yhD4ga1EQ-122" value="" style="shape=partialRectangle;html=1;whiteSpace=wrap;connectable=0;overflow=hidden;top=0;left=0;bottom=0;right=0;pointerEvents=1;rounded=0;shadow=0;sketch=0;fontSize=11;strokeWidth=1;fillColor=none;" parent="6YiGRtF6zz8yhD4ga1EQ-115" vertex="1">
          <mxGeometry x="228" width="39" height="36" as="geometry">
            <mxRectangle width="39" height="36" as="alternateBounds" />
          </mxGeometry>
        </mxCell>
        <mxCell id="6YiGRtF6zz8yhD4ga1EQ-123" value="" style="shape=tableRow;horizontal=0;startSize=0;swimlaneHead=0;swimlaneBody=0;top=0;left=0;bottom=0;right=0;collapsible=0;dropTarget=0;fillColor=none;points=[[0,0.5],[1,0.5]];portConstraint=eastwest;rounded=0;shadow=0;sketch=0;fontSize=11;strokeWidth=1;" parent="6YiGRtF6zz8yhD4ga1EQ-114" vertex="1">
          <mxGeometry y="36" width="267" height="31" as="geometry" />
        </mxCell>
        <mxCell id="6YiGRtF6zz8yhD4ga1EQ-124" value="1" style="shape=partialRectangle;html=1;whiteSpace=wrap;connectable=0;overflow=hidden;fillColor=none;top=0;left=0;bottom=0;right=0;pointerEvents=1;rounded=0;shadow=0;sketch=0;fontSize=11;strokeWidth=1;" parent="6YiGRtF6zz8yhD4ga1EQ-123" vertex="1">
          <mxGeometry width="39" height="31" as="geometry">
            <mxRectangle width="39" height="31" as="alternateBounds" />
          </mxGeometry>
        </mxCell>
        <mxCell id="6YiGRtF6zz8yhD4ga1EQ-125" value="" style="shape=partialRectangle;html=1;whiteSpace=wrap;connectable=0;overflow=hidden;fillColor=none;top=0;left=0;bottom=0;right=0;pointerEvents=1;rounded=0;shadow=0;sketch=0;fontSize=11;strokeWidth=1;" parent="6YiGRtF6zz8yhD4ga1EQ-123" vertex="1">
          <mxGeometry x="39" width="37" height="31" as="geometry">
            <mxRectangle width="37" height="31" as="alternateBounds" />
          </mxGeometry>
        </mxCell>
        <mxCell id="6YiGRtF6zz8yhD4ga1EQ-126" value="1" style="shape=partialRectangle;html=1;whiteSpace=wrap;connectable=0;overflow=hidden;top=0;left=0;bottom=0;right=0;pointerEvents=1;rounded=0;shadow=0;sketch=0;fontSize=11;strokeWidth=1;fillColor=#60a917;fontColor=#ffffff;strokeColor=#2D7600;" parent="6YiGRtF6zz8yhD4ga1EQ-123" vertex="1">
          <mxGeometry x="76" width="39" height="31" as="geometry">
            <mxRectangle width="39" height="31" as="alternateBounds" />
          </mxGeometry>
        </mxCell>
        <mxCell id="6YiGRtF6zz8yhD4ga1EQ-127" value="1" style="shape=partialRectangle;html=1;whiteSpace=wrap;connectable=0;overflow=hidden;fillColor=#60a917;top=0;left=0;bottom=0;right=0;pointerEvents=1;rounded=0;shadow=0;sketch=0;fontSize=11;strokeWidth=1;strokeColor=#2D7600;fontColor=#ffffff;" parent="6YiGRtF6zz8yhD4ga1EQ-123" vertex="1">
          <mxGeometry x="115" width="41" height="31" as="geometry">
            <mxRectangle width="41" height="31" as="alternateBounds" />
          </mxGeometry>
        </mxCell>
        <mxCell id="6YiGRtF6zz8yhD4ga1EQ-128" value="" style="shape=partialRectangle;html=1;whiteSpace=wrap;connectable=0;overflow=hidden;fillColor=none;top=0;left=0;bottom=0;right=0;pointerEvents=1;rounded=0;shadow=0;sketch=0;fontSize=11;strokeWidth=1;fontColor=#ffffff;strokeColor=#2D7600;" parent="6YiGRtF6zz8yhD4ga1EQ-123" vertex="1">
          <mxGeometry x="156" width="35" height="31" as="geometry">
            <mxRectangle width="35" height="31" as="alternateBounds" />
          </mxGeometry>
        </mxCell>
        <mxCell id="6YiGRtF6zz8yhD4ga1EQ-129" value="" style="shape=partialRectangle;html=1;whiteSpace=wrap;connectable=0;overflow=hidden;fillColor=none;top=0;left=0;bottom=0;right=0;pointerEvents=1;rounded=0;shadow=0;sketch=0;fontSize=11;strokeWidth=1;strokeColor=#2D7600;fontColor=#ffffff;" parent="6YiGRtF6zz8yhD4ga1EQ-123" vertex="1">
          <mxGeometry x="191" width="37" height="31" as="geometry">
            <mxRectangle width="37" height="31" as="alternateBounds" />
          </mxGeometry>
        </mxCell>
        <mxCell id="6YiGRtF6zz8yhD4ga1EQ-130" value="" style="shape=partialRectangle;html=1;whiteSpace=wrap;connectable=0;overflow=hidden;fillColor=none;top=0;left=0;bottom=0;right=0;pointerEvents=1;rounded=0;shadow=0;sketch=0;fontSize=11;strokeWidth=1;" parent="6YiGRtF6zz8yhD4ga1EQ-123" vertex="1">
          <mxGeometry x="228" width="39" height="31" as="geometry">
            <mxRectangle width="39" height="31" as="alternateBounds" />
          </mxGeometry>
        </mxCell>
        <mxCell id="6YiGRtF6zz8yhD4ga1EQ-131" value="" style="shape=tableRow;horizontal=0;startSize=0;swimlaneHead=0;swimlaneBody=0;top=0;left=0;bottom=0;right=0;collapsible=0;dropTarget=0;fillColor=none;points=[[0,0.5],[1,0.5]];portConstraint=eastwest;rounded=0;shadow=0;sketch=0;fontSize=11;strokeWidth=1;" parent="6YiGRtF6zz8yhD4ga1EQ-114" vertex="1">
          <mxGeometry y="67" width="267" height="36" as="geometry" />
        </mxCell>
        <mxCell id="6YiGRtF6zz8yhD4ga1EQ-132" value="" style="shape=partialRectangle;html=1;whiteSpace=wrap;connectable=0;overflow=hidden;fillColor=none;top=0;left=0;bottom=0;right=0;pointerEvents=1;rounded=0;shadow=0;sketch=0;fontSize=11;strokeWidth=1;" parent="6YiGRtF6zz8yhD4ga1EQ-131" vertex="1">
          <mxGeometry width="39" height="36" as="geometry">
            <mxRectangle width="39" height="36" as="alternateBounds" />
          </mxGeometry>
        </mxCell>
        <mxCell id="6YiGRtF6zz8yhD4ga1EQ-133" value="" style="shape=partialRectangle;html=1;whiteSpace=wrap;connectable=0;overflow=hidden;fillColor=none;top=0;left=0;bottom=0;right=0;pointerEvents=1;rounded=0;shadow=0;sketch=0;fontSize=11;strokeWidth=1;" parent="6YiGRtF6zz8yhD4ga1EQ-131" vertex="1">
          <mxGeometry x="39" width="37" height="36" as="geometry">
            <mxRectangle width="37" height="36" as="alternateBounds" />
          </mxGeometry>
        </mxCell>
        <mxCell id="6YiGRtF6zz8yhD4ga1EQ-134" value="" style="shape=partialRectangle;html=1;whiteSpace=wrap;connectable=0;overflow=hidden;fillColor=none;top=0;left=0;bottom=0;right=0;pointerEvents=1;rounded=0;shadow=0;sketch=0;fontSize=11;strokeWidth=1;fontColor=#ffffff;strokeColor=#2D7600;" parent="6YiGRtF6zz8yhD4ga1EQ-131" vertex="1">
          <mxGeometry x="76" width="39" height="36" as="geometry">
            <mxRectangle width="39" height="36" as="alternateBounds" />
          </mxGeometry>
        </mxCell>
        <mxCell id="6YiGRtF6zz8yhD4ga1EQ-135" value="1" style="shape=partialRectangle;html=1;whiteSpace=wrap;connectable=0;overflow=hidden;fillColor=#60a917;top=0;left=0;bottom=0;right=0;pointerEvents=1;rounded=0;shadow=0;sketch=0;fontSize=11;strokeWidth=1;fontColor=#ffffff;strokeColor=#2D7600;" parent="6YiGRtF6zz8yhD4ga1EQ-131" vertex="1">
          <mxGeometry x="115" width="41" height="36" as="geometry">
            <mxRectangle width="41" height="36" as="alternateBounds" />
          </mxGeometry>
        </mxCell>
        <mxCell id="6YiGRtF6zz8yhD4ga1EQ-136" value="" style="shape=partialRectangle;html=1;whiteSpace=wrap;connectable=0;overflow=hidden;fillColor=none;top=0;left=0;bottom=0;right=0;pointerEvents=1;rounded=0;shadow=0;sketch=0;fontSize=11;strokeWidth=1;" parent="6YiGRtF6zz8yhD4ga1EQ-131" vertex="1">
          <mxGeometry x="156" width="35" height="36" as="geometry">
            <mxRectangle width="35" height="36" as="alternateBounds" />
          </mxGeometry>
        </mxCell>
        <mxCell id="6YiGRtF6zz8yhD4ga1EQ-137" value="1" style="shape=partialRectangle;html=1;whiteSpace=wrap;connectable=0;overflow=hidden;fillColor=#60a917;top=0;left=0;bottom=0;right=0;pointerEvents=1;rounded=0;shadow=0;sketch=0;fontSize=11;strokeWidth=1;strokeColor=#2D7600;fontColor=#ffffff;" parent="6YiGRtF6zz8yhD4ga1EQ-131" vertex="1">
          <mxGeometry x="191" width="37" height="36" as="geometry">
            <mxRectangle width="37" height="36" as="alternateBounds" />
          </mxGeometry>
        </mxCell>
        <mxCell id="6YiGRtF6zz8yhD4ga1EQ-138" value="" style="shape=partialRectangle;html=1;whiteSpace=wrap;connectable=0;overflow=hidden;fillColor=none;top=0;left=0;bottom=0;right=0;pointerEvents=1;rounded=0;shadow=0;sketch=0;fontSize=11;strokeWidth=1;strokeColor=#2D7600;fontColor=#ffffff;" parent="6YiGRtF6zz8yhD4ga1EQ-131" vertex="1">
          <mxGeometry x="228" width="39" height="36" as="geometry">
            <mxRectangle width="39" height="36" as="alternateBounds" />
          </mxGeometry>
        </mxCell>
        <mxCell id="6YiGRtF6zz8yhD4ga1EQ-139" value="" style="shape=tableRow;horizontal=0;startSize=0;swimlaneHead=0;swimlaneBody=0;top=0;left=0;bottom=0;right=0;collapsible=0;dropTarget=0;fillColor=none;points=[[0,0.5],[1,0.5]];portConstraint=eastwest;rounded=0;shadow=0;sketch=0;fontSize=11;strokeWidth=1;" parent="6YiGRtF6zz8yhD4ga1EQ-114" vertex="1">
          <mxGeometry y="103" width="267" height="35" as="geometry" />
        </mxCell>
        <mxCell id="6YiGRtF6zz8yhD4ga1EQ-140" value="1" style="shape=partialRectangle;html=1;whiteSpace=wrap;connectable=0;overflow=hidden;fillColor=none;top=0;left=0;bottom=0;right=0;pointerEvents=1;rounded=0;shadow=0;sketch=0;fontSize=11;strokeWidth=1;" parent="6YiGRtF6zz8yhD4ga1EQ-139" vertex="1">
          <mxGeometry width="39" height="35" as="geometry">
            <mxRectangle width="39" height="35" as="alternateBounds" />
          </mxGeometry>
        </mxCell>
        <mxCell id="6YiGRtF6zz8yhD4ga1EQ-141" value="" style="shape=partialRectangle;html=1;whiteSpace=wrap;connectable=0;overflow=hidden;fillColor=none;top=0;left=0;bottom=0;right=0;pointerEvents=1;rounded=0;shadow=0;sketch=0;fontSize=11;strokeWidth=1;" parent="6YiGRtF6zz8yhD4ga1EQ-139" vertex="1">
          <mxGeometry x="39" width="37" height="35" as="geometry">
            <mxRectangle width="37" height="35" as="alternateBounds" />
          </mxGeometry>
        </mxCell>
        <mxCell id="6YiGRtF6zz8yhD4ga1EQ-142" value="" style="shape=partialRectangle;html=1;whiteSpace=wrap;connectable=0;overflow=hidden;fillColor=none;top=0;left=0;bottom=0;right=0;pointerEvents=1;rounded=0;shadow=0;sketch=0;fontSize=11;strokeWidth=1;" parent="6YiGRtF6zz8yhD4ga1EQ-139" vertex="1">
          <mxGeometry x="76" width="39" height="35" as="geometry">
            <mxRectangle width="39" height="35" as="alternateBounds" />
          </mxGeometry>
        </mxCell>
        <mxCell id="6YiGRtF6zz8yhD4ga1EQ-143" value="" style="shape=partialRectangle;html=1;whiteSpace=wrap;connectable=0;overflow=hidden;fillColor=none;top=0;left=0;bottom=0;right=0;pointerEvents=1;rounded=0;shadow=0;sketch=0;fontSize=11;strokeWidth=1;" parent="6YiGRtF6zz8yhD4ga1EQ-139" vertex="1">
          <mxGeometry x="115" width="41" height="35" as="geometry">
            <mxRectangle width="41" height="35" as="alternateBounds" />
          </mxGeometry>
        </mxCell>
        <mxCell id="6YiGRtF6zz8yhD4ga1EQ-144" value="1" style="shape=partialRectangle;html=1;whiteSpace=wrap;connectable=0;overflow=hidden;fillColor=none;top=0;left=0;bottom=0;right=0;pointerEvents=1;rounded=0;shadow=0;sketch=0;fontSize=11;strokeWidth=1;" parent="6YiGRtF6zz8yhD4ga1EQ-139" vertex="1">
          <mxGeometry x="156" width="35" height="35" as="geometry">
            <mxRectangle width="35" height="35" as="alternateBounds" />
          </mxGeometry>
        </mxCell>
        <mxCell id="6YiGRtF6zz8yhD4ga1EQ-145" value="" style="shape=partialRectangle;html=1;whiteSpace=wrap;connectable=0;overflow=hidden;fillColor=none;top=0;left=0;bottom=0;right=0;pointerEvents=1;rounded=0;shadow=0;sketch=0;fontSize=11;strokeWidth=1;" parent="6YiGRtF6zz8yhD4ga1EQ-139" vertex="1">
          <mxGeometry x="191" width="37" height="35" as="geometry">
            <mxRectangle width="37" height="35" as="alternateBounds" />
          </mxGeometry>
        </mxCell>
        <mxCell id="6YiGRtF6zz8yhD4ga1EQ-146" value="" style="shape=partialRectangle;html=1;whiteSpace=wrap;connectable=0;overflow=hidden;fillColor=none;top=0;left=0;bottom=0;right=0;pointerEvents=1;rounded=0;shadow=0;sketch=0;fontSize=11;strokeWidth=1;" parent="6YiGRtF6zz8yhD4ga1EQ-139" vertex="1">
          <mxGeometry x="228" width="39" height="35" as="geometry">
            <mxRectangle width="39" height="35" as="alternateBounds" />
          </mxGeometry>
        </mxCell>
        <mxCell id="6YiGRtF6zz8yhD4ga1EQ-147" value="" style="shape=tableRow;horizontal=0;startSize=0;swimlaneHead=0;swimlaneBody=0;top=0;left=0;bottom=0;right=0;collapsible=0;dropTarget=0;fillColor=none;points=[[0,0.5],[1,0.5]];portConstraint=eastwest;rounded=0;shadow=0;sketch=0;fontSize=11;strokeWidth=1;" parent="6YiGRtF6zz8yhD4ga1EQ-114" vertex="1">
          <mxGeometry y="138" width="267" height="36" as="geometry" />
        </mxCell>
        <mxCell id="6YiGRtF6zz8yhD4ga1EQ-148" value="" style="shape=partialRectangle;html=1;whiteSpace=wrap;connectable=0;overflow=hidden;fillColor=none;top=0;left=0;bottom=0;right=0;pointerEvents=1;rounded=0;shadow=0;sketch=0;fontSize=11;strokeWidth=1;" parent="6YiGRtF6zz8yhD4ga1EQ-147" vertex="1">
          <mxGeometry width="39" height="36" as="geometry">
            <mxRectangle width="39" height="36" as="alternateBounds" />
          </mxGeometry>
        </mxCell>
        <mxCell id="6YiGRtF6zz8yhD4ga1EQ-149" value="1" style="shape=partialRectangle;html=1;whiteSpace=wrap;connectable=0;overflow=hidden;fillColor=none;top=0;left=0;bottom=0;right=0;pointerEvents=1;rounded=0;shadow=0;sketch=0;fontSize=11;strokeWidth=1;" parent="6YiGRtF6zz8yhD4ga1EQ-147" vertex="1">
          <mxGeometry x="39" width="37" height="36" as="geometry">
            <mxRectangle width="37" height="36" as="alternateBounds" />
          </mxGeometry>
        </mxCell>
        <mxCell id="6YiGRtF6zz8yhD4ga1EQ-150" value="" style="shape=partialRectangle;html=1;whiteSpace=wrap;connectable=0;overflow=hidden;fillColor=none;top=0;left=0;bottom=0;right=0;pointerEvents=1;rounded=0;shadow=0;sketch=0;fontSize=11;strokeWidth=1;" parent="6YiGRtF6zz8yhD4ga1EQ-147" vertex="1">
          <mxGeometry x="76" width="39" height="36" as="geometry">
            <mxRectangle width="39" height="36" as="alternateBounds" />
          </mxGeometry>
        </mxCell>
        <mxCell id="6YiGRtF6zz8yhD4ga1EQ-151" value="" style="shape=partialRectangle;html=1;whiteSpace=wrap;connectable=0;overflow=hidden;fillColor=none;top=0;left=0;bottom=0;right=0;pointerEvents=1;rounded=0;shadow=0;sketch=0;fontSize=11;strokeWidth=1;" parent="6YiGRtF6zz8yhD4ga1EQ-147" vertex="1">
          <mxGeometry x="115" width="41" height="36" as="geometry">
            <mxRectangle width="41" height="36" as="alternateBounds" />
          </mxGeometry>
        </mxCell>
        <mxCell id="6YiGRtF6zz8yhD4ga1EQ-152" value="1" style="shape=partialRectangle;html=1;whiteSpace=wrap;connectable=0;overflow=hidden;fillColor=none;top=0;left=0;bottom=0;right=0;pointerEvents=1;rounded=0;shadow=0;sketch=0;fontSize=11;strokeWidth=1;" parent="6YiGRtF6zz8yhD4ga1EQ-147" vertex="1">
          <mxGeometry x="156" width="35" height="36" as="geometry">
            <mxRectangle width="35" height="36" as="alternateBounds" />
          </mxGeometry>
        </mxCell>
        <mxCell id="6YiGRtF6zz8yhD4ga1EQ-153" value="" style="shape=partialRectangle;html=1;whiteSpace=wrap;connectable=0;overflow=hidden;fillColor=none;top=0;left=0;bottom=0;right=0;pointerEvents=1;rounded=0;shadow=0;sketch=0;fontSize=11;strokeWidth=1;" parent="6YiGRtF6zz8yhD4ga1EQ-147" vertex="1">
          <mxGeometry x="191" width="37" height="36" as="geometry">
            <mxRectangle width="37" height="36" as="alternateBounds" />
          </mxGeometry>
        </mxCell>
        <mxCell id="6YiGRtF6zz8yhD4ga1EQ-154" value="1" style="shape=partialRectangle;html=1;whiteSpace=wrap;connectable=0;overflow=hidden;fillColor=none;top=0;left=0;bottom=0;right=0;pointerEvents=1;rounded=0;shadow=0;sketch=0;fontSize=11;strokeWidth=1;" parent="6YiGRtF6zz8yhD4ga1EQ-147" vertex="1">
          <mxGeometry x="228" width="39" height="36" as="geometry">
            <mxRectangle width="39" height="36" as="alternateBounds" />
          </mxGeometry>
        </mxCell>
        <mxCell id="6YiGRtF6zz8yhD4ga1EQ-155" value="&lt;b&gt;&lt;font style=&quot;font-size: 14px&quot;&gt;Drugs&lt;/font&gt;&lt;/b&gt;" style="text;html=1;align=center;verticalAlign=middle;resizable=0;points=[];autosize=1;strokeColor=none;fillColor=none;fontSize=11;" parent="1" vertex="1">
          <mxGeometry x="825" y="-457" width="50" height="17" as="geometry" />
        </mxCell>
        <mxCell id="6YiGRtF6zz8yhD4ga1EQ-156" value="&lt;b&gt;&lt;font style=&quot;font-size: 16px&quot;&gt;Diseases&lt;/font&gt;&lt;/b&gt;" style="text;html=1;align=center;verticalAlign=middle;resizable=0;points=[];autosize=1;strokeColor=none;fillColor=none;fontSize=11;" parent="1" vertex="1">
          <mxGeometry x="975" y="-528" width="79" height="19" as="geometry" />
        </mxCell>
        <mxCell id="6YiGRtF6zz8yhD4ga1EQ-166" value="&lt;span lang=&quot;EN-US&quot;&gt;&lt;font&gt;&lt;b&gt;&lt;font style=&quot;font-size: 16px&quot;&gt;Drug-Disease&amp;nbsp;Associations Matrix&lt;/font&gt;&lt;/b&gt;&lt;br&gt;&lt;/font&gt;&lt;/span&gt;" style="text;html=1;align=center;verticalAlign=middle;resizable=0;points=[];autosize=1;strokeColor=none;fillColor=none;fontSize=11;" parent="1" vertex="1">
          <mxGeometry x="874" y="-309" width="268" height="19" as="geometry" />
        </mxCell>
        <mxCell id="6YiGRtF6zz8yhD4ga1EQ-170" value="" style="ellipse;whiteSpace=wrap;html=1;aspect=fixed;rounded=0;sketch=0;strokeWidth=1;fillColor=#dae8fc;strokeColor=#6c8ebf;gradientColor=#7ea6e0;" parent="1" vertex="1">
          <mxGeometry x="1248" y="-464" width="25" height="25" as="geometry" />
        </mxCell>
        <mxCell id="6YiGRtF6zz8yhD4ga1EQ-171" value="" style="ellipse;whiteSpace=wrap;html=1;aspect=fixed;rounded=0;sketch=0;strokeWidth=1;fillColor=#fff2cc;strokeColor=#d6b656;gradientColor=#ffd966;" parent="1" vertex="1">
          <mxGeometry x="1317" y="-464" width="25" height="25" as="geometry" />
        </mxCell>
        <mxCell id="6YiGRtF6zz8yhD4ga1EQ-173" value="" style="ellipse;whiteSpace=wrap;html=1;aspect=fixed;rounded=0;sketch=0;strokeWidth=1;fillColor=#dae8fc;strokeColor=#6c8ebf;gradientColor=#7ea6e0;" parent="1" vertex="1">
          <mxGeometry x="1248" y="-421" width="25" height="25" as="geometry" />
        </mxCell>
        <mxCell id="6YiGRtF6zz8yhD4ga1EQ-174" value="" style="ellipse;whiteSpace=wrap;html=1;aspect=fixed;rounded=0;sketch=0;strokeWidth=1;fillColor=#dae8fc;strokeColor=#6c8ebf;gradientColor=#7ea6e0;" parent="1" vertex="1">
          <mxGeometry x="1248" y="-375" width="25" height="25" as="geometry" />
        </mxCell>
        <mxCell id="6YiGRtF6zz8yhD4ga1EQ-175" value="" style="ellipse;whiteSpace=wrap;html=1;aspect=fixed;rounded=0;sketch=0;strokeWidth=1;fillColor=#fff2cc;strokeColor=#d6b656;gradientColor=#ffd966;" parent="1" vertex="1">
          <mxGeometry x="1317" y="-375" width="25" height="25" as="geometry" />
        </mxCell>
        <mxCell id="6YiGRtF6zz8yhD4ga1EQ-176" value="" style="ellipse;whiteSpace=wrap;html=1;aspect=fixed;rounded=0;sketch=0;strokeWidth=1;fillColor=#fff2cc;strokeColor=#d6b656;gradientColor=#ffd966;" parent="1" vertex="1">
          <mxGeometry x="1317" y="-421" width="25" height="25" as="geometry" />
        </mxCell>
        <mxCell id="6YiGRtF6zz8yhD4ga1EQ-202" value="&lt;font color=&quot;#000000&quot;&gt;&lt;b&gt;u&lt;/b&gt;&lt;/font&gt;" style="text;html=1;align=center;verticalAlign=middle;resizable=0;points=[];autosize=1;strokeColor=none;fillColor=none;fontSize=12;fontColor=#FF0000;" parent="1" vertex="1">
          <mxGeometry x="1225" y="-417.5" width="17" height="18" as="geometry" />
        </mxCell>
        <mxCell id="6YiGRtF6zz8yhD4ga1EQ-205" value="&lt;font color=&quot;#000000&quot;&gt;&lt;b&gt;v&lt;/b&gt;&lt;/font&gt;" style="text;html=1;align=center;verticalAlign=middle;resizable=0;points=[];autosize=1;strokeColor=none;fillColor=none;fontSize=12;fontColor=#FF0000;" parent="1" vertex="1">
          <mxGeometry x="1351.5" y="-417.5" width="16" height="18" as="geometry" />
        </mxCell>
        <mxCell id="6YiGRtF6zz8yhD4ga1EQ-206" value="&lt;b&gt;&lt;font style=&quot;font-size: 14px&quot;&gt;Drugs&lt;/font&gt;&lt;/b&gt;" style="text;html=1;align=center;verticalAlign=middle;resizable=0;points=[];autosize=1;strokeColor=none;fillColor=none;fontSize=11;" parent="1" vertex="1">
          <mxGeometry x="1236.5" y="-495" width="50" height="17" as="geometry" />
        </mxCell>
        <mxCell id="6YiGRtF6zz8yhD4ga1EQ-207" value="&lt;b&gt;&lt;font style=&quot;font-size: 14px&quot;&gt;Diseases&lt;/font&gt;&lt;/b&gt;" style="text;html=1;align=center;verticalAlign=middle;resizable=0;points=[];autosize=1;strokeColor=none;fillColor=none;fontSize=11;" parent="1" vertex="1">
          <mxGeometry x="1300" y="-495" width="71" height="17" as="geometry" />
        </mxCell>
        <mxCell id="6YiGRtF6zz8yhD4ga1EQ-231" value="" style="endArrow=none;html=1;rounded=1;labelBackgroundColor=none;sketch=0;fontSize=12;fontColor=#000000;strokeColor=#000000;strokeWidth=1;curved=0;exitX=0;exitY=0.5;exitDx=0;exitDy=0;entryX=1;entryY=0.5;entryDx=0;entryDy=0;" parent="1" source="6YiGRtF6zz8yhD4ga1EQ-175" target="6YiGRtF6zz8yhD4ga1EQ-174" edge="1">
          <mxGeometry width="50" height="50" relative="1" as="geometry">
            <mxPoint x="1346.5" y="-398.5" as="sourcePoint" />
            <mxPoint x="1293" y="-399" as="targetPoint" />
          </mxGeometry>
        </mxCell>
        <mxCell id="6YiGRtF6zz8yhD4ga1EQ-240" value="" style="endArrow=none;html=1;rounded=1;labelBackgroundColor=none;sketch=0;fontSize=12;fontColor=#000000;strokeColor=#000000;strokeWidth=1;curved=0;exitX=0;exitY=0.5;exitDx=0;exitDy=0;entryX=1;entryY=0.5;entryDx=0;entryDy=0;" parent="1" source="6YiGRtF6zz8yhD4ga1EQ-171" target="6YiGRtF6zz8yhD4ga1EQ-173" edge="1">
          <mxGeometry width="50" height="50" relative="1" as="geometry">
            <mxPoint x="1327.0000000000084" y="-352.5" as="sourcePoint" />
            <mxPoint x="1282.9999999999916" y="-352.5" as="targetPoint" />
          </mxGeometry>
        </mxCell>
        <mxCell id="6YiGRtF6zz8yhD4ga1EQ-241" value="" style="endArrow=none;html=1;rounded=1;labelBackgroundColor=none;sketch=0;fontSize=12;fontColor=#000000;strokeColor=#000000;strokeWidth=1;curved=0;exitX=0;exitY=0.5;exitDx=0;exitDy=0;entryX=1;entryY=0.5;entryDx=0;entryDy=0;" parent="1" source="6YiGRtF6zz8yhD4ga1EQ-175" target="6YiGRtF6zz8yhD4ga1EQ-173" edge="1">
          <mxGeometry width="50" height="50" relative="1" as="geometry">
            <mxPoint x="1327" y="-441.5" as="sourcePoint" />
            <mxPoint x="1283" y="-398.5" as="targetPoint" />
          </mxGeometry>
        </mxCell>
        <mxCell id="6YiGRtF6zz8yhD4ga1EQ-242" value="" style="endArrow=none;html=1;rounded=1;labelBackgroundColor=none;sketch=0;fontSize=12;fontColor=#000000;strokeColor=#000000;strokeWidth=1;curved=0;exitX=0;exitY=0.5;exitDx=0;exitDy=0;entryX=1;entryY=0.5;entryDx=0;entryDy=0;" parent="1" source="6YiGRtF6zz8yhD4ga1EQ-171" target="6YiGRtF6zz8yhD4ga1EQ-170" edge="1">
          <mxGeometry width="50" height="50" relative="1" as="geometry">
            <mxPoint x="1327.0000000000027" y="-441.5" as="sourcePoint" />
            <mxPoint x="1282.9999999999973" y="-398.5" as="targetPoint" />
          </mxGeometry>
        </mxCell>
        <mxCell id="6YiGRtF6zz8yhD4ga1EQ-243" value="" style="endArrow=none;html=1;rounded=1;labelBackgroundColor=none;sketch=0;fontSize=12;fontColor=#000000;strokeColor=#000000;strokeWidth=1;curved=0;exitX=0;exitY=0.5;exitDx=0;exitDy=0;entryX=1;entryY=0.5;entryDx=0;entryDy=0;" parent="1" source="6YiGRtF6zz8yhD4ga1EQ-176" target="6YiGRtF6zz8yhD4ga1EQ-170" edge="1">
          <mxGeometry width="50" height="50" relative="1" as="geometry">
            <mxPoint x="1326.9999999999832" y="-441.5" as="sourcePoint" />
            <mxPoint x="1282.9999999999975" y="-441.5" as="targetPoint" />
          </mxGeometry>
        </mxCell>
        <mxCell id="6YiGRtF6zz8yhD4ga1EQ-244" value="" style="endArrow=none;html=1;rounded=1;labelBackgroundColor=none;sketch=0;fontSize=12;fontColor=#000000;strokeColor=#000000;strokeWidth=1;curved=0;exitX=0;exitY=0.5;exitDx=0;exitDy=0;" parent="1" source="6YiGRtF6zz8yhD4ga1EQ-176" edge="1">
          <mxGeometry width="50" height="50" relative="1" as="geometry">
            <mxPoint x="1326.9999999999832" y="-352.5" as="sourcePoint" />
            <mxPoint x="1273" y="-362" as="targetPoint" />
          </mxGeometry>
        </mxCell>
        <mxCell id="6YiGRtF6zz8yhD4ga1EQ-277" value="" style="endArrow=none;dashed=1;html=1;rounded=1;labelBackgroundColor=none;sketch=0;fontSize=9;fontColor=#FF0000;strokeColor=#FF0000;strokeWidth=1;curved=0;entryX=1;entryY=0.5;entryDx=0;entryDy=0;" parent="1" source="6YiGRtF6zz8yhD4ga1EQ-280" target="6YiGRtF6zz8yhD4ga1EQ-173" edge="1">
          <mxGeometry width="50" height="50" relative="1" as="geometry">
            <mxPoint x="1289.805" y="-408.34349999999995" as="sourcePoint" />
            <mxPoint x="1379" y="-452" as="targetPoint" />
          </mxGeometry>
        </mxCell>
        <mxCell id="6YiGRtF6zz8yhD4ga1EQ-279" value="" style="endArrow=none;dashed=1;html=1;rounded=1;labelBackgroundColor=none;sketch=0;fontSize=9;fontColor=#FF0000;strokeColor=#FF0000;strokeWidth=1;curved=0;entryX=0.973;entryY=0.6;entryDx=0;entryDy=0;exitX=0;exitY=0.5;exitDx=0;exitDy=0;entryPerimeter=0;" parent="1" source="6YiGRtF6zz8yhD4ga1EQ-176" edge="1">
          <mxGeometry width="50" height="50" relative="1" as="geometry">
            <mxPoint x="1299.805" y="-398.34350000000006" as="sourcePoint" />
            <mxPoint x="1302.6490000000001" y="-408.30000000000007" as="targetPoint" />
          </mxGeometry>
        </mxCell>
        <mxCell id="6YiGRtF6zz8yhD4ga1EQ-280" value="？" style="text;html=1;align=center;verticalAlign=middle;resizable=0;points=[];autosize=1;strokeColor=none;fillColor=none;fontSize=9;fontColor=#FF0000;" parent="1" vertex="1">
          <mxGeometry x="1287" y="-416" width="22" height="15" as="geometry" />
        </mxCell>
        <mxCell id="6YiGRtF6zz8yhD4ga1EQ-284" value="" style="shape=flexArrow;endArrow=classic;html=1;rounded=1;labelBackgroundColor=none;sketch=0;fontSize=9;fontColor=#FF0000;strokeColor=none;strokeWidth=1;curved=0;fillColor=#858585;gradientColor=#ffffff;endWidth=16.380952380952383;endSize=5.051428571428572;width=13.142857142857142;gradientDirection=north;" parent="1" edge="1">
          <mxGeometry width="50" height="50" relative="1" as="geometry">
            <mxPoint x="807" y="-416.5000000000001" as="sourcePoint" />
            <mxPoint x="862" y="-417.4999999999999" as="targetPoint" />
          </mxGeometry>
        </mxCell>
        <mxCell id="6YiGRtF6zz8yhD4ga1EQ-286" value="&lt;b&gt;&lt;font style=&quot;font-size: 16px&quot;&gt;&lt;font color=&quot;#000000&quot;&gt;1-hop&amp;nbsp;&lt;/font&gt;&lt;span style=&quot;color: rgb(0 , 0 , 0)&quot;&gt;Neighborhood Subgraph of &lt;br&gt;Node-Pair Extraction&lt;/span&gt;&lt;/font&gt;&lt;/b&gt;&lt;font color=&quot;#000000&quot;&gt;&lt;br&gt;&lt;/font&gt;" style="text;html=1;align=center;verticalAlign=middle;resizable=0;points=[];autosize=1;strokeColor=none;fillColor=none;fontSize=9;fontColor=#FF0000;" parent="1" vertex="1">
          <mxGeometry x="1170" y="-328" width="266" height="28" as="geometry" />
        </mxCell>
        <mxCell id="6YiGRtF6zz8yhD4ga1EQ-287" value="" style="shape=flexArrow;endArrow=classic;html=1;rounded=1;labelBackgroundColor=none;sketch=0;fontSize=9;fontColor=#FF0000;strokeColor=none;strokeWidth=1;curved=0;fillColor=#858585;gradientColor=#ffffff;endWidth=16.380952380952383;endSize=5.576470588235295;width=10.588235294117647;gradientDirection=north;" parent="1" edge="1">
          <mxGeometry width="50" height="50" relative="1" as="geometry">
            <mxPoint x="1170" y="-408" as="sourcePoint" />
            <mxPoint x="1225" y="-409" as="targetPoint" />
          </mxGeometry>
        </mxCell>
        <mxCell id="6YiGRtF6zz8yhD4ga1EQ-288" value="" style="shape=flexArrow;endArrow=classic;html=1;rounded=1;labelBackgroundColor=none;sketch=0;fontSize=9;fontColor=#FF0000;strokeColor=none;strokeWidth=1;curved=0;fillColor=#858585;gradientColor=#ffffff;endWidth=16.380952380952383;endSize=5.576470588235295;width=10.588235294117647;gradientDirection=north;" parent="1" edge="1">
          <mxGeometry width="50" height="50" relative="1" as="geometry">
            <mxPoint x="1375" y="-403" as="sourcePoint" />
            <mxPoint x="1430" y="-404" as="targetPoint" />
          </mxGeometry>
        </mxCell>
        <mxCell id="6YiGRtF6zz8yhD4ga1EQ-289" value="&lt;b&gt;&lt;font style=&quot;font-size: 14px&quot;&gt;Localized Node Labeling Strategy&lt;/font&gt;&lt;/b&gt;" style="rounded=0;whiteSpace=wrap;html=1;shadow=0;dashed=1;sketch=0;fontSize=9;strokeColor=#6c8ebf;strokeWidth=1;fillColor=#dae8fc;gradientColor=#7ea6e0;" parent="1" vertex="1">
          <mxGeometry x="1439" y="-435" width="147" height="58" as="geometry" />
        </mxCell>
        <mxCell id="6YiGRtF6zz8yhD4ga1EQ-290" value="" style="shape=flexArrow;endArrow=classic;html=1;rounded=1;labelBackgroundColor=none;sketch=0;fontSize=9;fontColor=#FF0000;strokeColor=none;strokeWidth=1;curved=0;fillColor=#858585;gradientColor=#ffffff;endWidth=16.380952380952383;endSize=5.576470588235295;width=10.588235294117647;gradientDirection=north;" parent="1" edge="1">
          <mxGeometry width="50" height="50" relative="1" as="geometry">
            <mxPoint x="1504" y="-329" as="sourcePoint" />
            <mxPoint x="1246" y="-238" as="targetPoint" />
          </mxGeometry>
        </mxCell>
        <mxCell id="6YiGRtF6zz8yhD4ga1EQ-293" value="" style="rounded=0;whiteSpace=wrap;html=1;shadow=0;dashed=1;sketch=0;fontSize=9;strokeColor=#6c8ebf;strokeWidth=1;fillColor=none;gradientColor=#7ea6e0;" parent="1" vertex="1">
          <mxGeometry x="593" y="-222.5" width="951" height="228.5" as="geometry" />
        </mxCell>
        <mxCell id="ScYJKdfdVPh8Kv62-0MV-1" value="&lt;b&gt;&lt;font style=&quot;font-size: 16px&quot;&gt;Graph Conv&lt;/font&gt;&lt;/b&gt;" style="rounded=1;whiteSpace=wrap;html=1;shadow=0;sketch=0;fontSize=9;strokeColor=#b85450;strokeWidth=1;fillColor=#f8cecc;gradientColor=#ea6b66;" parent="1" vertex="1">
          <mxGeometry x="994" y="-201" width="111" height="50" as="geometry" />
        </mxCell>
        <mxCell id="ScYJKdfdVPh8Kv62-0MV-5" value="&lt;b&gt;&lt;font style=&quot;font-size: 14px&quot;&gt;3 message &lt;br&gt;passing layers&lt;/font&gt;&lt;/b&gt;" style="text;html=1;align=center;verticalAlign=middle;resizable=0;points=[];autosize=1;strokeColor=none;fillColor=none;fontSize=9;fontColor=#000000;" parent="1" vertex="1">
          <mxGeometry x="631" y="-183.5" width="107" height="27" as="geometry" />
        </mxCell>
        <mxCell id="ScYJKdfdVPh8Kv62-0MV-6" value="&lt;font style=&quot;font-size: 14px&quot;&gt;&lt;b&gt;Traing Loss:&amp;nbsp;&lt;/b&gt;&lt;br&gt;&lt;b&gt;BCEloss Function&lt;/b&gt;&lt;/font&gt;" style="rounded=0;whiteSpace=wrap;html=1;shadow=0;dashed=1;sketch=0;fontSize=9;strokeColor=#6c8ebf;strokeWidth=1;fillColor=#dae8fc;gradientColor=#7ea6e0;" parent="1" vertex="1">
          <mxGeometry x="624" y="-116" width="137" height="63" as="geometry" />
        </mxCell>
        <mxCell id="ScYJKdfdVPh8Kv62-0MV-7" value="&lt;b style=&quot;color: rgb(255 , 0 , 0)&quot;&gt;&lt;span style=&quot;color: rgb(0 , 0 , 0)&quot;&gt;&lt;font style=&quot;font-size: 16px&quot;&gt;Neighborhood Subgraph&lt;/font&gt;&lt;/span&gt;&lt;/b&gt;" style="rounded=1;whiteSpace=wrap;html=1;shadow=0;sketch=0;fontSize=9;strokeColor=#82b366;strokeWidth=1;fillColor=#d5e8d4;gradientColor=#97d077;" parent="1" vertex="1">
          <mxGeometry x="804" y="-198" width="121" height="53" as="geometry" />
        </mxCell>
        <mxCell id="ScYJKdfdVPh8Kv62-0MV-8" value="" style="shape=flexArrow;endArrow=classic;html=1;rounded=1;labelBackgroundColor=none;sketch=0;fontSize=9;fontColor=#000000;strokeColor=#FFFFFF;strokeWidth=1;fillColor=#858585;gradientColor=#ffffff;gradientDirection=north;curved=0;width=4.166666666666667;endSize=6.633333333333334;endWidth=4.861111111111111;" parent="1" edge="1">
          <mxGeometry width="50" height="50" relative="1" as="geometry">
            <mxPoint x="928" y="-171.08999999999997" as="sourcePoint" />
            <mxPoint x="975" y="-171.08999999999997" as="targetPoint" />
          </mxGeometry>
        </mxCell>
        <mxCell id="ScYJKdfdVPh8Kv62-0MV-9" value="" style="shape=flexArrow;endArrow=classic;html=1;rounded=1;labelBackgroundColor=none;sketch=0;fontSize=9;fontColor=#000000;strokeColor=#FFFFFF;strokeWidth=1;fillColor=#858585;gradientColor=#ffffff;gradientDirection=north;curved=0;width=4.166666666666667;endSize=6.633333333333334;endWidth=4.861111111111111;" parent="1" edge="1">
          <mxGeometry width="50" height="50" relative="1" as="geometry">
            <mxPoint x="1124" y="-174.84000000000006" as="sourcePoint" />
            <mxPoint x="1171" y="-174.84000000000006" as="targetPoint" />
          </mxGeometry>
        </mxCell>
        <mxCell id="ScYJKdfdVPh8Kv62-0MV-10" value="" style="shape=flexArrow;endArrow=classic;html=1;rounded=1;labelBackgroundColor=none;sketch=0;fontSize=9;fontColor=#000000;strokeColor=#FFFFFF;strokeWidth=1;fillColor=#858585;gradientColor=#ffffff;gradientDirection=north;curved=0;width=4.166666666666667;endSize=6.633333333333334;endWidth=4.861111111111111;" parent="1" edge="1">
          <mxGeometry width="50" height="50" relative="1" as="geometry">
            <mxPoint x="1306" y="-174.84000000000006" as="sourcePoint" />
            <mxPoint x="1353" y="-174.84000000000006" as="targetPoint" />
          </mxGeometry>
        </mxCell>
        <mxCell id="ScYJKdfdVPh8Kv62-0MV-11" value="" style="endArrow=classic;html=1;rounded=1;labelBackgroundColor=none;sketch=0;fontSize=9;fontColor=#000000;strokeColor=#FFFFFF;strokeWidth=1;fillColor=#858585;gradientColor=#ffffff;gradientDirection=north;curved=0;startArrow=none;" parent="1" source="ScYJKdfdVPh8Kv62-0MV-22" edge="1">
          <mxGeometry width="50" height="50" relative="1" as="geometry">
            <mxPoint x="1211" y="-59" as="sourcePoint" />
            <mxPoint x="1261" y="-109" as="targetPoint" />
          </mxGeometry>
        </mxCell>
        <mxCell id="ScYJKdfdVPh8Kv62-0MV-22" value="&lt;b&gt;&lt;font style=&quot;font-size: 16px&quot;&gt;Layer aggregation：&lt;br&gt;&amp;nbsp;Sum pooling / Center pooling&lt;/font&gt;&lt;/b&gt;" style="rounded=1;whiteSpace=wrap;html=1;shadow=0;sketch=0;fontSize=9;strokeColor=#d6b656;strokeWidth=1;fillColor=#fff2cc;gradientColor=#ffd966;" parent="1" vertex="1">
          <mxGeometry x="1071.5" y="-121.5" width="324" height="49" as="geometry" />
        </mxCell>
        <mxCell id="ScYJKdfdVPh8Kv62-0MV-30" value="&lt;b&gt;&lt;font style=&quot;font-size: 16px&quot;&gt;Dense&lt;/font&gt;&lt;/b&gt;" style="rounded=1;whiteSpace=wrap;html=1;shadow=0;sketch=0;fontSize=9;strokeColor=#d79b00;strokeWidth=1;fillColor=#ffcd28;gradientColor=#ffa500;" parent="1" vertex="1">
          <mxGeometry x="1195.5" y="-47" width="87" height="36" as="geometry" />
        </mxCell>
        <mxCell id="ScYJKdfdVPh8Kv62-0MV-31" value="" style="shape=flexArrow;endArrow=classic;html=1;rounded=1;labelBackgroundColor=none;sketch=0;fontSize=9;fontColor=#000000;strokeColor=#FFFFFF;strokeWidth=1;fillColor=#858585;gradientColor=#ffffff;gradientDirection=north;curved=0;width=2.380952380952381;endSize=1.3792307692307693;endWidth=3.2014652014652016;" parent="1" edge="1">
          <mxGeometry width="50" height="50" relative="1" as="geometry">
            <mxPoint x="1058.5" y="-146.5" as="sourcePoint" />
            <mxPoint x="1234" y="-126" as="targetPoint" />
          </mxGeometry>
        </mxCell>
        <mxCell id="ScYJKdfdVPh8Kv62-0MV-32" value="" style="shape=flexArrow;endArrow=classic;html=1;rounded=1;labelBackgroundColor=none;sketch=0;fontSize=9;fontColor=#000000;strokeColor=#FFFFFF;strokeWidth=1;fillColor=#858585;gradientColor=#ffffff;gradientDirection=north;curved=0;width=2.558139534883721;endSize=1.352325581395349;endWidth=4.860670194003528;" parent="1" edge="1">
          <mxGeometry width="50" height="50" relative="1" as="geometry">
            <mxPoint x="1239" y="-149" as="sourcePoint" />
            <mxPoint x="1239" y="-124" as="targetPoint" />
            <Array as="points">
              <mxPoint x="1239" y="-131" />
            </Array>
          </mxGeometry>
        </mxCell>
        <mxCell id="ScYJKdfdVPh8Kv62-0MV-41" value="" style="shape=flexArrow;endArrow=classic;html=1;rounded=1;labelBackgroundColor=none;sketch=0;fontSize=9;fontColor=#000000;strokeColor=#FFFFFF;strokeWidth=1;fillColor=#858585;gradientColor=#ffffff;gradientDirection=north;curved=0;width=2.380952380952381;endSize=1.3792307692307693;endWidth=3.2014652014652016;" parent="1" edge="1">
          <mxGeometry width="50" height="50" relative="1" as="geometry">
            <mxPoint x="1419" y="-148" as="sourcePoint" />
            <mxPoint x="1244" y="-126" as="targetPoint" />
          </mxGeometry>
        </mxCell>
        <mxCell id="ScYJKdfdVPh8Kv62-0MV-42" value="" style="shape=flexArrow;endArrow=classic;html=1;rounded=1;labelBackgroundColor=none;sketch=0;fontSize=9;fontColor=#000000;strokeColor=#FFFFFF;strokeWidth=1;fillColor=#858585;gradientColor=#ffffff;gradientDirection=north;curved=0;width=2.558139534883721;endSize=1.352325581395349;endWidth=4.860670194003528;" parent="1" edge="1">
          <mxGeometry width="50" height="50" relative="1" as="geometry">
            <mxPoint x="1238.93" y="-72" as="sourcePoint" />
            <mxPoint x="1238.93" y="-47" as="targetPoint" />
            <Array as="points">
              <mxPoint x="1238.93" y="-54" />
            </Array>
          </mxGeometry>
        </mxCell>
        <mxCell id="ScYJKdfdVPh8Kv62-0MV-44" value="&lt;b style=&quot;color: rgb(255 , 0 , 0)&quot;&gt;&lt;span style=&quot;color: rgb(0 , 0 , 0)&quot;&gt;&lt;font style=&quot;font-size: 16px&quot;&gt;GNN&lt;/font&gt;&lt;/span&gt;&lt;/b&gt;" style="rounded=0;whiteSpace=wrap;html=1;shadow=0;sketch=0;fontSize=9;strokeColor=#666666;strokeWidth=1;fillColor=#f5f5f5;gradientColor=#b3b3b3;" parent="1" vertex="1">
          <mxGeometry x="1434" y="-58" width="102" height="47" as="geometry" />
        </mxCell>
        <mxCell id="ScYJKdfdVPh8Kv62-0MV-45" value="&lt;b&gt;&lt;font style=&quot;font-size: 16px&quot;&gt;Aggregate drug and &lt;br&gt;disease outputs from each &lt;br&gt;message-passing layer&lt;/font&gt;&lt;/b&gt;" style="text;html=1;align=center;verticalAlign=middle;resizable=0;points=[];autosize=1;strokeColor=none;fillColor=none;fontSize=9;fontColor=#000000;" parent="1" vertex="1">
          <mxGeometry x="789" y="-105" width="213" height="41" as="geometry" />
        </mxCell>
        <mxCell id="ScYJKdfdVPh8Kv62-0MV-46" value="" style="shape=flexArrow;endArrow=classic;html=1;rounded=1;labelBackgroundColor=none;sketch=0;fontSize=9;fontColor=#000000;strokeColor=#FFFFFF;strokeWidth=1;fillColor=#858585;gradientColor=#ffffff;gradientDirection=north;curved=0;width=2.558139534883721;endSize=1.352325581395349;endWidth=4.860670194003528;" parent="1" edge="1">
          <mxGeometry width="50" height="50" relative="1" as="geometry">
            <mxPoint x="1239" y="-9" as="sourcePoint" />
            <mxPoint x="1238.8" y="23" as="targetPoint" />
            <Array as="points">
              <mxPoint x="1238.8" y="16" />
            </Array>
          </mxGeometry>
        </mxCell>
        <mxCell id="ScYJKdfdVPh8Kv62-0MV-47" value="&lt;font color=&quot;#000000&quot; style=&quot;font-size: 16px&quot;&gt;&lt;b&gt;Prediction&lt;/b&gt;&lt;/font&gt;" style="rounded=1;whiteSpace=wrap;html=1;shadow=0;sketch=0;fontSize=9;strokeColor=#655F94;strokeWidth=1;fillColor=#9292F5;" parent="1" vertex="1">
          <mxGeometry x="1190" y="25" width="104.5" height="40" as="geometry" />
        </mxCell>
        <mxCell id="ScYJKdfdVPh8Kv62-0MV-48" value="&lt;b&gt;&lt;font style=&quot;font-size: 16px&quot;&gt;Graph Conv&lt;/font&gt;&lt;/b&gt;" style="rounded=1;whiteSpace=wrap;html=1;shadow=0;sketch=0;fontSize=9;strokeColor=#b85450;strokeWidth=1;fillColor=#f8cecc;gradientColor=#ea6b66;" parent="1" vertex="1">
          <mxGeometry x="1176" y="-201" width="111" height="50" as="geometry" />
        </mxCell>
        <mxCell id="ScYJKdfdVPh8Kv62-0MV-49" value="&lt;b&gt;&lt;font style=&quot;font-size: 16px&quot;&gt;Graph Conv&lt;/font&gt;&lt;/b&gt;" style="rounded=1;whiteSpace=wrap;html=1;shadow=0;sketch=0;fontSize=9;strokeColor=#b85450;strokeWidth=1;fillColor=#f8cecc;gradientColor=#ea6b66;" parent="1" vertex="1">
          <mxGeometry x="1358" y="-201" width="111" height="50" as="geometry" />
        </mxCell>
        <mxCell id="6YiGRtF6zz8yhD4ga1EQ-163" value="未命名图层" style="" parent="0" />
        <mxCell id="6YiGRtF6zz8yhD4ga1EQ-164" value="" style="rounded=1;whiteSpace=wrap;html=1;shadow=0;dashed=1;sketch=0;fontSize=11;strokeWidth=1;gradientColor=none;fillColor=none;strokeColor=#FF0000;" parent="6YiGRtF6zz8yhD4ga1EQ-163" vertex="1">
          <mxGeometry x="950" y="-502" width="207" height="114" as="geometry" />
        </mxCell>
      </root>
    </mxGraphModel>
  </diagram>
  <diagram id="VtzcvoEuWFUkIUeKse1d" name="第 2 页">
    <mxGraphModel dx="980" dy="1433" grid="0" gridSize="10" guides="1" tooltips="1" connect="1" arrows="1" fold="1" page="0" pageScale="1" pageWidth="1169" pageHeight="827" math="0" shadow="0">
      <root>
        <mxCell id="0" />
        <mxCell id="1" parent="0" />
        <mxCell id="23pJZIWyzSni5zogjpeQ-1" value="" style="rounded=1;whiteSpace=wrap;html=1;glass=1;fillColor=none;dashed=1;strokeWidth=1;shadow=0;arcSize=13;" vertex="1" parent="1">
          <mxGeometry x="621" y="-544" width="179" height="281" as="geometry" />
        </mxCell>
        <mxCell id="23pJZIWyzSni5zogjpeQ-2" value="" style="ellipse;whiteSpace=wrap;html=1;aspect=fixed;rounded=0;sketch=0;strokeWidth=1;fillColor=#dae8fc;strokeColor=#6c8ebf;gradientColor=#7ea6e0;" vertex="1" parent="1">
          <mxGeometry x="662" y="-533" width="25" height="25" as="geometry" />
        </mxCell>
        <mxCell id="23pJZIWyzSni5zogjpeQ-3" value="" style="ellipse;whiteSpace=wrap;html=1;aspect=fixed;rounded=0;sketch=0;strokeWidth=1;fillColor=#dae8fc;strokeColor=#6c8ebf;gradientColor=#7ea6e0;" vertex="1" parent="1">
          <mxGeometry x="662" y="-497" width="25" height="25" as="geometry" />
        </mxCell>
        <mxCell id="23pJZIWyzSni5zogjpeQ-4" value="" style="ellipse;whiteSpace=wrap;html=1;aspect=fixed;rounded=0;sketch=0;strokeWidth=1;fillColor=#dae8fc;strokeColor=#6c8ebf;gradientColor=#7ea6e0;" vertex="1" parent="1">
          <mxGeometry x="662" y="-461" width="25" height="25" as="geometry" />
        </mxCell>
        <mxCell id="23pJZIWyzSni5zogjpeQ-5" value="" style="ellipse;whiteSpace=wrap;html=1;aspect=fixed;rounded=0;sketch=0;strokeWidth=1;fillColor=#dae8fc;strokeColor=#6c8ebf;gradientColor=#7ea6e0;" vertex="1" parent="1">
          <mxGeometry x="662" y="-425" width="25" height="25" as="geometry" />
        </mxCell>
        <mxCell id="23pJZIWyzSni5zogjpeQ-6" value="" style="ellipse;whiteSpace=wrap;html=1;aspect=fixed;rounded=0;sketch=0;strokeWidth=1;fillColor=#dae8fc;strokeColor=#6c8ebf;gradientColor=#7ea6e0;" vertex="1" parent="1">
          <mxGeometry x="662" y="-389" width="25" height="25" as="geometry" />
        </mxCell>
        <mxCell id="23pJZIWyzSni5zogjpeQ-7" value="" style="ellipse;whiteSpace=wrap;html=1;aspect=fixed;rounded=0;sketch=0;strokeWidth=1;fillColor=#fff2cc;strokeColor=#d6b656;gradientColor=#ffd966;" vertex="1" parent="1">
          <mxGeometry x="739" y="-533" width="25" height="25" as="geometry" />
        </mxCell>
        <mxCell id="23pJZIWyzSni5zogjpeQ-8" value="" style="ellipse;whiteSpace=wrap;html=1;aspect=fixed;rounded=0;sketch=0;strokeWidth=1;fillColor=#fff2cc;strokeColor=#d6b656;gradientColor=#ffd966;" vertex="1" parent="1">
          <mxGeometry x="739" y="-497" width="25" height="25" as="geometry" />
        </mxCell>
        <mxCell id="23pJZIWyzSni5zogjpeQ-9" value="" style="ellipse;whiteSpace=wrap;html=1;aspect=fixed;rounded=0;sketch=0;strokeWidth=1;fillColor=#fff2cc;strokeColor=#d6b656;gradientColor=#ffd966;" vertex="1" parent="1">
          <mxGeometry x="739" y="-461" width="25" height="25" as="geometry" />
        </mxCell>
        <mxCell id="23pJZIWyzSni5zogjpeQ-10" value="" style="ellipse;whiteSpace=wrap;html=1;aspect=fixed;rounded=0;sketch=0;strokeWidth=1;fillColor=#fff2cc;strokeColor=#d6b656;gradientColor=#ffd966;" vertex="1" parent="1">
          <mxGeometry x="739" y="-425" width="25" height="25" as="geometry" />
        </mxCell>
        <mxCell id="23pJZIWyzSni5zogjpeQ-11" value="" style="ellipse;whiteSpace=wrap;html=1;aspect=fixed;rounded=0;sketch=0;strokeWidth=1;fillColor=#fff2cc;strokeColor=#d6b656;gradientColor=#ffd966;" vertex="1" parent="1">
          <mxGeometry x="739" y="-389" width="25" height="25" as="geometry" />
        </mxCell>
        <mxCell id="23pJZIWyzSni5zogjpeQ-12" value="" style="endArrow=none;html=1;rounded=1;sketch=0;curved=0;entryX=0;entryY=0.5;entryDx=0;entryDy=0;exitX=1;exitY=0.5;exitDx=0;exitDy=0;" edge="1" parent="1" source="23pJZIWyzSni5zogjpeQ-2" target="23pJZIWyzSni5zogjpeQ-7">
          <mxGeometry width="50" height="50" relative="1" as="geometry">
            <mxPoint x="694" y="-479" as="sourcePoint" />
            <mxPoint x="744" y="-529" as="targetPoint" />
          </mxGeometry>
        </mxCell>
        <mxCell id="23pJZIWyzSni5zogjpeQ-13" value="" style="endArrow=none;html=1;rounded=1;sketch=0;curved=0;entryX=1;entryY=0.5;entryDx=0;entryDy=0;exitX=0;exitY=0.5;exitDx=0;exitDy=0;" edge="1" parent="1" source="23pJZIWyzSni5zogjpeQ-8" target="23pJZIWyzSni5zogjpeQ-2">
          <mxGeometry width="50" height="50" relative="1" as="geometry">
            <mxPoint x="778" y="-377" as="sourcePoint" />
            <mxPoint x="828" y="-427" as="targetPoint" />
          </mxGeometry>
        </mxCell>
        <mxCell id="23pJZIWyzSni5zogjpeQ-14" value="" style="endArrow=none;html=1;rounded=1;sketch=0;curved=0;exitX=0;exitY=0.5;exitDx=0;exitDy=0;entryX=1;entryY=0.5;entryDx=0;entryDy=0;" edge="1" parent="1" source="23pJZIWyzSni5zogjpeQ-8" target="23pJZIWyzSni5zogjpeQ-3">
          <mxGeometry width="50" height="50" relative="1" as="geometry">
            <mxPoint x="777.000000000003" y="-474.5" as="sourcePoint" />
            <mxPoint x="697" y="-510.5" as="targetPoint" />
          </mxGeometry>
        </mxCell>
        <mxCell id="23pJZIWyzSni5zogjpeQ-15" value="" style="endArrow=none;html=1;rounded=1;sketch=0;curved=0;exitX=0;exitY=0.5;exitDx=0;exitDy=0;entryX=1;entryY=0.5;entryDx=0;entryDy=0;" edge="1" parent="1">
          <mxGeometry width="50" height="50" relative="1" as="geometry">
            <mxPoint x="739" y="-484.5" as="sourcePoint" />
            <mxPoint x="687" y="-448.5" as="targetPoint" />
          </mxGeometry>
        </mxCell>
        <mxCell id="23pJZIWyzSni5zogjpeQ-16" value="" style="endArrow=none;html=1;rounded=1;sketch=0;curved=0;exitX=0;exitY=0.5;exitDx=0;exitDy=0;entryX=1;entryY=0.5;entryDx=0;entryDy=0;dashed=1;strokeColor=#FF0000;" edge="1" parent="1" source="23pJZIWyzSni5zogjpeQ-10" target="23pJZIWyzSni5zogjpeQ-5">
          <mxGeometry width="50" height="50" relative="1" as="geometry">
            <mxPoint x="749" y="-474.5" as="sourcePoint" />
            <mxPoint x="697" y="-438.4999999999999" as="targetPoint" />
          </mxGeometry>
        </mxCell>
        <mxCell id="23pJZIWyzSni5zogjpeQ-17" value="" style="endArrow=none;html=1;rounded=1;sketch=0;curved=0;exitX=0;exitY=0.5;exitDx=0;exitDy=0;entryX=1;entryY=0.5;entryDx=0;entryDy=0;" edge="1" parent="1" source="23pJZIWyzSni5zogjpeQ-10" target="23pJZIWyzSni5zogjpeQ-6">
          <mxGeometry width="50" height="50" relative="1" as="geometry">
            <mxPoint x="749" y="-402.5" as="sourcePoint" />
            <mxPoint x="697" y="-402.5" as="targetPoint" />
          </mxGeometry>
        </mxCell>
        <mxCell id="23pJZIWyzSni5zogjpeQ-18" value="" style="endArrow=none;html=1;rounded=1;sketch=0;curved=0;exitX=0;exitY=0.5;exitDx=0;exitDy=0;entryX=1;entryY=0.5;entryDx=0;entryDy=0;" edge="1" parent="1" source="23pJZIWyzSni5zogjpeQ-9" target="23pJZIWyzSni5zogjpeQ-5">
          <mxGeometry width="50" height="50" relative="1" as="geometry">
            <mxPoint x="759" y="-392.5" as="sourcePoint" />
            <mxPoint x="707" y="-392.5" as="targetPoint" />
          </mxGeometry>
        </mxCell>
        <mxCell id="23pJZIWyzSni5zogjpeQ-19" value="" style="endArrow=none;html=1;rounded=1;sketch=0;curved=0;exitX=0;exitY=0.5;exitDx=0;exitDy=0;entryX=1;entryY=0.5;entryDx=0;entryDy=0;" edge="1" parent="1" source="23pJZIWyzSni5zogjpeQ-11" target="23pJZIWyzSni5zogjpeQ-5">
          <mxGeometry width="50" height="50" relative="1" as="geometry">
            <mxPoint x="769" y="-382.5" as="sourcePoint" />
            <mxPoint x="717" y="-382.5" as="targetPoint" />
          </mxGeometry>
        </mxCell>
        <mxCell id="23pJZIWyzSni5zogjpeQ-20" value="" style="endArrow=none;html=1;rounded=1;sketch=0;curved=0;exitX=0;exitY=0.5;exitDx=0;exitDy=0;entryX=1;entryY=0.5;entryDx=0;entryDy=0;" edge="1" parent="1" source="23pJZIWyzSni5zogjpeQ-11" target="23pJZIWyzSni5zogjpeQ-3">
          <mxGeometry width="50" height="50" relative="1" as="geometry">
            <mxPoint x="779" y="-372.5" as="sourcePoint" />
            <mxPoint x="727" y="-372" as="targetPoint" />
          </mxGeometry>
        </mxCell>
        <mxCell id="23pJZIWyzSni5zogjpeQ-21" value="" style="endArrow=none;html=1;rounded=1;sketch=0;curved=0;exitX=0;exitY=0.5;exitDx=0;exitDy=0;entryX=1;entryY=0.5;entryDx=0;entryDy=0;strokeColor=#FF0000;dashed=1;" edge="1" parent="1">
          <mxGeometry width="50" height="50" relative="1" as="geometry">
            <mxPoint x="739" y="-376.78" as="sourcePoint" />
            <mxPoint x="687" y="-376.78" as="targetPoint" />
          </mxGeometry>
        </mxCell>
        <mxCell id="23pJZIWyzSni5zogjpeQ-22" value="" style="endArrow=none;html=1;rounded=1;sketch=0;curved=0;exitX=0;exitY=0.5;exitDx=0;exitDy=0;entryX=1;entryY=0.5;entryDx=0;entryDy=0;strokeColor=#FF0000;dashed=1;" edge="1" parent="1" source="23pJZIWyzSni5zogjpeQ-9" target="23pJZIWyzSni5zogjpeQ-2">
          <mxGeometry width="50" height="50" relative="1" as="geometry">
            <mxPoint x="749" y="-366.78" as="sourcePoint" />
            <mxPoint x="697" y="-366.78" as="targetPoint" />
          </mxGeometry>
        </mxCell>
        <mxCell id="23pJZIWyzSni5zogjpeQ-23" value="" style="endArrow=none;html=1;rounded=1;sketch=0;curved=0;exitX=1;exitY=0.5;exitDx=0;exitDy=0;strokeColor=#FF0000;dashed=1;" edge="1" parent="1" source="23pJZIWyzSni5zogjpeQ-4">
          <mxGeometry width="50" height="50" relative="1" as="geometry">
            <mxPoint x="759" y="-356.78" as="sourcePoint" />
            <mxPoint x="737" y="-520" as="targetPoint" />
          </mxGeometry>
        </mxCell>
        <mxCell id="23pJZIWyzSni5zogjpeQ-24" value="" style="endArrow=none;html=1;rounded=1;sketch=0;curved=0;exitX=0;exitY=0.5;exitDx=0;exitDy=0;entryX=1;entryY=0.5;entryDx=0;entryDy=0;strokeColor=#FF0000;dashed=1;" edge="1" parent="1" source="23pJZIWyzSni5zogjpeQ-10" target="23pJZIWyzSni5zogjpeQ-3">
          <mxGeometry width="50" height="50" relative="1" as="geometry">
            <mxPoint x="769" y="-346.78" as="sourcePoint" />
            <mxPoint x="717" y="-346.78" as="targetPoint" />
          </mxGeometry>
        </mxCell>
        <mxCell id="23pJZIWyzSni5zogjpeQ-25" value="" style="endArrow=none;html=1;rounded=1;sketch=0;curved=0;exitX=0;exitY=0.5;exitDx=0;exitDy=0;entryX=1;entryY=0.5;entryDx=0;entryDy=0;strokeColor=#000000;" edge="1" parent="1">
          <mxGeometry width="50" height="50" relative="1" as="geometry">
            <mxPoint x="739" y="-448.78" as="sourcePoint" />
            <mxPoint x="687" y="-448.78" as="targetPoint" />
          </mxGeometry>
        </mxCell>
        <mxCell id="23pJZIWyzSni5zogjpeQ-26" value="" style="ellipse;whiteSpace=wrap;html=1;aspect=fixed;rounded=0;sketch=0;strokeWidth=1;fillColor=#dae8fc;strokeColor=#6c8ebf;gradientColor=#7ea6e0;" vertex="1" parent="1">
          <mxGeometry x="635" y="-344" width="18" height="18" as="geometry" />
        </mxCell>
        <mxCell id="23pJZIWyzSni5zogjpeQ-27" value="&lt;p&gt;&lt;font style=&quot;font-size: 6px&quot;&gt;&lt;b&gt;Undiscovered links&lt;/b&gt;&lt;/font&gt;&lt;/p&gt;" style="text;html=1;align=center;verticalAlign=middle;resizable=0;points=[];autosize=1;strokeColor=none;fillColor=none;strokeWidth=1;" vertex="1" parent="1">
          <mxGeometry x="676.75" y="-305" width="120" height="42" as="geometry" />
        </mxCell>
        <mxCell id="23pJZIWyzSni5zogjpeQ-28" value="&lt;b&gt;Diseases&lt;/b&gt;" style="text;html=1;align=center;verticalAlign=middle;resizable=0;points=[];autosize=1;strokeColor=none;fillColor=none;" vertex="1" parent="1">
          <mxGeometry x="714" y="-344" width="62" height="18" as="geometry" />
        </mxCell>
        <mxCell id="23pJZIWyzSni5zogjpeQ-29" value="&lt;p&gt;&lt;font style=&quot;font-size: 5px&quot;&gt;&lt;b&gt;Drugs&lt;/b&gt;&lt;/font&gt;&lt;/p&gt;" style="text;html=1;strokeColor=none;fillColor=none;align=center;verticalAlign=middle;whiteSpace=wrap;rounded=0;sketch=0;fontSize=6;" vertex="1" parent="1">
          <mxGeometry x="658" y="-345" width="36" height="19" as="geometry" />
        </mxCell>
        <mxCell id="23pJZIWyzSni5zogjpeQ-30" value="" style="ellipse;whiteSpace=wrap;html=1;aspect=fixed;rounded=0;sketch=0;strokeWidth=1;fillColor=#fff2cc;strokeColor=#d6b656;gradientColor=#ffd966;" vertex="1" parent="1">
          <mxGeometry x="699" y="-344" width="18" height="18" as="geometry" />
        </mxCell>
        <mxCell id="23pJZIWyzSni5zogjpeQ-31" value="" style="endArrow=none;html=1;rounded=1;sketch=0;fontSize=6;strokeColor=#000000;curved=0;strokeWidth=1;labelBackgroundColor=none;" edge="1" parent="1">
          <mxGeometry width="50" height="50" relative="1" as="geometry">
            <mxPoint x="672.5" y="-306" as="sourcePoint" />
            <mxPoint x="631.5" y="-306" as="targetPoint" />
          </mxGeometry>
        </mxCell>
        <mxCell id="23pJZIWyzSni5zogjpeQ-32" value="&lt;font style=&quot;font-size: 11px&quot;&gt;&lt;b&gt;Known association&lt;/b&gt;&lt;/font&gt;" style="text;html=1;strokeColor=none;fillColor=none;align=center;verticalAlign=middle;whiteSpace=wrap;rounded=0;sketch=0;fontSize=6;" vertex="1" parent="1">
          <mxGeometry x="675.5" y="-314" width="122.5" height="14" as="geometry" />
        </mxCell>
        <mxCell id="23pJZIWyzSni5zogjpeQ-33" value="" style="endArrow=none;html=1;rounded=1;sketch=0;curved=0;strokeColor=#FF0000;dashed=1;" edge="1" parent="1">
          <mxGeometry width="50" height="50" relative="1" as="geometry">
            <mxPoint x="672.5" y="-282.78787878787875" as="sourcePoint" />
            <mxPoint x="629.5" y="-282.78787878787875" as="targetPoint" />
          </mxGeometry>
        </mxCell>
        <mxCell id="23pJZIWyzSni5zogjpeQ-34" style="edgeStyle=orthogonalEdgeStyle;curved=0;rounded=1;sketch=0;orthogonalLoop=1;jettySize=auto;html=1;exitX=0.5;exitY=1;exitDx=0;exitDy=0;fontSize=11;strokeColor=#000000;strokeWidth=1;" edge="1" parent="1" source="23pJZIWyzSni5zogjpeQ-1" target="23pJZIWyzSni5zogjpeQ-1">
          <mxGeometry relative="1" as="geometry" />
        </mxCell>
        <mxCell id="23pJZIWyzSni5zogjpeQ-35" value="" style="shape=table;startSize=0;container=1;collapsible=0;childLayout=tableLayout;rounded=0;shadow=0;sketch=0;fontSize=11;strokeWidth=1;" vertex="1" parent="1">
          <mxGeometry x="880" y="-499" width="267" height="173.9052413137336" as="geometry" />
        </mxCell>
        <mxCell id="23pJZIWyzSni5zogjpeQ-36" value="" style="shape=tableRow;horizontal=0;startSize=0;swimlaneHead=0;swimlaneBody=0;top=0;left=0;bottom=0;right=0;collapsible=0;dropTarget=0;fillColor=none;points=[[0,0.5],[1,0.5]];portConstraint=eastwest;rounded=0;shadow=0;sketch=0;fontSize=11;strokeWidth=1;strokeColor=#000000;" vertex="1" parent="23pJZIWyzSni5zogjpeQ-35">
          <mxGeometry width="267" height="36" as="geometry" />
        </mxCell>
        <mxCell id="23pJZIWyzSni5zogjpeQ-37" value="" style="shape=partialRectangle;html=1;whiteSpace=wrap;connectable=0;overflow=hidden;fillColor=none;top=0;left=0;bottom=0;right=0;pointerEvents=1;rounded=0;shadow=0;sketch=0;fontSize=11;strokeWidth=1;" vertex="1" parent="23pJZIWyzSni5zogjpeQ-36">
          <mxGeometry width="39" height="36" as="geometry">
            <mxRectangle width="39" height="36" as="alternateBounds" />
          </mxGeometry>
        </mxCell>
        <mxCell id="23pJZIWyzSni5zogjpeQ-38" value="" style="shape=partialRectangle;html=1;whiteSpace=wrap;connectable=0;overflow=hidden;fillColor=none;top=0;left=0;bottom=0;right=0;pointerEvents=1;rounded=0;shadow=0;sketch=0;fontSize=11;strokeWidth=1;" vertex="1" parent="23pJZIWyzSni5zogjpeQ-36">
          <mxGeometry x="39" width="37" height="36" as="geometry">
            <mxRectangle width="37" height="36" as="alternateBounds" />
          </mxGeometry>
        </mxCell>
        <mxCell id="23pJZIWyzSni5zogjpeQ-39" value="1" style="shape=partialRectangle;html=1;whiteSpace=wrap;connectable=0;overflow=hidden;fillColor=#60a917;top=0;left=0;bottom=0;right=0;pointerEvents=1;rounded=0;shadow=0;sketch=0;fontSize=11;strokeWidth=1;fontColor=#ffffff;strokeColor=#2D7600;" vertex="1" parent="23pJZIWyzSni5zogjpeQ-36">
          <mxGeometry x="76" width="39" height="36" as="geometry">
            <mxRectangle width="39" height="36" as="alternateBounds" />
          </mxGeometry>
        </mxCell>
        <mxCell id="23pJZIWyzSni5zogjpeQ-40" value="1" style="shape=partialRectangle;html=1;whiteSpace=wrap;connectable=0;overflow=hidden;fillColor=#FF0000;top=0;left=0;bottom=0;right=0;pointerEvents=1;rounded=0;shadow=0;sketch=0;fontSize=11;strokeWidth=1;strokeColor=#2D7600;fontColor=#ffffff;" vertex="1" parent="23pJZIWyzSni5zogjpeQ-36">
          <mxGeometry x="115" width="41" height="36" as="geometry">
            <mxRectangle width="41" height="36" as="alternateBounds" />
          </mxGeometry>
        </mxCell>
        <mxCell id="23pJZIWyzSni5zogjpeQ-41" value="" style="shape=partialRectangle;html=1;whiteSpace=wrap;connectable=0;overflow=hidden;fillColor=none;top=0;left=0;bottom=0;right=0;pointerEvents=1;rounded=0;shadow=0;sketch=0;fontSize=11;strokeWidth=1;" vertex="1" parent="23pJZIWyzSni5zogjpeQ-36">
          <mxGeometry x="156" width="35" height="36" as="geometry">
            <mxRectangle width="35" height="36" as="alternateBounds" />
          </mxGeometry>
        </mxCell>
        <mxCell id="23pJZIWyzSni5zogjpeQ-42" value="1" style="shape=partialRectangle;html=1;whiteSpace=wrap;connectable=0;overflow=hidden;fillColor=#60a917;top=0;left=0;bottom=0;right=0;pointerEvents=1;rounded=0;shadow=0;sketch=0;fontSize=11;strokeWidth=1;strokeColor=#2D7600;fontColor=#ffffff;" vertex="1" parent="23pJZIWyzSni5zogjpeQ-36">
          <mxGeometry x="191" width="37" height="36" as="geometry">
            <mxRectangle width="37" height="36" as="alternateBounds" />
          </mxGeometry>
        </mxCell>
        <mxCell id="23pJZIWyzSni5zogjpeQ-43" value="" style="shape=partialRectangle;html=1;whiteSpace=wrap;connectable=0;overflow=hidden;top=0;left=0;bottom=0;right=0;pointerEvents=1;rounded=0;shadow=0;sketch=0;fontSize=11;strokeWidth=1;fillColor=none;" vertex="1" parent="23pJZIWyzSni5zogjpeQ-36">
          <mxGeometry x="228" width="39" height="36" as="geometry">
            <mxRectangle width="39" height="36" as="alternateBounds" />
          </mxGeometry>
        </mxCell>
        <mxCell id="23pJZIWyzSni5zogjpeQ-44" value="" style="shape=tableRow;horizontal=0;startSize=0;swimlaneHead=0;swimlaneBody=0;top=0;left=0;bottom=0;right=0;collapsible=0;dropTarget=0;fillColor=none;points=[[0,0.5],[1,0.5]];portConstraint=eastwest;rounded=0;shadow=0;sketch=0;fontSize=11;strokeWidth=1;" vertex="1" parent="23pJZIWyzSni5zogjpeQ-35">
          <mxGeometry y="36" width="267" height="31" as="geometry" />
        </mxCell>
        <mxCell id="23pJZIWyzSni5zogjpeQ-45" value="1" style="shape=partialRectangle;html=1;whiteSpace=wrap;connectable=0;overflow=hidden;fillColor=none;top=0;left=0;bottom=0;right=0;pointerEvents=1;rounded=0;shadow=0;sketch=0;fontSize=11;strokeWidth=1;" vertex="1" parent="23pJZIWyzSni5zogjpeQ-44">
          <mxGeometry width="39" height="31" as="geometry">
            <mxRectangle width="39" height="31" as="alternateBounds" />
          </mxGeometry>
        </mxCell>
        <mxCell id="23pJZIWyzSni5zogjpeQ-46" value="" style="shape=partialRectangle;html=1;whiteSpace=wrap;connectable=0;overflow=hidden;fillColor=none;top=0;left=0;bottom=0;right=0;pointerEvents=1;rounded=0;shadow=0;sketch=0;fontSize=11;strokeWidth=1;" vertex="1" parent="23pJZIWyzSni5zogjpeQ-44">
          <mxGeometry x="39" width="37" height="31" as="geometry">
            <mxRectangle width="37" height="31" as="alternateBounds" />
          </mxGeometry>
        </mxCell>
        <mxCell id="23pJZIWyzSni5zogjpeQ-47" value="1" style="shape=partialRectangle;html=1;whiteSpace=wrap;connectable=0;overflow=hidden;top=0;left=0;bottom=0;right=0;pointerEvents=1;rounded=0;shadow=0;sketch=0;fontSize=11;strokeWidth=1;fillColor=#60a917;fontColor=#ffffff;strokeColor=#2D7600;" vertex="1" parent="23pJZIWyzSni5zogjpeQ-44">
          <mxGeometry x="76" width="39" height="31" as="geometry">
            <mxRectangle width="39" height="31" as="alternateBounds" />
          </mxGeometry>
        </mxCell>
        <mxCell id="23pJZIWyzSni5zogjpeQ-48" value="1" style="shape=partialRectangle;html=1;whiteSpace=wrap;connectable=0;overflow=hidden;fillColor=#60a917;top=0;left=0;bottom=0;right=0;pointerEvents=1;rounded=0;shadow=0;sketch=0;fontSize=11;strokeWidth=1;strokeColor=#2D7600;fontColor=#ffffff;" vertex="1" parent="23pJZIWyzSni5zogjpeQ-44">
          <mxGeometry x="115" width="41" height="31" as="geometry">
            <mxRectangle width="41" height="31" as="alternateBounds" />
          </mxGeometry>
        </mxCell>
        <mxCell id="23pJZIWyzSni5zogjpeQ-49" value="" style="shape=partialRectangle;html=1;whiteSpace=wrap;connectable=0;overflow=hidden;fillColor=none;top=0;left=0;bottom=0;right=0;pointerEvents=1;rounded=0;shadow=0;sketch=0;fontSize=11;strokeWidth=1;fontColor=#ffffff;strokeColor=#2D7600;" vertex="1" parent="23pJZIWyzSni5zogjpeQ-44">
          <mxGeometry x="156" width="35" height="31" as="geometry">
            <mxRectangle width="35" height="31" as="alternateBounds" />
          </mxGeometry>
        </mxCell>
        <mxCell id="23pJZIWyzSni5zogjpeQ-50" value="" style="shape=partialRectangle;html=1;whiteSpace=wrap;connectable=0;overflow=hidden;fillColor=none;top=0;left=0;bottom=0;right=0;pointerEvents=1;rounded=0;shadow=0;sketch=0;fontSize=11;strokeWidth=1;strokeColor=#2D7600;fontColor=#ffffff;" vertex="1" parent="23pJZIWyzSni5zogjpeQ-44">
          <mxGeometry x="191" width="37" height="31" as="geometry">
            <mxRectangle width="37" height="31" as="alternateBounds" />
          </mxGeometry>
        </mxCell>
        <mxCell id="23pJZIWyzSni5zogjpeQ-51" value="" style="shape=partialRectangle;html=1;whiteSpace=wrap;connectable=0;overflow=hidden;fillColor=none;top=0;left=0;bottom=0;right=0;pointerEvents=1;rounded=0;shadow=0;sketch=0;fontSize=11;strokeWidth=1;" vertex="1" parent="23pJZIWyzSni5zogjpeQ-44">
          <mxGeometry x="228" width="39" height="31" as="geometry">
            <mxRectangle width="39" height="31" as="alternateBounds" />
          </mxGeometry>
        </mxCell>
        <mxCell id="23pJZIWyzSni5zogjpeQ-52" value="" style="shape=tableRow;horizontal=0;startSize=0;swimlaneHead=0;swimlaneBody=0;top=0;left=0;bottom=0;right=0;collapsible=0;dropTarget=0;fillColor=none;points=[[0,0.5],[1,0.5]];portConstraint=eastwest;rounded=0;shadow=0;sketch=0;fontSize=11;strokeWidth=1;" vertex="1" parent="23pJZIWyzSni5zogjpeQ-35">
          <mxGeometry y="67" width="267" height="36" as="geometry" />
        </mxCell>
        <mxCell id="23pJZIWyzSni5zogjpeQ-53" value="" style="shape=partialRectangle;html=1;whiteSpace=wrap;connectable=0;overflow=hidden;fillColor=none;top=0;left=0;bottom=0;right=0;pointerEvents=1;rounded=0;shadow=0;sketch=0;fontSize=11;strokeWidth=1;" vertex="1" parent="23pJZIWyzSni5zogjpeQ-52">
          <mxGeometry width="39" height="36" as="geometry">
            <mxRectangle width="39" height="36" as="alternateBounds" />
          </mxGeometry>
        </mxCell>
        <mxCell id="23pJZIWyzSni5zogjpeQ-54" value="" style="shape=partialRectangle;html=1;whiteSpace=wrap;connectable=0;overflow=hidden;fillColor=none;top=0;left=0;bottom=0;right=0;pointerEvents=1;rounded=0;shadow=0;sketch=0;fontSize=11;strokeWidth=1;" vertex="1" parent="23pJZIWyzSni5zogjpeQ-52">
          <mxGeometry x="39" width="37" height="36" as="geometry">
            <mxRectangle width="37" height="36" as="alternateBounds" />
          </mxGeometry>
        </mxCell>
        <mxCell id="23pJZIWyzSni5zogjpeQ-55" value="" style="shape=partialRectangle;html=1;whiteSpace=wrap;connectable=0;overflow=hidden;fillColor=none;top=0;left=0;bottom=0;right=0;pointerEvents=1;rounded=0;shadow=0;sketch=0;fontSize=11;strokeWidth=1;fontColor=#ffffff;strokeColor=#2D7600;" vertex="1" parent="23pJZIWyzSni5zogjpeQ-52">
          <mxGeometry x="76" width="39" height="36" as="geometry">
            <mxRectangle width="39" height="36" as="alternateBounds" />
          </mxGeometry>
        </mxCell>
        <mxCell id="23pJZIWyzSni5zogjpeQ-56" value="1" style="shape=partialRectangle;html=1;whiteSpace=wrap;connectable=0;overflow=hidden;fillColor=#60a917;top=0;left=0;bottom=0;right=0;pointerEvents=1;rounded=0;shadow=0;sketch=0;fontSize=11;strokeWidth=1;fontColor=#ffffff;strokeColor=#2D7600;" vertex="1" parent="23pJZIWyzSni5zogjpeQ-52">
          <mxGeometry x="115" width="41" height="36" as="geometry">
            <mxRectangle width="41" height="36" as="alternateBounds" />
          </mxGeometry>
        </mxCell>
        <mxCell id="23pJZIWyzSni5zogjpeQ-57" value="" style="shape=partialRectangle;html=1;whiteSpace=wrap;connectable=0;overflow=hidden;fillColor=none;top=0;left=0;bottom=0;right=0;pointerEvents=1;rounded=0;shadow=0;sketch=0;fontSize=11;strokeWidth=1;" vertex="1" parent="23pJZIWyzSni5zogjpeQ-52">
          <mxGeometry x="156" width="35" height="36" as="geometry">
            <mxRectangle width="35" height="36" as="alternateBounds" />
          </mxGeometry>
        </mxCell>
        <mxCell id="23pJZIWyzSni5zogjpeQ-58" value="1" style="shape=partialRectangle;html=1;whiteSpace=wrap;connectable=0;overflow=hidden;fillColor=#60a917;top=0;left=0;bottom=0;right=0;pointerEvents=1;rounded=0;shadow=0;sketch=0;fontSize=11;strokeWidth=1;strokeColor=#2D7600;fontColor=#ffffff;" vertex="1" parent="23pJZIWyzSni5zogjpeQ-52">
          <mxGeometry x="191" width="37" height="36" as="geometry">
            <mxRectangle width="37" height="36" as="alternateBounds" />
          </mxGeometry>
        </mxCell>
        <mxCell id="23pJZIWyzSni5zogjpeQ-59" value="" style="shape=partialRectangle;html=1;whiteSpace=wrap;connectable=0;overflow=hidden;fillColor=none;top=0;left=0;bottom=0;right=0;pointerEvents=1;rounded=0;shadow=0;sketch=0;fontSize=11;strokeWidth=1;strokeColor=#2D7600;fontColor=#ffffff;" vertex="1" parent="23pJZIWyzSni5zogjpeQ-52">
          <mxGeometry x="228" width="39" height="36" as="geometry">
            <mxRectangle width="39" height="36" as="alternateBounds" />
          </mxGeometry>
        </mxCell>
        <mxCell id="23pJZIWyzSni5zogjpeQ-60" value="" style="shape=tableRow;horizontal=0;startSize=0;swimlaneHead=0;swimlaneBody=0;top=0;left=0;bottom=0;right=0;collapsible=0;dropTarget=0;fillColor=none;points=[[0,0.5],[1,0.5]];portConstraint=eastwest;rounded=0;shadow=0;sketch=0;fontSize=11;strokeWidth=1;" vertex="1" parent="23pJZIWyzSni5zogjpeQ-35">
          <mxGeometry y="103" width="267" height="35" as="geometry" />
        </mxCell>
        <mxCell id="23pJZIWyzSni5zogjpeQ-61" value="1" style="shape=partialRectangle;html=1;whiteSpace=wrap;connectable=0;overflow=hidden;fillColor=none;top=0;left=0;bottom=0;right=0;pointerEvents=1;rounded=0;shadow=0;sketch=0;fontSize=11;strokeWidth=1;" vertex="1" parent="23pJZIWyzSni5zogjpeQ-60">
          <mxGeometry width="39" height="35" as="geometry">
            <mxRectangle width="39" height="35" as="alternateBounds" />
          </mxGeometry>
        </mxCell>
        <mxCell id="23pJZIWyzSni5zogjpeQ-62" value="" style="shape=partialRectangle;html=1;whiteSpace=wrap;connectable=0;overflow=hidden;fillColor=none;top=0;left=0;bottom=0;right=0;pointerEvents=1;rounded=0;shadow=0;sketch=0;fontSize=11;strokeWidth=1;" vertex="1" parent="23pJZIWyzSni5zogjpeQ-60">
          <mxGeometry x="39" width="37" height="35" as="geometry">
            <mxRectangle width="37" height="35" as="alternateBounds" />
          </mxGeometry>
        </mxCell>
        <mxCell id="23pJZIWyzSni5zogjpeQ-63" value="" style="shape=partialRectangle;html=1;whiteSpace=wrap;connectable=0;overflow=hidden;fillColor=none;top=0;left=0;bottom=0;right=0;pointerEvents=1;rounded=0;shadow=0;sketch=0;fontSize=11;strokeWidth=1;" vertex="1" parent="23pJZIWyzSni5zogjpeQ-60">
          <mxGeometry x="76" width="39" height="35" as="geometry">
            <mxRectangle width="39" height="35" as="alternateBounds" />
          </mxGeometry>
        </mxCell>
        <mxCell id="23pJZIWyzSni5zogjpeQ-64" value="" style="shape=partialRectangle;html=1;whiteSpace=wrap;connectable=0;overflow=hidden;fillColor=none;top=0;left=0;bottom=0;right=0;pointerEvents=1;rounded=0;shadow=0;sketch=0;fontSize=11;strokeWidth=1;" vertex="1" parent="23pJZIWyzSni5zogjpeQ-60">
          <mxGeometry x="115" width="41" height="35" as="geometry">
            <mxRectangle width="41" height="35" as="alternateBounds" />
          </mxGeometry>
        </mxCell>
        <mxCell id="23pJZIWyzSni5zogjpeQ-65" value="1" style="shape=partialRectangle;html=1;whiteSpace=wrap;connectable=0;overflow=hidden;fillColor=none;top=0;left=0;bottom=0;right=0;pointerEvents=1;rounded=0;shadow=0;sketch=0;fontSize=11;strokeWidth=1;" vertex="1" parent="23pJZIWyzSni5zogjpeQ-60">
          <mxGeometry x="156" width="35" height="35" as="geometry">
            <mxRectangle width="35" height="35" as="alternateBounds" />
          </mxGeometry>
        </mxCell>
        <mxCell id="23pJZIWyzSni5zogjpeQ-66" value="" style="shape=partialRectangle;html=1;whiteSpace=wrap;connectable=0;overflow=hidden;fillColor=none;top=0;left=0;bottom=0;right=0;pointerEvents=1;rounded=0;shadow=0;sketch=0;fontSize=11;strokeWidth=1;" vertex="1" parent="23pJZIWyzSni5zogjpeQ-60">
          <mxGeometry x="191" width="37" height="35" as="geometry">
            <mxRectangle width="37" height="35" as="alternateBounds" />
          </mxGeometry>
        </mxCell>
        <mxCell id="23pJZIWyzSni5zogjpeQ-67" value="" style="shape=partialRectangle;html=1;whiteSpace=wrap;connectable=0;overflow=hidden;fillColor=none;top=0;left=0;bottom=0;right=0;pointerEvents=1;rounded=0;shadow=0;sketch=0;fontSize=11;strokeWidth=1;" vertex="1" parent="23pJZIWyzSni5zogjpeQ-60">
          <mxGeometry x="228" width="39" height="35" as="geometry">
            <mxRectangle width="39" height="35" as="alternateBounds" />
          </mxGeometry>
        </mxCell>
        <mxCell id="23pJZIWyzSni5zogjpeQ-68" value="" style="shape=tableRow;horizontal=0;startSize=0;swimlaneHead=0;swimlaneBody=0;top=0;left=0;bottom=0;right=0;collapsible=0;dropTarget=0;fillColor=none;points=[[0,0.5],[1,0.5]];portConstraint=eastwest;rounded=0;shadow=0;sketch=0;fontSize=11;strokeWidth=1;" vertex="1" parent="23pJZIWyzSni5zogjpeQ-35">
          <mxGeometry y="138" width="267" height="36" as="geometry" />
        </mxCell>
        <mxCell id="23pJZIWyzSni5zogjpeQ-69" value="" style="shape=partialRectangle;html=1;whiteSpace=wrap;connectable=0;overflow=hidden;fillColor=none;top=0;left=0;bottom=0;right=0;pointerEvents=1;rounded=0;shadow=0;sketch=0;fontSize=11;strokeWidth=1;" vertex="1" parent="23pJZIWyzSni5zogjpeQ-68">
          <mxGeometry width="39" height="36" as="geometry">
            <mxRectangle width="39" height="36" as="alternateBounds" />
          </mxGeometry>
        </mxCell>
        <mxCell id="23pJZIWyzSni5zogjpeQ-70" value="1" style="shape=partialRectangle;html=1;whiteSpace=wrap;connectable=0;overflow=hidden;fillColor=none;top=0;left=0;bottom=0;right=0;pointerEvents=1;rounded=0;shadow=0;sketch=0;fontSize=11;strokeWidth=1;" vertex="1" parent="23pJZIWyzSni5zogjpeQ-68">
          <mxGeometry x="39" width="37" height="36" as="geometry">
            <mxRectangle width="37" height="36" as="alternateBounds" />
          </mxGeometry>
        </mxCell>
        <mxCell id="23pJZIWyzSni5zogjpeQ-71" value="" style="shape=partialRectangle;html=1;whiteSpace=wrap;connectable=0;overflow=hidden;fillColor=none;top=0;left=0;bottom=0;right=0;pointerEvents=1;rounded=0;shadow=0;sketch=0;fontSize=11;strokeWidth=1;" vertex="1" parent="23pJZIWyzSni5zogjpeQ-68">
          <mxGeometry x="76" width="39" height="36" as="geometry">
            <mxRectangle width="39" height="36" as="alternateBounds" />
          </mxGeometry>
        </mxCell>
        <mxCell id="23pJZIWyzSni5zogjpeQ-72" value="" style="shape=partialRectangle;html=1;whiteSpace=wrap;connectable=0;overflow=hidden;fillColor=none;top=0;left=0;bottom=0;right=0;pointerEvents=1;rounded=0;shadow=0;sketch=0;fontSize=11;strokeWidth=1;" vertex="1" parent="23pJZIWyzSni5zogjpeQ-68">
          <mxGeometry x="115" width="41" height="36" as="geometry">
            <mxRectangle width="41" height="36" as="alternateBounds" />
          </mxGeometry>
        </mxCell>
        <mxCell id="23pJZIWyzSni5zogjpeQ-73" value="1" style="shape=partialRectangle;html=1;whiteSpace=wrap;connectable=0;overflow=hidden;fillColor=none;top=0;left=0;bottom=0;right=0;pointerEvents=1;rounded=0;shadow=0;sketch=0;fontSize=11;strokeWidth=1;" vertex="1" parent="23pJZIWyzSni5zogjpeQ-68">
          <mxGeometry x="156" width="35" height="36" as="geometry">
            <mxRectangle width="35" height="36" as="alternateBounds" />
          </mxGeometry>
        </mxCell>
        <mxCell id="23pJZIWyzSni5zogjpeQ-74" value="" style="shape=partialRectangle;html=1;whiteSpace=wrap;connectable=0;overflow=hidden;fillColor=none;top=0;left=0;bottom=0;right=0;pointerEvents=1;rounded=0;shadow=0;sketch=0;fontSize=11;strokeWidth=1;" vertex="1" parent="23pJZIWyzSni5zogjpeQ-68">
          <mxGeometry x="191" width="37" height="36" as="geometry">
            <mxRectangle width="37" height="36" as="alternateBounds" />
          </mxGeometry>
        </mxCell>
        <mxCell id="23pJZIWyzSni5zogjpeQ-75" value="1" style="shape=partialRectangle;html=1;whiteSpace=wrap;connectable=0;overflow=hidden;fillColor=none;top=0;left=0;bottom=0;right=0;pointerEvents=1;rounded=0;shadow=0;sketch=0;fontSize=11;strokeWidth=1;" vertex="1" parent="23pJZIWyzSni5zogjpeQ-68">
          <mxGeometry x="228" width="39" height="36" as="geometry">
            <mxRectangle width="39" height="36" as="alternateBounds" />
          </mxGeometry>
        </mxCell>
        <mxCell id="23pJZIWyzSni5zogjpeQ-76" value="&lt;b&gt;&lt;font style=&quot;font-size: 14px&quot;&gt;Drugs&lt;/font&gt;&lt;/b&gt;" style="text;html=1;align=center;verticalAlign=middle;resizable=0;points=[];autosize=1;strokeColor=none;fillColor=none;fontSize=11;" vertex="1" parent="1">
          <mxGeometry x="825" y="-457" width="50" height="17" as="geometry" />
        </mxCell>
        <mxCell id="23pJZIWyzSni5zogjpeQ-77" value="&lt;b&gt;&lt;font style=&quot;font-size: 16px&quot;&gt;Diseases&lt;/font&gt;&lt;/b&gt;" style="text;html=1;align=center;verticalAlign=middle;resizable=0;points=[];autosize=1;strokeColor=none;fillColor=none;fontSize=11;" vertex="1" parent="1">
          <mxGeometry x="975" y="-528" width="79" height="19" as="geometry" />
        </mxCell>
        <mxCell id="23pJZIWyzSni5zogjpeQ-78" value="&lt;span lang=&quot;EN-US&quot;&gt;&lt;font&gt;&lt;b&gt;&lt;font style=&quot;font-size: 16px&quot;&gt;Drug-Disease&amp;nbsp;Associations Matrix&lt;/font&gt;&lt;/b&gt;&lt;br&gt;&lt;/font&gt;&lt;/span&gt;" style="text;html=1;align=center;verticalAlign=middle;resizable=0;points=[];autosize=1;strokeColor=none;fillColor=none;fontSize=11;" vertex="1" parent="1">
          <mxGeometry x="874" y="-309" width="268" height="19" as="geometry" />
        </mxCell>
        <mxCell id="23pJZIWyzSni5zogjpeQ-79" value="" style="ellipse;whiteSpace=wrap;html=1;aspect=fixed;rounded=0;sketch=0;strokeWidth=1;fillColor=#dae8fc;strokeColor=#6c8ebf;gradientColor=#7ea6e0;" vertex="1" parent="1">
          <mxGeometry x="1248" y="-464" width="25" height="25" as="geometry" />
        </mxCell>
        <mxCell id="23pJZIWyzSni5zogjpeQ-80" value="" style="ellipse;whiteSpace=wrap;html=1;aspect=fixed;rounded=0;sketch=0;strokeWidth=1;fillColor=#fff2cc;strokeColor=#d6b656;gradientColor=#ffd966;" vertex="1" parent="1">
          <mxGeometry x="1317" y="-464" width="25" height="25" as="geometry" />
        </mxCell>
        <mxCell id="23pJZIWyzSni5zogjpeQ-81" value="" style="ellipse;whiteSpace=wrap;html=1;aspect=fixed;rounded=0;sketch=0;strokeWidth=1;fillColor=#dae8fc;strokeColor=#6c8ebf;gradientColor=#7ea6e0;" vertex="1" parent="1">
          <mxGeometry x="1248" y="-421" width="25" height="25" as="geometry" />
        </mxCell>
        <mxCell id="23pJZIWyzSni5zogjpeQ-82" value="" style="ellipse;whiteSpace=wrap;html=1;aspect=fixed;rounded=0;sketch=0;strokeWidth=1;fillColor=#dae8fc;strokeColor=#6c8ebf;gradientColor=#7ea6e0;" vertex="1" parent="1">
          <mxGeometry x="1248" y="-375" width="25" height="25" as="geometry" />
        </mxCell>
        <mxCell id="23pJZIWyzSni5zogjpeQ-83" value="" style="ellipse;whiteSpace=wrap;html=1;aspect=fixed;rounded=0;sketch=0;strokeWidth=1;fillColor=#fff2cc;strokeColor=#d6b656;gradientColor=#ffd966;" vertex="1" parent="1">
          <mxGeometry x="1317" y="-375" width="25" height="25" as="geometry" />
        </mxCell>
        <mxCell id="23pJZIWyzSni5zogjpeQ-84" value="" style="ellipse;whiteSpace=wrap;html=1;aspect=fixed;rounded=0;sketch=0;strokeWidth=1;fillColor=#fff2cc;strokeColor=#d6b656;gradientColor=#ffd966;" vertex="1" parent="1">
          <mxGeometry x="1317" y="-421" width="25" height="25" as="geometry" />
        </mxCell>
        <mxCell id="23pJZIWyzSni5zogjpeQ-85" value="&lt;font color=&quot;#000000&quot;&gt;&lt;b&gt;u&lt;/b&gt;&lt;/font&gt;" style="text;html=1;align=center;verticalAlign=middle;resizable=0;points=[];autosize=1;strokeColor=none;fillColor=none;fontSize=12;fontColor=#FF0000;" vertex="1" parent="1">
          <mxGeometry x="1225" y="-417.5" width="17" height="18" as="geometry" />
        </mxCell>
        <mxCell id="23pJZIWyzSni5zogjpeQ-86" value="&lt;font color=&quot;#000000&quot;&gt;&lt;b&gt;v&lt;/b&gt;&lt;/font&gt;" style="text;html=1;align=center;verticalAlign=middle;resizable=0;points=[];autosize=1;strokeColor=none;fillColor=none;fontSize=12;fontColor=#FF0000;" vertex="1" parent="1">
          <mxGeometry x="1350" y="-417.5" width="16" height="18" as="geometry" />
        </mxCell>
        <mxCell id="23pJZIWyzSni5zogjpeQ-87" value="&lt;b&gt;&lt;font style=&quot;font-size: 14px&quot;&gt;Drugs&lt;/font&gt;&lt;/b&gt;" style="text;html=1;align=center;verticalAlign=middle;resizable=0;points=[];autosize=1;strokeColor=none;fillColor=none;fontSize=11;" vertex="1" parent="1">
          <mxGeometry x="1236.5" y="-495" width="50" height="17" as="geometry" />
        </mxCell>
        <mxCell id="23pJZIWyzSni5zogjpeQ-88" value="&lt;b&gt;&lt;font style=&quot;font-size: 14px&quot;&gt;Diseases&lt;/font&gt;&lt;/b&gt;" style="text;html=1;align=center;verticalAlign=middle;resizable=0;points=[];autosize=1;strokeColor=none;fillColor=none;fontSize=11;" vertex="1" parent="1">
          <mxGeometry x="1300" y="-495" width="71" height="17" as="geometry" />
        </mxCell>
        <mxCell id="23pJZIWyzSni5zogjpeQ-89" value="" style="endArrow=none;html=1;rounded=1;labelBackgroundColor=none;sketch=0;fontSize=12;fontColor=#000000;strokeColor=#000000;strokeWidth=1;curved=0;exitX=0;exitY=0.5;exitDx=0;exitDy=0;entryX=1;entryY=0.5;entryDx=0;entryDy=0;" edge="1" parent="1" source="23pJZIWyzSni5zogjpeQ-83" target="23pJZIWyzSni5zogjpeQ-82">
          <mxGeometry width="50" height="50" relative="1" as="geometry">
            <mxPoint x="1346.5" y="-398.5" as="sourcePoint" />
            <mxPoint x="1293" y="-399" as="targetPoint" />
          </mxGeometry>
        </mxCell>
        <mxCell id="23pJZIWyzSni5zogjpeQ-90" value="" style="endArrow=none;html=1;rounded=1;labelBackgroundColor=none;sketch=0;fontSize=12;fontColor=#000000;strokeColor=#000000;strokeWidth=1;curved=0;exitX=0;exitY=0.5;exitDx=0;exitDy=0;entryX=1;entryY=0.5;entryDx=0;entryDy=0;" edge="1" parent="1" source="23pJZIWyzSni5zogjpeQ-80" target="23pJZIWyzSni5zogjpeQ-81">
          <mxGeometry width="50" height="50" relative="1" as="geometry">
            <mxPoint x="1327.0000000000084" y="-352.5" as="sourcePoint" />
            <mxPoint x="1282.9999999999916" y="-352.5" as="targetPoint" />
          </mxGeometry>
        </mxCell>
        <mxCell id="23pJZIWyzSni5zogjpeQ-91" value="" style="endArrow=none;html=1;rounded=1;labelBackgroundColor=none;sketch=0;fontSize=12;fontColor=#000000;strokeColor=#000000;strokeWidth=1;curved=0;exitX=0;exitY=0.5;exitDx=0;exitDy=0;entryX=1;entryY=0.5;entryDx=0;entryDy=0;" edge="1" parent="1" source="23pJZIWyzSni5zogjpeQ-83" target="23pJZIWyzSni5zogjpeQ-81">
          <mxGeometry width="50" height="50" relative="1" as="geometry">
            <mxPoint x="1327" y="-441.5" as="sourcePoint" />
            <mxPoint x="1283" y="-398.5" as="targetPoint" />
          </mxGeometry>
        </mxCell>
        <mxCell id="23pJZIWyzSni5zogjpeQ-92" value="" style="endArrow=none;html=1;rounded=1;labelBackgroundColor=none;sketch=0;fontSize=12;fontColor=#000000;strokeColor=#000000;strokeWidth=1;curved=0;exitX=0;exitY=0.5;exitDx=0;exitDy=0;entryX=1;entryY=0.5;entryDx=0;entryDy=0;" edge="1" parent="1" source="23pJZIWyzSni5zogjpeQ-80" target="23pJZIWyzSni5zogjpeQ-79">
          <mxGeometry width="50" height="50" relative="1" as="geometry">
            <mxPoint x="1327.0000000000027" y="-441.5" as="sourcePoint" />
            <mxPoint x="1282.9999999999973" y="-398.5" as="targetPoint" />
          </mxGeometry>
        </mxCell>
        <mxCell id="23pJZIWyzSni5zogjpeQ-93" value="" style="endArrow=none;html=1;rounded=1;labelBackgroundColor=none;sketch=0;fontSize=12;fontColor=#000000;strokeColor=#000000;strokeWidth=1;curved=0;exitX=0;exitY=0.5;exitDx=0;exitDy=0;entryX=1;entryY=0.5;entryDx=0;entryDy=0;" edge="1" parent="1" source="23pJZIWyzSni5zogjpeQ-84" target="23pJZIWyzSni5zogjpeQ-79">
          <mxGeometry width="50" height="50" relative="1" as="geometry">
            <mxPoint x="1326.9999999999832" y="-441.5" as="sourcePoint" />
            <mxPoint x="1282.9999999999975" y="-441.5" as="targetPoint" />
          </mxGeometry>
        </mxCell>
        <mxCell id="23pJZIWyzSni5zogjpeQ-94" value="" style="endArrow=none;html=1;rounded=1;labelBackgroundColor=none;sketch=0;fontSize=12;fontColor=#000000;strokeColor=#000000;strokeWidth=1;curved=0;exitX=0;exitY=0.5;exitDx=0;exitDy=0;" edge="1" parent="1" source="23pJZIWyzSni5zogjpeQ-84">
          <mxGeometry width="50" height="50" relative="1" as="geometry">
            <mxPoint x="1326.9999999999832" y="-352.5" as="sourcePoint" />
            <mxPoint x="1273" y="-362" as="targetPoint" />
          </mxGeometry>
        </mxCell>
        <mxCell id="23pJZIWyzSni5zogjpeQ-98" value="" style="shape=flexArrow;endArrow=classic;html=1;rounded=1;labelBackgroundColor=none;sketch=0;fontSize=9;fontColor=#FF0000;strokeColor=none;strokeWidth=1;curved=0;fillColor=#858585;gradientColor=#ffffff;endWidth=16.380952380952383;endSize=5.051428571428572;width=13.142857142857142;gradientDirection=north;" edge="1" parent="1">
          <mxGeometry width="50" height="50" relative="1" as="geometry">
            <mxPoint x="807" y="-416.5" as="sourcePoint" />
            <mxPoint x="862" y="-417.5" as="targetPoint" />
          </mxGeometry>
        </mxCell>
        <mxCell id="23pJZIWyzSni5zogjpeQ-99" value="&lt;b&gt;&lt;font style=&quot;font-size: 16px&quot;&gt;&lt;font color=&quot;#000000&quot;&gt;1-hop&amp;nbsp;&lt;/font&gt;&lt;span style=&quot;color: rgb(0 , 0 , 0)&quot;&gt;Neighborhood Subgraph of &lt;br&gt;Node-Pair Extraction&lt;/span&gt;&lt;/font&gt;&lt;/b&gt;&lt;font color=&quot;#000000&quot;&gt;&lt;br&gt;&lt;/font&gt;" style="text;html=1;align=center;verticalAlign=middle;resizable=0;points=[];autosize=1;strokeColor=none;fillColor=none;fontSize=9;fontColor=#FF0000;" vertex="1" parent="1">
          <mxGeometry x="1170" y="-328" width="266" height="28" as="geometry" />
        </mxCell>
        <mxCell id="23pJZIWyzSni5zogjpeQ-100" value="" style="shape=flexArrow;endArrow=classic;html=1;rounded=1;labelBackgroundColor=none;sketch=0;fontSize=9;fontColor=#FF0000;strokeColor=none;strokeWidth=1;curved=0;fillColor=#858585;gradientColor=#ffffff;endWidth=16.380952380952383;endSize=5.576470588235295;width=10.588235294117647;gradientDirection=north;" edge="1" parent="1">
          <mxGeometry width="50" height="50" relative="1" as="geometry">
            <mxPoint x="1170" y="-408" as="sourcePoint" />
            <mxPoint x="1225" y="-409" as="targetPoint" />
          </mxGeometry>
        </mxCell>
        <mxCell id="23pJZIWyzSni5zogjpeQ-126" value="" style="rounded=1;whiteSpace=wrap;html=1;shadow=0;dashed=1;sketch=0;fontSize=11;strokeWidth=1;gradientColor=none;fillColor=none;strokeColor=#FF0000;" vertex="1" parent="1">
          <mxGeometry x="948" y="-505.5" width="207" height="114" as="geometry" />
        </mxCell>
        <mxCell id="rRvaKYYl_HqWxL7n8L-S-1" value="" style="rounded=1;whiteSpace=wrap;html=1;shadow=0;dashed=1;sketch=0;fontSize=11;strokeWidth=1;gradientColor=none;fillColor=none;strokeColor=#FF0000;" vertex="1" parent="1">
          <mxGeometry x="900" y="-163" width="207" height="114" as="geometry" />
        </mxCell>
        <mxCell id="rRvaKYYl_HqWxL7n8L-S-2" value="" style="rounded=1;whiteSpace=wrap;html=1;glass=1;fillColor=none;dashed=1;strokeWidth=1;shadow=0;arcSize=13;" vertex="1" parent="1">
          <mxGeometry x="571" y="-205" width="179" height="281" as="geometry" />
        </mxCell>
        <mxCell id="rRvaKYYl_HqWxL7n8L-S-3" value="" style="ellipse;whiteSpace=wrap;html=1;aspect=fixed;rounded=0;sketch=0;strokeWidth=1;fillColor=#dae8fc;strokeColor=#6c8ebf;gradientColor=#7ea6e0;" vertex="1" parent="1">
          <mxGeometry x="612" y="-194" width="25" height="25" as="geometry" />
        </mxCell>
        <mxCell id="rRvaKYYl_HqWxL7n8L-S-4" value="" style="ellipse;whiteSpace=wrap;html=1;aspect=fixed;rounded=0;sketch=0;strokeWidth=1;fillColor=#dae8fc;strokeColor=#6c8ebf;gradientColor=#7ea6e0;" vertex="1" parent="1">
          <mxGeometry x="612" y="-158" width="25" height="25" as="geometry" />
        </mxCell>
        <mxCell id="rRvaKYYl_HqWxL7n8L-S-5" value="" style="ellipse;whiteSpace=wrap;html=1;aspect=fixed;rounded=0;sketch=0;strokeWidth=1;fillColor=#dae8fc;strokeColor=#6c8ebf;gradientColor=#7ea6e0;" vertex="1" parent="1">
          <mxGeometry x="612" y="-122" width="25" height="25" as="geometry" />
        </mxCell>
        <mxCell id="rRvaKYYl_HqWxL7n8L-S-6" value="" style="ellipse;whiteSpace=wrap;html=1;aspect=fixed;rounded=0;sketch=0;strokeWidth=1;fillColor=#dae8fc;strokeColor=#6c8ebf;gradientColor=#7ea6e0;" vertex="1" parent="1">
          <mxGeometry x="612" y="-86" width="25" height="25" as="geometry" />
        </mxCell>
        <mxCell id="rRvaKYYl_HqWxL7n8L-S-7" value="" style="ellipse;whiteSpace=wrap;html=1;aspect=fixed;rounded=0;sketch=0;strokeWidth=1;fillColor=#dae8fc;strokeColor=#6c8ebf;gradientColor=#7ea6e0;" vertex="1" parent="1">
          <mxGeometry x="612" y="-50" width="25" height="25" as="geometry" />
        </mxCell>
        <mxCell id="rRvaKYYl_HqWxL7n8L-S-8" value="" style="ellipse;whiteSpace=wrap;html=1;aspect=fixed;rounded=0;sketch=0;strokeWidth=1;fillColor=#fff2cc;strokeColor=#d6b656;gradientColor=#ffd966;" vertex="1" parent="1">
          <mxGeometry x="689" y="-194" width="25" height="25" as="geometry" />
        </mxCell>
        <mxCell id="rRvaKYYl_HqWxL7n8L-S-9" value="" style="ellipse;whiteSpace=wrap;html=1;aspect=fixed;rounded=0;sketch=0;strokeWidth=1;fillColor=#fff2cc;strokeColor=#d6b656;gradientColor=#ffd966;" vertex="1" parent="1">
          <mxGeometry x="689" y="-158" width="25" height="25" as="geometry" />
        </mxCell>
        <mxCell id="rRvaKYYl_HqWxL7n8L-S-10" value="" style="ellipse;whiteSpace=wrap;html=1;aspect=fixed;rounded=0;sketch=0;strokeWidth=1;fillColor=#fff2cc;strokeColor=#d6b656;gradientColor=#ffd966;" vertex="1" parent="1">
          <mxGeometry x="689" y="-122" width="25" height="25" as="geometry" />
        </mxCell>
        <mxCell id="rRvaKYYl_HqWxL7n8L-S-11" value="" style="ellipse;whiteSpace=wrap;html=1;aspect=fixed;rounded=0;sketch=0;strokeWidth=1;fillColor=#fff2cc;strokeColor=#d6b656;gradientColor=#ffd966;" vertex="1" parent="1">
          <mxGeometry x="689" y="-86" width="25" height="25" as="geometry" />
        </mxCell>
        <mxCell id="rRvaKYYl_HqWxL7n8L-S-12" value="" style="ellipse;whiteSpace=wrap;html=1;aspect=fixed;rounded=0;sketch=0;strokeWidth=1;fillColor=#fff2cc;strokeColor=#d6b656;gradientColor=#ffd966;" vertex="1" parent="1">
          <mxGeometry x="689" y="-50" width="25" height="25" as="geometry" />
        </mxCell>
        <mxCell id="rRvaKYYl_HqWxL7n8L-S-13" value="" style="endArrow=none;html=1;rounded=1;sketch=0;curved=0;entryX=0;entryY=0.5;entryDx=0;entryDy=0;exitX=1;exitY=0.5;exitDx=0;exitDy=0;" edge="1" parent="1" source="rRvaKYYl_HqWxL7n8L-S-3" target="rRvaKYYl_HqWxL7n8L-S-8">
          <mxGeometry width="50" height="50" relative="1" as="geometry">
            <mxPoint x="644" y="-140" as="sourcePoint" />
            <mxPoint x="694" y="-190" as="targetPoint" />
          </mxGeometry>
        </mxCell>
        <mxCell id="rRvaKYYl_HqWxL7n8L-S-14" value="" style="endArrow=none;html=1;rounded=1;sketch=0;curved=0;entryX=1;entryY=0.5;entryDx=0;entryDy=0;exitX=0;exitY=0.5;exitDx=0;exitDy=0;" edge="1" parent="1" source="rRvaKYYl_HqWxL7n8L-S-9" target="rRvaKYYl_HqWxL7n8L-S-3">
          <mxGeometry width="50" height="50" relative="1" as="geometry">
            <mxPoint x="728" y="-38" as="sourcePoint" />
            <mxPoint x="778" y="-88" as="targetPoint" />
          </mxGeometry>
        </mxCell>
        <mxCell id="rRvaKYYl_HqWxL7n8L-S-15" value="" style="endArrow=none;html=1;rounded=1;sketch=0;curved=0;exitX=0;exitY=0.5;exitDx=0;exitDy=0;entryX=1;entryY=0.5;entryDx=0;entryDy=0;" edge="1" parent="1" source="rRvaKYYl_HqWxL7n8L-S-9" target="rRvaKYYl_HqWxL7n8L-S-4">
          <mxGeometry width="50" height="50" relative="1" as="geometry">
            <mxPoint x="727.000000000003" y="-135.5" as="sourcePoint" />
            <mxPoint x="647" y="-171.5" as="targetPoint" />
          </mxGeometry>
        </mxCell>
        <mxCell id="rRvaKYYl_HqWxL7n8L-S-16" value="" style="endArrow=none;html=1;rounded=1;sketch=0;curved=0;exitX=0;exitY=0.5;exitDx=0;exitDy=0;entryX=1;entryY=0.5;entryDx=0;entryDy=0;" edge="1" parent="1">
          <mxGeometry width="50" height="50" relative="1" as="geometry">
            <mxPoint x="689" y="-145.5" as="sourcePoint" />
            <mxPoint x="637" y="-109.49999999999977" as="targetPoint" />
          </mxGeometry>
        </mxCell>
        <mxCell id="rRvaKYYl_HqWxL7n8L-S-17" value="" style="endArrow=none;html=1;rounded=1;sketch=0;curved=0;exitX=0;exitY=0.5;exitDx=0;exitDy=0;entryX=1;entryY=0.5;entryDx=0;entryDy=0;dashed=1;strokeColor=#FF0000;" edge="1" parent="1" source="rRvaKYYl_HqWxL7n8L-S-11" target="rRvaKYYl_HqWxL7n8L-S-6">
          <mxGeometry width="50" height="50" relative="1" as="geometry">
            <mxPoint x="699" y="-135.5" as="sourcePoint" />
            <mxPoint x="647" y="-99.49999999999989" as="targetPoint" />
          </mxGeometry>
        </mxCell>
        <mxCell id="rRvaKYYl_HqWxL7n8L-S-18" value="" style="endArrow=none;html=1;rounded=1;sketch=0;curved=0;exitX=0;exitY=0.5;exitDx=0;exitDy=0;entryX=1;entryY=0.5;entryDx=0;entryDy=0;" edge="1" parent="1" source="rRvaKYYl_HqWxL7n8L-S-11" target="rRvaKYYl_HqWxL7n8L-S-7">
          <mxGeometry width="50" height="50" relative="1" as="geometry">
            <mxPoint x="699" y="-63.5" as="sourcePoint" />
            <mxPoint x="647" y="-63.5" as="targetPoint" />
          </mxGeometry>
        </mxCell>
        <mxCell id="rRvaKYYl_HqWxL7n8L-S-19" value="" style="endArrow=none;html=1;rounded=1;sketch=0;curved=0;exitX=0;exitY=0.5;exitDx=0;exitDy=0;entryX=1;entryY=0.5;entryDx=0;entryDy=0;" edge="1" parent="1" source="rRvaKYYl_HqWxL7n8L-S-10" target="rRvaKYYl_HqWxL7n8L-S-6">
          <mxGeometry width="50" height="50" relative="1" as="geometry">
            <mxPoint x="709" y="-53.5" as="sourcePoint" />
            <mxPoint x="657" y="-53.5" as="targetPoint" />
          </mxGeometry>
        </mxCell>
        <mxCell id="rRvaKYYl_HqWxL7n8L-S-20" value="" style="endArrow=none;html=1;rounded=1;sketch=0;curved=0;exitX=0;exitY=0.5;exitDx=0;exitDy=0;entryX=1;entryY=0.5;entryDx=0;entryDy=0;" edge="1" parent="1" source="rRvaKYYl_HqWxL7n8L-S-12" target="rRvaKYYl_HqWxL7n8L-S-6">
          <mxGeometry width="50" height="50" relative="1" as="geometry">
            <mxPoint x="719" y="-43.5" as="sourcePoint" />
            <mxPoint x="667" y="-43.5" as="targetPoint" />
          </mxGeometry>
        </mxCell>
        <mxCell id="rRvaKYYl_HqWxL7n8L-S-21" value="" style="endArrow=none;html=1;rounded=1;sketch=0;curved=0;exitX=0;exitY=0.5;exitDx=0;exitDy=0;entryX=1;entryY=0.5;entryDx=0;entryDy=0;" edge="1" parent="1" source="rRvaKYYl_HqWxL7n8L-S-12" target="rRvaKYYl_HqWxL7n8L-S-4">
          <mxGeometry width="50" height="50" relative="1" as="geometry">
            <mxPoint x="729" y="-33.5" as="sourcePoint" />
            <mxPoint x="677" y="-33" as="targetPoint" />
          </mxGeometry>
        </mxCell>
        <mxCell id="rRvaKYYl_HqWxL7n8L-S-22" value="" style="endArrow=none;html=1;rounded=1;sketch=0;curved=0;exitX=0;exitY=0.5;exitDx=0;exitDy=0;entryX=1;entryY=0.5;entryDx=0;entryDy=0;strokeColor=#FF0000;dashed=1;" edge="1" parent="1">
          <mxGeometry width="50" height="50" relative="1" as="geometry">
            <mxPoint x="689" y="-37.77999999999997" as="sourcePoint" />
            <mxPoint x="637" y="-37.77999999999997" as="targetPoint" />
          </mxGeometry>
        </mxCell>
        <mxCell id="rRvaKYYl_HqWxL7n8L-S-23" value="" style="endArrow=none;html=1;rounded=1;sketch=0;curved=0;exitX=0;exitY=0.5;exitDx=0;exitDy=0;entryX=1;entryY=0.5;entryDx=0;entryDy=0;strokeColor=#FF0000;dashed=1;" edge="1" parent="1" source="rRvaKYYl_HqWxL7n8L-S-10" target="rRvaKYYl_HqWxL7n8L-S-3">
          <mxGeometry width="50" height="50" relative="1" as="geometry">
            <mxPoint x="699" y="-27.779999999999973" as="sourcePoint" />
            <mxPoint x="647" y="-27.779999999999973" as="targetPoint" />
          </mxGeometry>
        </mxCell>
        <mxCell id="rRvaKYYl_HqWxL7n8L-S-24" value="" style="endArrow=none;html=1;rounded=1;sketch=0;curved=0;exitX=1;exitY=0.5;exitDx=0;exitDy=0;strokeColor=#FF0000;dashed=1;" edge="1" parent="1" source="rRvaKYYl_HqWxL7n8L-S-5">
          <mxGeometry width="50" height="50" relative="1" as="geometry">
            <mxPoint x="709" y="-17.779999999999973" as="sourcePoint" />
            <mxPoint x="687" y="-181" as="targetPoint" />
          </mxGeometry>
        </mxCell>
        <mxCell id="rRvaKYYl_HqWxL7n8L-S-25" value="" style="endArrow=none;html=1;rounded=1;sketch=0;curved=0;exitX=0;exitY=0.5;exitDx=0;exitDy=0;entryX=1;entryY=0.5;entryDx=0;entryDy=0;strokeColor=#FF0000;dashed=1;" edge="1" parent="1" source="rRvaKYYl_HqWxL7n8L-S-11" target="rRvaKYYl_HqWxL7n8L-S-4">
          <mxGeometry width="50" height="50" relative="1" as="geometry">
            <mxPoint x="719" y="-7.779999999999973" as="sourcePoint" />
            <mxPoint x="667" y="-7.779999999999973" as="targetPoint" />
          </mxGeometry>
        </mxCell>
        <mxCell id="rRvaKYYl_HqWxL7n8L-S-26" value="" style="endArrow=none;html=1;rounded=1;sketch=0;curved=0;exitX=0;exitY=0.5;exitDx=0;exitDy=0;entryX=1;entryY=0.5;entryDx=0;entryDy=0;strokeColor=#000000;" edge="1" parent="1">
          <mxGeometry width="50" height="50" relative="1" as="geometry">
            <mxPoint x="689" y="-109.77999999999997" as="sourcePoint" />
            <mxPoint x="637" y="-109.77999999999997" as="targetPoint" />
          </mxGeometry>
        </mxCell>
        <mxCell id="rRvaKYYl_HqWxL7n8L-S-27" value="" style="ellipse;whiteSpace=wrap;html=1;aspect=fixed;rounded=0;sketch=0;strokeWidth=1;fillColor=#dae8fc;strokeColor=#6c8ebf;gradientColor=#7ea6e0;" vertex="1" parent="1">
          <mxGeometry x="585" y="-5" width="18" height="18" as="geometry" />
        </mxCell>
        <mxCell id="rRvaKYYl_HqWxL7n8L-S-28" value="&lt;p&gt;&lt;font style=&quot;font-size: 6px&quot;&gt;&lt;b&gt;Undiscovered links&lt;/b&gt;&lt;/font&gt;&lt;/p&gt;" style="text;html=1;align=center;verticalAlign=middle;resizable=0;points=[];autosize=1;strokeColor=none;fillColor=none;strokeWidth=1;" vertex="1" parent="1">
          <mxGeometry x="626.75" y="34" width="120" height="42" as="geometry" />
        </mxCell>
        <mxCell id="rRvaKYYl_HqWxL7n8L-S-29" value="&lt;b&gt;Diseases&lt;/b&gt;" style="text;html=1;align=center;verticalAlign=middle;resizable=0;points=[];autosize=1;strokeColor=none;fillColor=none;" vertex="1" parent="1">
          <mxGeometry x="664" y="-5" width="62" height="18" as="geometry" />
        </mxCell>
        <mxCell id="rRvaKYYl_HqWxL7n8L-S-30" value="&lt;p&gt;&lt;font style=&quot;font-size: 5px&quot;&gt;&lt;b&gt;Drugs&lt;/b&gt;&lt;/font&gt;&lt;/p&gt;" style="text;html=1;strokeColor=none;fillColor=none;align=center;verticalAlign=middle;whiteSpace=wrap;rounded=0;sketch=0;fontSize=6;" vertex="1" parent="1">
          <mxGeometry x="608" y="-6" width="36" height="19" as="geometry" />
        </mxCell>
        <mxCell id="rRvaKYYl_HqWxL7n8L-S-31" value="" style="ellipse;whiteSpace=wrap;html=1;aspect=fixed;rounded=0;sketch=0;strokeWidth=1;fillColor=#fff2cc;strokeColor=#d6b656;gradientColor=#ffd966;" vertex="1" parent="1">
          <mxGeometry x="649" y="-5" width="18" height="18" as="geometry" />
        </mxCell>
        <mxCell id="rRvaKYYl_HqWxL7n8L-S-32" value="" style="endArrow=none;html=1;rounded=1;sketch=0;fontSize=6;strokeColor=#000000;curved=0;strokeWidth=1;labelBackgroundColor=none;" edge="1" parent="1">
          <mxGeometry width="50" height="50" relative="1" as="geometry">
            <mxPoint x="622.5" y="33" as="sourcePoint" />
            <mxPoint x="581.5" y="33" as="targetPoint" />
          </mxGeometry>
        </mxCell>
        <mxCell id="rRvaKYYl_HqWxL7n8L-S-33" value="&lt;font style=&quot;font-size: 11px&quot;&gt;&lt;b&gt;Known association&lt;/b&gt;&lt;/font&gt;" style="text;html=1;strokeColor=none;fillColor=none;align=center;verticalAlign=middle;whiteSpace=wrap;rounded=0;sketch=0;fontSize=6;" vertex="1" parent="1">
          <mxGeometry x="625.5" y="25" width="122.5" height="14" as="geometry" />
        </mxCell>
        <mxCell id="rRvaKYYl_HqWxL7n8L-S-34" value="" style="endArrow=none;html=1;rounded=1;sketch=0;curved=0;strokeColor=#FF0000;dashed=1;" edge="1" parent="1">
          <mxGeometry width="50" height="50" relative="1" as="geometry">
            <mxPoint x="622.5" y="56.21212121212125" as="sourcePoint" />
            <mxPoint x="579.5" y="56.21212121212125" as="targetPoint" />
          </mxGeometry>
        </mxCell>
        <mxCell id="rRvaKYYl_HqWxL7n8L-S-35" style="edgeStyle=orthogonalEdgeStyle;curved=0;rounded=1;sketch=0;orthogonalLoop=1;jettySize=auto;html=1;exitX=0.5;exitY=1;exitDx=0;exitDy=0;fontSize=11;strokeColor=#000000;strokeWidth=1;" edge="1" parent="1" source="rRvaKYYl_HqWxL7n8L-S-2" target="rRvaKYYl_HqWxL7n8L-S-2">
          <mxGeometry relative="1" as="geometry" />
        </mxCell>
        <mxCell id="rRvaKYYl_HqWxL7n8L-S-36" value="" style="shape=table;startSize=0;container=1;collapsible=0;childLayout=tableLayout;rounded=0;shadow=0;sketch=0;fontSize=11;strokeWidth=1;" vertex="1" parent="1">
          <mxGeometry x="830" y="-160" width="267" height="173.9052413137336" as="geometry" />
        </mxCell>
        <mxCell id="rRvaKYYl_HqWxL7n8L-S-37" value="" style="shape=tableRow;horizontal=0;startSize=0;swimlaneHead=0;swimlaneBody=0;top=0;left=0;bottom=0;right=0;collapsible=0;dropTarget=0;fillColor=none;points=[[0,0.5],[1,0.5]];portConstraint=eastwest;rounded=0;shadow=0;sketch=0;fontSize=11;strokeWidth=1;strokeColor=#000000;" vertex="1" parent="rRvaKYYl_HqWxL7n8L-S-36">
          <mxGeometry width="267" height="36" as="geometry" />
        </mxCell>
        <mxCell id="rRvaKYYl_HqWxL7n8L-S-38" value="" style="shape=partialRectangle;html=1;whiteSpace=wrap;connectable=0;overflow=hidden;fillColor=none;top=0;left=0;bottom=0;right=0;pointerEvents=1;rounded=0;shadow=0;sketch=0;fontSize=11;strokeWidth=1;" vertex="1" parent="rRvaKYYl_HqWxL7n8L-S-37">
          <mxGeometry width="39" height="36" as="geometry">
            <mxRectangle width="39" height="36" as="alternateBounds" />
          </mxGeometry>
        </mxCell>
        <mxCell id="rRvaKYYl_HqWxL7n8L-S-39" value="" style="shape=partialRectangle;html=1;whiteSpace=wrap;connectable=0;overflow=hidden;fillColor=none;top=0;left=0;bottom=0;right=0;pointerEvents=1;rounded=0;shadow=0;sketch=0;fontSize=11;strokeWidth=1;" vertex="1" parent="rRvaKYYl_HqWxL7n8L-S-37">
          <mxGeometry x="39" width="37" height="36" as="geometry">
            <mxRectangle width="37" height="36" as="alternateBounds" />
          </mxGeometry>
        </mxCell>
        <mxCell id="rRvaKYYl_HqWxL7n8L-S-40" value="1" style="shape=partialRectangle;html=1;whiteSpace=wrap;connectable=0;overflow=hidden;fillColor=#60a917;top=0;left=0;bottom=0;right=0;pointerEvents=1;rounded=0;shadow=0;sketch=0;fontSize=11;strokeWidth=1;fontColor=#ffffff;strokeColor=#2D7600;" vertex="1" parent="rRvaKYYl_HqWxL7n8L-S-37">
          <mxGeometry x="76" width="39" height="36" as="geometry">
            <mxRectangle width="39" height="36" as="alternateBounds" />
          </mxGeometry>
        </mxCell>
        <mxCell id="rRvaKYYl_HqWxL7n8L-S-41" value="1" style="shape=partialRectangle;html=1;whiteSpace=wrap;connectable=0;overflow=hidden;fillColor=#FF0000;top=0;left=0;bottom=0;right=0;pointerEvents=1;rounded=0;shadow=0;sketch=0;fontSize=11;strokeWidth=1;strokeColor=#2D7600;fontColor=#ffffff;" vertex="1" parent="rRvaKYYl_HqWxL7n8L-S-37">
          <mxGeometry x="115" width="41" height="36" as="geometry">
            <mxRectangle width="41" height="36" as="alternateBounds" />
          </mxGeometry>
        </mxCell>
        <mxCell id="rRvaKYYl_HqWxL7n8L-S-42" value="" style="shape=partialRectangle;html=1;whiteSpace=wrap;connectable=0;overflow=hidden;fillColor=none;top=0;left=0;bottom=0;right=0;pointerEvents=1;rounded=0;shadow=0;sketch=0;fontSize=11;strokeWidth=1;" vertex="1" parent="rRvaKYYl_HqWxL7n8L-S-37">
          <mxGeometry x="156" width="35" height="36" as="geometry">
            <mxRectangle width="35" height="36" as="alternateBounds" />
          </mxGeometry>
        </mxCell>
        <mxCell id="rRvaKYYl_HqWxL7n8L-S-43" value="1" style="shape=partialRectangle;html=1;whiteSpace=wrap;connectable=0;overflow=hidden;fillColor=#60a917;top=0;left=0;bottom=0;right=0;pointerEvents=1;rounded=0;shadow=0;sketch=0;fontSize=11;strokeWidth=1;strokeColor=#2D7600;fontColor=#ffffff;" vertex="1" parent="rRvaKYYl_HqWxL7n8L-S-37">
          <mxGeometry x="191" width="37" height="36" as="geometry">
            <mxRectangle width="37" height="36" as="alternateBounds" />
          </mxGeometry>
        </mxCell>
        <mxCell id="rRvaKYYl_HqWxL7n8L-S-44" value="" style="shape=partialRectangle;html=1;whiteSpace=wrap;connectable=0;overflow=hidden;top=0;left=0;bottom=0;right=0;pointerEvents=1;rounded=0;shadow=0;sketch=0;fontSize=11;strokeWidth=1;fillColor=none;" vertex="1" parent="rRvaKYYl_HqWxL7n8L-S-37">
          <mxGeometry x="228" width="39" height="36" as="geometry">
            <mxRectangle width="39" height="36" as="alternateBounds" />
          </mxGeometry>
        </mxCell>
        <mxCell id="rRvaKYYl_HqWxL7n8L-S-45" value="" style="shape=tableRow;horizontal=0;startSize=0;swimlaneHead=0;swimlaneBody=0;top=0;left=0;bottom=0;right=0;collapsible=0;dropTarget=0;fillColor=none;points=[[0,0.5],[1,0.5]];portConstraint=eastwest;rounded=0;shadow=0;sketch=0;fontSize=11;strokeWidth=1;" vertex="1" parent="rRvaKYYl_HqWxL7n8L-S-36">
          <mxGeometry y="36" width="267" height="31" as="geometry" />
        </mxCell>
        <mxCell id="rRvaKYYl_HqWxL7n8L-S-46" value="1" style="shape=partialRectangle;html=1;whiteSpace=wrap;connectable=0;overflow=hidden;fillColor=none;top=0;left=0;bottom=0;right=0;pointerEvents=1;rounded=0;shadow=0;sketch=0;fontSize=11;strokeWidth=1;" vertex="1" parent="rRvaKYYl_HqWxL7n8L-S-45">
          <mxGeometry width="39" height="31" as="geometry">
            <mxRectangle width="39" height="31" as="alternateBounds" />
          </mxGeometry>
        </mxCell>
        <mxCell id="rRvaKYYl_HqWxL7n8L-S-47" value="" style="shape=partialRectangle;html=1;whiteSpace=wrap;connectable=0;overflow=hidden;fillColor=none;top=0;left=0;bottom=0;right=0;pointerEvents=1;rounded=0;shadow=0;sketch=0;fontSize=11;strokeWidth=1;" vertex="1" parent="rRvaKYYl_HqWxL7n8L-S-45">
          <mxGeometry x="39" width="37" height="31" as="geometry">
            <mxRectangle width="37" height="31" as="alternateBounds" />
          </mxGeometry>
        </mxCell>
        <mxCell id="rRvaKYYl_HqWxL7n8L-S-48" value="1" style="shape=partialRectangle;html=1;whiteSpace=wrap;connectable=0;overflow=hidden;top=0;left=0;bottom=0;right=0;pointerEvents=1;rounded=0;shadow=0;sketch=0;fontSize=11;strokeWidth=1;fillColor=#60a917;fontColor=#ffffff;strokeColor=#2D7600;" vertex="1" parent="rRvaKYYl_HqWxL7n8L-S-45">
          <mxGeometry x="76" width="39" height="31" as="geometry">
            <mxRectangle width="39" height="31" as="alternateBounds" />
          </mxGeometry>
        </mxCell>
        <mxCell id="rRvaKYYl_HqWxL7n8L-S-49" value="1" style="shape=partialRectangle;html=1;whiteSpace=wrap;connectable=0;overflow=hidden;fillColor=#60a917;top=0;left=0;bottom=0;right=0;pointerEvents=1;rounded=0;shadow=0;sketch=0;fontSize=11;strokeWidth=1;strokeColor=#2D7600;fontColor=#ffffff;" vertex="1" parent="rRvaKYYl_HqWxL7n8L-S-45">
          <mxGeometry x="115" width="41" height="31" as="geometry">
            <mxRectangle width="41" height="31" as="alternateBounds" />
          </mxGeometry>
        </mxCell>
        <mxCell id="rRvaKYYl_HqWxL7n8L-S-50" value="" style="shape=partialRectangle;html=1;whiteSpace=wrap;connectable=0;overflow=hidden;fillColor=none;top=0;left=0;bottom=0;right=0;pointerEvents=1;rounded=0;shadow=0;sketch=0;fontSize=11;strokeWidth=1;fontColor=#ffffff;strokeColor=#2D7600;" vertex="1" parent="rRvaKYYl_HqWxL7n8L-S-45">
          <mxGeometry x="156" width="35" height="31" as="geometry">
            <mxRectangle width="35" height="31" as="alternateBounds" />
          </mxGeometry>
        </mxCell>
        <mxCell id="rRvaKYYl_HqWxL7n8L-S-51" value="" style="shape=partialRectangle;html=1;whiteSpace=wrap;connectable=0;overflow=hidden;fillColor=none;top=0;left=0;bottom=0;right=0;pointerEvents=1;rounded=0;shadow=0;sketch=0;fontSize=11;strokeWidth=1;strokeColor=#2D7600;fontColor=#ffffff;" vertex="1" parent="rRvaKYYl_HqWxL7n8L-S-45">
          <mxGeometry x="191" width="37" height="31" as="geometry">
            <mxRectangle width="37" height="31" as="alternateBounds" />
          </mxGeometry>
        </mxCell>
        <mxCell id="rRvaKYYl_HqWxL7n8L-S-52" value="" style="shape=partialRectangle;html=1;whiteSpace=wrap;connectable=0;overflow=hidden;fillColor=none;top=0;left=0;bottom=0;right=0;pointerEvents=1;rounded=0;shadow=0;sketch=0;fontSize=11;strokeWidth=1;" vertex="1" parent="rRvaKYYl_HqWxL7n8L-S-45">
          <mxGeometry x="228" width="39" height="31" as="geometry">
            <mxRectangle width="39" height="31" as="alternateBounds" />
          </mxGeometry>
        </mxCell>
        <mxCell id="rRvaKYYl_HqWxL7n8L-S-53" value="" style="shape=tableRow;horizontal=0;startSize=0;swimlaneHead=0;swimlaneBody=0;top=0;left=0;bottom=0;right=0;collapsible=0;dropTarget=0;fillColor=none;points=[[0,0.5],[1,0.5]];portConstraint=eastwest;rounded=0;shadow=0;sketch=0;fontSize=11;strokeWidth=1;" vertex="1" parent="rRvaKYYl_HqWxL7n8L-S-36">
          <mxGeometry y="67" width="267" height="36" as="geometry" />
        </mxCell>
        <mxCell id="rRvaKYYl_HqWxL7n8L-S-54" value="" style="shape=partialRectangle;html=1;whiteSpace=wrap;connectable=0;overflow=hidden;fillColor=none;top=0;left=0;bottom=0;right=0;pointerEvents=1;rounded=0;shadow=0;sketch=0;fontSize=11;strokeWidth=1;" vertex="1" parent="rRvaKYYl_HqWxL7n8L-S-53">
          <mxGeometry width="39" height="36" as="geometry">
            <mxRectangle width="39" height="36" as="alternateBounds" />
          </mxGeometry>
        </mxCell>
        <mxCell id="rRvaKYYl_HqWxL7n8L-S-55" value="" style="shape=partialRectangle;html=1;whiteSpace=wrap;connectable=0;overflow=hidden;fillColor=none;top=0;left=0;bottom=0;right=0;pointerEvents=1;rounded=0;shadow=0;sketch=0;fontSize=11;strokeWidth=1;" vertex="1" parent="rRvaKYYl_HqWxL7n8L-S-53">
          <mxGeometry x="39" width="37" height="36" as="geometry">
            <mxRectangle width="37" height="36" as="alternateBounds" />
          </mxGeometry>
        </mxCell>
        <mxCell id="rRvaKYYl_HqWxL7n8L-S-56" value="" style="shape=partialRectangle;html=1;whiteSpace=wrap;connectable=0;overflow=hidden;fillColor=none;top=0;left=0;bottom=0;right=0;pointerEvents=1;rounded=0;shadow=0;sketch=0;fontSize=11;strokeWidth=1;fontColor=#ffffff;strokeColor=#2D7600;" vertex="1" parent="rRvaKYYl_HqWxL7n8L-S-53">
          <mxGeometry x="76" width="39" height="36" as="geometry">
            <mxRectangle width="39" height="36" as="alternateBounds" />
          </mxGeometry>
        </mxCell>
        <mxCell id="rRvaKYYl_HqWxL7n8L-S-57" value="1" style="shape=partialRectangle;html=1;whiteSpace=wrap;connectable=0;overflow=hidden;fillColor=#60a917;top=0;left=0;bottom=0;right=0;pointerEvents=1;rounded=0;shadow=0;sketch=0;fontSize=11;strokeWidth=1;fontColor=#ffffff;strokeColor=#2D7600;" vertex="1" parent="rRvaKYYl_HqWxL7n8L-S-53">
          <mxGeometry x="115" width="41" height="36" as="geometry">
            <mxRectangle width="41" height="36" as="alternateBounds" />
          </mxGeometry>
        </mxCell>
        <mxCell id="rRvaKYYl_HqWxL7n8L-S-58" value="" style="shape=partialRectangle;html=1;whiteSpace=wrap;connectable=0;overflow=hidden;fillColor=none;top=0;left=0;bottom=0;right=0;pointerEvents=1;rounded=0;shadow=0;sketch=0;fontSize=11;strokeWidth=1;" vertex="1" parent="rRvaKYYl_HqWxL7n8L-S-53">
          <mxGeometry x="156" width="35" height="36" as="geometry">
            <mxRectangle width="35" height="36" as="alternateBounds" />
          </mxGeometry>
        </mxCell>
        <mxCell id="rRvaKYYl_HqWxL7n8L-S-59" value="1" style="shape=partialRectangle;html=1;whiteSpace=wrap;connectable=0;overflow=hidden;fillColor=#60a917;top=0;left=0;bottom=0;right=0;pointerEvents=1;rounded=0;shadow=0;sketch=0;fontSize=11;strokeWidth=1;strokeColor=#2D7600;fontColor=#ffffff;" vertex="1" parent="rRvaKYYl_HqWxL7n8L-S-53">
          <mxGeometry x="191" width="37" height="36" as="geometry">
            <mxRectangle width="37" height="36" as="alternateBounds" />
          </mxGeometry>
        </mxCell>
        <mxCell id="rRvaKYYl_HqWxL7n8L-S-60" value="" style="shape=partialRectangle;html=1;whiteSpace=wrap;connectable=0;overflow=hidden;fillColor=none;top=0;left=0;bottom=0;right=0;pointerEvents=1;rounded=0;shadow=0;sketch=0;fontSize=11;strokeWidth=1;strokeColor=#2D7600;fontColor=#ffffff;" vertex="1" parent="rRvaKYYl_HqWxL7n8L-S-53">
          <mxGeometry x="228" width="39" height="36" as="geometry">
            <mxRectangle width="39" height="36" as="alternateBounds" />
          </mxGeometry>
        </mxCell>
        <mxCell id="rRvaKYYl_HqWxL7n8L-S-61" value="" style="shape=tableRow;horizontal=0;startSize=0;swimlaneHead=0;swimlaneBody=0;top=0;left=0;bottom=0;right=0;collapsible=0;dropTarget=0;fillColor=none;points=[[0,0.5],[1,0.5]];portConstraint=eastwest;rounded=0;shadow=0;sketch=0;fontSize=11;strokeWidth=1;" vertex="1" parent="rRvaKYYl_HqWxL7n8L-S-36">
          <mxGeometry y="103" width="267" height="35" as="geometry" />
        </mxCell>
        <mxCell id="rRvaKYYl_HqWxL7n8L-S-62" value="1" style="shape=partialRectangle;html=1;whiteSpace=wrap;connectable=0;overflow=hidden;fillColor=none;top=0;left=0;bottom=0;right=0;pointerEvents=1;rounded=0;shadow=0;sketch=0;fontSize=11;strokeWidth=1;" vertex="1" parent="rRvaKYYl_HqWxL7n8L-S-61">
          <mxGeometry width="39" height="35" as="geometry">
            <mxRectangle width="39" height="35" as="alternateBounds" />
          </mxGeometry>
        </mxCell>
        <mxCell id="rRvaKYYl_HqWxL7n8L-S-63" value="" style="shape=partialRectangle;html=1;whiteSpace=wrap;connectable=0;overflow=hidden;fillColor=none;top=0;left=0;bottom=0;right=0;pointerEvents=1;rounded=0;shadow=0;sketch=0;fontSize=11;strokeWidth=1;" vertex="1" parent="rRvaKYYl_HqWxL7n8L-S-61">
          <mxGeometry x="39" width="37" height="35" as="geometry">
            <mxRectangle width="37" height="35" as="alternateBounds" />
          </mxGeometry>
        </mxCell>
        <mxCell id="rRvaKYYl_HqWxL7n8L-S-64" value="" style="shape=partialRectangle;html=1;whiteSpace=wrap;connectable=0;overflow=hidden;fillColor=none;top=0;left=0;bottom=0;right=0;pointerEvents=1;rounded=0;shadow=0;sketch=0;fontSize=11;strokeWidth=1;" vertex="1" parent="rRvaKYYl_HqWxL7n8L-S-61">
          <mxGeometry x="76" width="39" height="35" as="geometry">
            <mxRectangle width="39" height="35" as="alternateBounds" />
          </mxGeometry>
        </mxCell>
        <mxCell id="rRvaKYYl_HqWxL7n8L-S-65" value="" style="shape=partialRectangle;html=1;whiteSpace=wrap;connectable=0;overflow=hidden;fillColor=none;top=0;left=0;bottom=0;right=0;pointerEvents=1;rounded=0;shadow=0;sketch=0;fontSize=11;strokeWidth=1;" vertex="1" parent="rRvaKYYl_HqWxL7n8L-S-61">
          <mxGeometry x="115" width="41" height="35" as="geometry">
            <mxRectangle width="41" height="35" as="alternateBounds" />
          </mxGeometry>
        </mxCell>
        <mxCell id="rRvaKYYl_HqWxL7n8L-S-66" value="1" style="shape=partialRectangle;html=1;whiteSpace=wrap;connectable=0;overflow=hidden;fillColor=none;top=0;left=0;bottom=0;right=0;pointerEvents=1;rounded=0;shadow=0;sketch=0;fontSize=11;strokeWidth=1;" vertex="1" parent="rRvaKYYl_HqWxL7n8L-S-61">
          <mxGeometry x="156" width="35" height="35" as="geometry">
            <mxRectangle width="35" height="35" as="alternateBounds" />
          </mxGeometry>
        </mxCell>
        <mxCell id="rRvaKYYl_HqWxL7n8L-S-67" value="" style="shape=partialRectangle;html=1;whiteSpace=wrap;connectable=0;overflow=hidden;fillColor=none;top=0;left=0;bottom=0;right=0;pointerEvents=1;rounded=0;shadow=0;sketch=0;fontSize=11;strokeWidth=1;" vertex="1" parent="rRvaKYYl_HqWxL7n8L-S-61">
          <mxGeometry x="191" width="37" height="35" as="geometry">
            <mxRectangle width="37" height="35" as="alternateBounds" />
          </mxGeometry>
        </mxCell>
        <mxCell id="rRvaKYYl_HqWxL7n8L-S-68" value="" style="shape=partialRectangle;html=1;whiteSpace=wrap;connectable=0;overflow=hidden;fillColor=none;top=0;left=0;bottom=0;right=0;pointerEvents=1;rounded=0;shadow=0;sketch=0;fontSize=11;strokeWidth=1;" vertex="1" parent="rRvaKYYl_HqWxL7n8L-S-61">
          <mxGeometry x="228" width="39" height="35" as="geometry">
            <mxRectangle width="39" height="35" as="alternateBounds" />
          </mxGeometry>
        </mxCell>
        <mxCell id="rRvaKYYl_HqWxL7n8L-S-69" value="" style="shape=tableRow;horizontal=0;startSize=0;swimlaneHead=0;swimlaneBody=0;top=0;left=0;bottom=0;right=0;collapsible=0;dropTarget=0;fillColor=none;points=[[0,0.5],[1,0.5]];portConstraint=eastwest;rounded=0;shadow=0;sketch=0;fontSize=11;strokeWidth=1;" vertex="1" parent="rRvaKYYl_HqWxL7n8L-S-36">
          <mxGeometry y="138" width="267" height="36" as="geometry" />
        </mxCell>
        <mxCell id="rRvaKYYl_HqWxL7n8L-S-70" value="" style="shape=partialRectangle;html=1;whiteSpace=wrap;connectable=0;overflow=hidden;fillColor=none;top=0;left=0;bottom=0;right=0;pointerEvents=1;rounded=0;shadow=0;sketch=0;fontSize=11;strokeWidth=1;" vertex="1" parent="rRvaKYYl_HqWxL7n8L-S-69">
          <mxGeometry width="39" height="36" as="geometry">
            <mxRectangle width="39" height="36" as="alternateBounds" />
          </mxGeometry>
        </mxCell>
        <mxCell id="rRvaKYYl_HqWxL7n8L-S-71" value="1" style="shape=partialRectangle;html=1;whiteSpace=wrap;connectable=0;overflow=hidden;fillColor=none;top=0;left=0;bottom=0;right=0;pointerEvents=1;rounded=0;shadow=0;sketch=0;fontSize=11;strokeWidth=1;" vertex="1" parent="rRvaKYYl_HqWxL7n8L-S-69">
          <mxGeometry x="39" width="37" height="36" as="geometry">
            <mxRectangle width="37" height="36" as="alternateBounds" />
          </mxGeometry>
        </mxCell>
        <mxCell id="rRvaKYYl_HqWxL7n8L-S-72" value="" style="shape=partialRectangle;html=1;whiteSpace=wrap;connectable=0;overflow=hidden;fillColor=none;top=0;left=0;bottom=0;right=0;pointerEvents=1;rounded=0;shadow=0;sketch=0;fontSize=11;strokeWidth=1;" vertex="1" parent="rRvaKYYl_HqWxL7n8L-S-69">
          <mxGeometry x="76" width="39" height="36" as="geometry">
            <mxRectangle width="39" height="36" as="alternateBounds" />
          </mxGeometry>
        </mxCell>
        <mxCell id="rRvaKYYl_HqWxL7n8L-S-73" value="" style="shape=partialRectangle;html=1;whiteSpace=wrap;connectable=0;overflow=hidden;fillColor=none;top=0;left=0;bottom=0;right=0;pointerEvents=1;rounded=0;shadow=0;sketch=0;fontSize=11;strokeWidth=1;" vertex="1" parent="rRvaKYYl_HqWxL7n8L-S-69">
          <mxGeometry x="115" width="41" height="36" as="geometry">
            <mxRectangle width="41" height="36" as="alternateBounds" />
          </mxGeometry>
        </mxCell>
        <mxCell id="rRvaKYYl_HqWxL7n8L-S-74" value="1" style="shape=partialRectangle;html=1;whiteSpace=wrap;connectable=0;overflow=hidden;fillColor=none;top=0;left=0;bottom=0;right=0;pointerEvents=1;rounded=0;shadow=0;sketch=0;fontSize=11;strokeWidth=1;" vertex="1" parent="rRvaKYYl_HqWxL7n8L-S-69">
          <mxGeometry x="156" width="35" height="36" as="geometry">
            <mxRectangle width="35" height="36" as="alternateBounds" />
          </mxGeometry>
        </mxCell>
        <mxCell id="rRvaKYYl_HqWxL7n8L-S-75" value="" style="shape=partialRectangle;html=1;whiteSpace=wrap;connectable=0;overflow=hidden;fillColor=none;top=0;left=0;bottom=0;right=0;pointerEvents=1;rounded=0;shadow=0;sketch=0;fontSize=11;strokeWidth=1;" vertex="1" parent="rRvaKYYl_HqWxL7n8L-S-69">
          <mxGeometry x="191" width="37" height="36" as="geometry">
            <mxRectangle width="37" height="36" as="alternateBounds" />
          </mxGeometry>
        </mxCell>
        <mxCell id="rRvaKYYl_HqWxL7n8L-S-76" value="1" style="shape=partialRectangle;html=1;whiteSpace=wrap;connectable=0;overflow=hidden;fillColor=none;top=0;left=0;bottom=0;right=0;pointerEvents=1;rounded=0;shadow=0;sketch=0;fontSize=11;strokeWidth=1;" vertex="1" parent="rRvaKYYl_HqWxL7n8L-S-69">
          <mxGeometry x="228" width="39" height="36" as="geometry">
            <mxRectangle width="39" height="36" as="alternateBounds" />
          </mxGeometry>
        </mxCell>
        <mxCell id="rRvaKYYl_HqWxL7n8L-S-77" value="&lt;b&gt;&lt;font style=&quot;font-size: 14px&quot;&gt;Drugs&lt;/font&gt;&lt;/b&gt;" style="text;html=1;align=center;verticalAlign=middle;resizable=0;points=[];autosize=1;strokeColor=none;fillColor=none;fontSize=11;" vertex="1" parent="1">
          <mxGeometry x="775" y="-118" width="50" height="17" as="geometry" />
        </mxCell>
        <mxCell id="rRvaKYYl_HqWxL7n8L-S-78" value="&lt;b&gt;&lt;font style=&quot;font-size: 16px&quot;&gt;Diseases&lt;/font&gt;&lt;/b&gt;" style="text;html=1;align=center;verticalAlign=middle;resizable=0;points=[];autosize=1;strokeColor=none;fillColor=none;fontSize=11;" vertex="1" parent="1">
          <mxGeometry x="925" y="-189" width="79" height="19" as="geometry" />
        </mxCell>
        <mxCell id="rRvaKYYl_HqWxL7n8L-S-79" value="&lt;span lang=&quot;EN-US&quot;&gt;&lt;font&gt;&lt;b&gt;&lt;font style=&quot;font-size: 16px&quot;&gt;Drug-Disease&amp;nbsp;Associations Matrix&lt;/font&gt;&lt;/b&gt;&lt;br&gt;&lt;/font&gt;&lt;/span&gt;" style="text;html=1;align=center;verticalAlign=middle;resizable=0;points=[];autosize=1;strokeColor=none;fillColor=none;fontSize=11;" vertex="1" parent="1">
          <mxGeometry x="824" y="30" width="268" height="19" as="geometry" />
        </mxCell>
        <mxCell id="rRvaKYYl_HqWxL7n8L-S-80" value="" style="ellipse;whiteSpace=wrap;html=1;aspect=fixed;rounded=0;sketch=0;strokeWidth=1;fillColor=#dae8fc;strokeColor=#6c8ebf;gradientColor=#7ea6e0;" vertex="1" parent="1">
          <mxGeometry x="1198" y="-125" width="25" height="25" as="geometry" />
        </mxCell>
        <mxCell id="rRvaKYYl_HqWxL7n8L-S-81" value="" style="ellipse;whiteSpace=wrap;html=1;aspect=fixed;rounded=0;sketch=0;strokeWidth=1;fillColor=#fff2cc;strokeColor=#d6b656;gradientColor=#ffd966;" vertex="1" parent="1">
          <mxGeometry x="1267" y="-125" width="25" height="25" as="geometry" />
        </mxCell>
        <mxCell id="rRvaKYYl_HqWxL7n8L-S-82" value="" style="ellipse;whiteSpace=wrap;html=1;aspect=fixed;rounded=0;sketch=0;strokeWidth=1;fillColor=#dae8fc;strokeColor=#6c8ebf;gradientColor=#7ea6e0;" vertex="1" parent="1">
          <mxGeometry x="1198" y="-82" width="25" height="25" as="geometry" />
        </mxCell>
        <mxCell id="rRvaKYYl_HqWxL7n8L-S-83" value="" style="ellipse;whiteSpace=wrap;html=1;aspect=fixed;rounded=0;sketch=0;strokeWidth=1;fillColor=#dae8fc;strokeColor=#6c8ebf;gradientColor=#7ea6e0;" vertex="1" parent="1">
          <mxGeometry x="1198" y="-36" width="25" height="25" as="geometry" />
        </mxCell>
        <mxCell id="rRvaKYYl_HqWxL7n8L-S-84" value="" style="ellipse;whiteSpace=wrap;html=1;aspect=fixed;rounded=0;sketch=0;strokeWidth=1;fillColor=#fff2cc;strokeColor=#d6b656;gradientColor=#ffd966;" vertex="1" parent="1">
          <mxGeometry x="1267" y="-36" width="25" height="25" as="geometry" />
        </mxCell>
        <mxCell id="rRvaKYYl_HqWxL7n8L-S-85" value="" style="ellipse;whiteSpace=wrap;html=1;aspect=fixed;rounded=0;sketch=0;strokeWidth=1;fillColor=#fff2cc;strokeColor=#d6b656;gradientColor=#ffd966;" vertex="1" parent="1">
          <mxGeometry x="1267" y="-82" width="25" height="25" as="geometry" />
        </mxCell>
        <mxCell id="rRvaKYYl_HqWxL7n8L-S-86" value="&lt;font color=&quot;#000000&quot;&gt;&lt;b&gt;u&lt;/b&gt;&lt;/font&gt;" style="text;html=1;align=center;verticalAlign=middle;resizable=0;points=[];autosize=1;strokeColor=none;fillColor=none;fontSize=12;fontColor=#FF0000;" vertex="1" parent="1">
          <mxGeometry x="1175" y="-78.5" width="17" height="18" as="geometry" />
        </mxCell>
        <mxCell id="rRvaKYYl_HqWxL7n8L-S-87" value="&lt;font color=&quot;#000000&quot;&gt;&lt;b&gt;v&lt;/b&gt;&lt;/font&gt;" style="text;html=1;align=center;verticalAlign=middle;resizable=0;points=[];autosize=1;strokeColor=none;fillColor=none;fontSize=12;fontColor=#FF0000;" vertex="1" parent="1">
          <mxGeometry x="1301.5" y="-78.5" width="16" height="18" as="geometry" />
        </mxCell>
        <mxCell id="rRvaKYYl_HqWxL7n8L-S-88" value="&lt;b&gt;&lt;font style=&quot;font-size: 14px&quot;&gt;Drugs&lt;/font&gt;&lt;/b&gt;" style="text;html=1;align=center;verticalAlign=middle;resizable=0;points=[];autosize=1;strokeColor=none;fillColor=none;fontSize=11;" vertex="1" parent="1">
          <mxGeometry x="1186.5" y="-156" width="50" height="17" as="geometry" />
        </mxCell>
        <mxCell id="rRvaKYYl_HqWxL7n8L-S-89" value="&lt;b&gt;&lt;font style=&quot;font-size: 14px&quot;&gt;Diseases&lt;/font&gt;&lt;/b&gt;" style="text;html=1;align=center;verticalAlign=middle;resizable=0;points=[];autosize=1;strokeColor=none;fillColor=none;fontSize=11;" vertex="1" parent="1">
          <mxGeometry x="1250" y="-156" width="71" height="17" as="geometry" />
        </mxCell>
        <mxCell id="rRvaKYYl_HqWxL7n8L-S-90" value="" style="endArrow=none;html=1;rounded=1;labelBackgroundColor=none;sketch=0;fontSize=12;fontColor=#000000;strokeColor=#000000;strokeWidth=1;curved=0;exitX=0;exitY=0.5;exitDx=0;exitDy=0;entryX=1;entryY=0.5;entryDx=0;entryDy=0;" edge="1" parent="1" source="rRvaKYYl_HqWxL7n8L-S-84" target="rRvaKYYl_HqWxL7n8L-S-83">
          <mxGeometry width="50" height="50" relative="1" as="geometry">
            <mxPoint x="1296.5" y="-59.5" as="sourcePoint" />
            <mxPoint x="1243" y="-60" as="targetPoint" />
          </mxGeometry>
        </mxCell>
        <mxCell id="rRvaKYYl_HqWxL7n8L-S-91" value="" style="endArrow=none;html=1;rounded=1;labelBackgroundColor=none;sketch=0;fontSize=12;fontColor=#000000;strokeColor=#000000;strokeWidth=1;curved=0;exitX=0;exitY=0.5;exitDx=0;exitDy=0;entryX=1;entryY=0.5;entryDx=0;entryDy=0;" edge="1" parent="1" source="rRvaKYYl_HqWxL7n8L-S-81" target="rRvaKYYl_HqWxL7n8L-S-82">
          <mxGeometry width="50" height="50" relative="1" as="geometry">
            <mxPoint x="1277.0000000000084" y="-13.5" as="sourcePoint" />
            <mxPoint x="1232.9999999999916" y="-13.5" as="targetPoint" />
          </mxGeometry>
        </mxCell>
        <mxCell id="rRvaKYYl_HqWxL7n8L-S-92" value="" style="endArrow=none;html=1;rounded=1;labelBackgroundColor=none;sketch=0;fontSize=12;fontColor=#000000;strokeColor=#000000;strokeWidth=1;curved=0;exitX=0;exitY=0.5;exitDx=0;exitDy=0;entryX=1;entryY=0.5;entryDx=0;entryDy=0;" edge="1" parent="1" source="rRvaKYYl_HqWxL7n8L-S-84" target="rRvaKYYl_HqWxL7n8L-S-82">
          <mxGeometry width="50" height="50" relative="1" as="geometry">
            <mxPoint x="1277" y="-102.5" as="sourcePoint" />
            <mxPoint x="1233" y="-59.5" as="targetPoint" />
          </mxGeometry>
        </mxCell>
        <mxCell id="rRvaKYYl_HqWxL7n8L-S-93" value="" style="endArrow=none;html=1;rounded=1;labelBackgroundColor=none;sketch=0;fontSize=12;fontColor=#000000;strokeColor=#000000;strokeWidth=1;curved=0;exitX=0;exitY=0.5;exitDx=0;exitDy=0;entryX=1;entryY=0.5;entryDx=0;entryDy=0;" edge="1" parent="1" source="rRvaKYYl_HqWxL7n8L-S-81" target="rRvaKYYl_HqWxL7n8L-S-80">
          <mxGeometry width="50" height="50" relative="1" as="geometry">
            <mxPoint x="1277.0000000000027" y="-102.5" as="sourcePoint" />
            <mxPoint x="1232.9999999999973" y="-59.5" as="targetPoint" />
          </mxGeometry>
        </mxCell>
        <mxCell id="rRvaKYYl_HqWxL7n8L-S-94" value="" style="endArrow=none;html=1;rounded=1;labelBackgroundColor=none;sketch=0;fontSize=12;fontColor=#000000;strokeColor=#000000;strokeWidth=1;curved=0;exitX=0;exitY=0.5;exitDx=0;exitDy=0;entryX=1;entryY=0.5;entryDx=0;entryDy=0;" edge="1" parent="1" source="rRvaKYYl_HqWxL7n8L-S-85" target="rRvaKYYl_HqWxL7n8L-S-80">
          <mxGeometry width="50" height="50" relative="1" as="geometry">
            <mxPoint x="1276.9999999999832" y="-102.5" as="sourcePoint" />
            <mxPoint x="1232.9999999999975" y="-102.5" as="targetPoint" />
          </mxGeometry>
        </mxCell>
        <mxCell id="rRvaKYYl_HqWxL7n8L-S-95" value="" style="endArrow=none;html=1;rounded=1;labelBackgroundColor=none;sketch=0;fontSize=12;fontColor=#000000;strokeColor=#000000;strokeWidth=1;curved=0;exitX=0;exitY=0.5;exitDx=0;exitDy=0;" edge="1" parent="1" source="rRvaKYYl_HqWxL7n8L-S-85">
          <mxGeometry width="50" height="50" relative="1" as="geometry">
            <mxPoint x="1276.9999999999832" y="-13.5" as="sourcePoint" />
            <mxPoint x="1223" y="-23" as="targetPoint" />
          </mxGeometry>
        </mxCell>
        <mxCell id="rRvaKYYl_HqWxL7n8L-S-99" value="" style="shape=flexArrow;endArrow=classic;html=1;rounded=1;labelBackgroundColor=none;sketch=0;fontSize=9;fontColor=#FF0000;strokeColor=none;strokeWidth=1;curved=0;fillColor=#858585;gradientColor=#ffffff;endWidth=16.380952380952383;endSize=5.051428571428572;width=13.142857142857142;gradientDirection=north;" edge="1" parent="1">
          <mxGeometry width="50" height="50" relative="1" as="geometry">
            <mxPoint x="757" y="-77.5" as="sourcePoint" />
            <mxPoint x="812" y="-78.5" as="targetPoint" />
          </mxGeometry>
        </mxCell>
        <mxCell id="rRvaKYYl_HqWxL7n8L-S-100" value="&lt;b&gt;&lt;font style=&quot;font-size: 16px&quot;&gt;&lt;font color=&quot;#000000&quot;&gt;1-hop&amp;nbsp;&lt;/font&gt;&lt;span style=&quot;color: rgb(0 , 0 , 0)&quot;&gt;Neighborhood Subgraph of &lt;br&gt;Node-Pair Extraction&lt;/span&gt;&lt;/font&gt;&lt;/b&gt;&lt;font color=&quot;#000000&quot;&gt;&lt;br&gt;&lt;/font&gt;" style="text;html=1;align=center;verticalAlign=middle;resizable=0;points=[];autosize=1;strokeColor=none;fillColor=none;fontSize=9;fontColor=#FF0000;" vertex="1" parent="1">
          <mxGeometry x="1120" y="11" width="266" height="28" as="geometry" />
        </mxCell>
        <mxCell id="rRvaKYYl_HqWxL7n8L-S-101" value="" style="shape=flexArrow;endArrow=classic;html=1;rounded=1;labelBackgroundColor=none;sketch=0;fontSize=9;fontColor=#FF0000;strokeColor=none;strokeWidth=1;curved=0;fillColor=#858585;gradientColor=#ffffff;endWidth=16.380952380952383;endSize=5.576470588235295;width=10.588235294117647;gradientDirection=north;" edge="1" parent="1">
          <mxGeometry width="50" height="50" relative="1" as="geometry">
            <mxPoint x="1120" y="-69" as="sourcePoint" />
            <mxPoint x="1175" y="-70" as="targetPoint" />
          </mxGeometry>
        </mxCell>
        <mxCell id="rRvaKYYl_HqWxL7n8L-S-106" value="" style="endArrow=none;html=1;rounded=0;exitX=1;exitY=0.5;exitDx=0;exitDy=0;entryX=0;entryY=0.5;entryDx=0;entryDy=0;strokeColor=#FF0000;" edge="1" parent="1" source="rRvaKYYl_HqWxL7n8L-S-82" target="rRvaKYYl_HqWxL7n8L-S-85">
          <mxGeometry width="50" height="50" relative="1" as="geometry">
            <mxPoint x="1070" y="-91" as="sourcePoint" />
            <mxPoint x="1120" y="-141" as="targetPoint" />
          </mxGeometry>
        </mxCell>
        <mxCell id="II4349LH6-apqSPDigs--1" value="" style="ellipse;whiteSpace=wrap;html=1;aspect=fixed;rounded=0;sketch=0;strokeWidth=1;fillColor=#dae8fc;strokeColor=#6c8ebf;gradientColor=#7ea6e0;" vertex="1" parent="1">
          <mxGeometry x="1500" y="-224.5" width="25" height="25" as="geometry" />
        </mxCell>
        <mxCell id="II4349LH6-apqSPDigs--2" value="" style="ellipse;whiteSpace=wrap;html=1;aspect=fixed;rounded=0;sketch=0;strokeWidth=1;fillColor=#fff2cc;strokeColor=#d6b656;gradientColor=#ffd966;" vertex="1" parent="1">
          <mxGeometry x="1569" y="-224.5" width="25" height="25" as="geometry" />
        </mxCell>
        <mxCell id="II4349LH6-apqSPDigs--3" value="" style="ellipse;whiteSpace=wrap;html=1;aspect=fixed;rounded=0;sketch=0;strokeWidth=1;fillColor=#dae8fc;strokeColor=#6c8ebf;gradientColor=#7ea6e0;" vertex="1" parent="1">
          <mxGeometry x="1500" y="-181.5" width="25" height="25" as="geometry" />
        </mxCell>
        <mxCell id="II4349LH6-apqSPDigs--4" value="" style="ellipse;whiteSpace=wrap;html=1;aspect=fixed;rounded=0;sketch=0;strokeWidth=1;fillColor=#dae8fc;strokeColor=#6c8ebf;gradientColor=#7ea6e0;" vertex="1" parent="1">
          <mxGeometry x="1500" y="-135.5" width="25" height="25" as="geometry" />
        </mxCell>
        <mxCell id="II4349LH6-apqSPDigs--5" value="" style="ellipse;whiteSpace=wrap;html=1;aspect=fixed;rounded=0;sketch=0;strokeWidth=1;fillColor=#fff2cc;strokeColor=#d6b656;gradientColor=#ffd966;" vertex="1" parent="1">
          <mxGeometry x="1569" y="-135.5" width="25" height="25" as="geometry" />
        </mxCell>
        <mxCell id="II4349LH6-apqSPDigs--6" value="" style="ellipse;whiteSpace=wrap;html=1;aspect=fixed;rounded=0;sketch=0;strokeWidth=1;fillColor=#fff2cc;strokeColor=#d6b656;gradientColor=#ffd966;" vertex="1" parent="1">
          <mxGeometry x="1569" y="-181.5" width="25" height="25" as="geometry" />
        </mxCell>
        <mxCell id="II4349LH6-apqSPDigs--7" value="&lt;font color=&quot;#000000&quot;&gt;&lt;b&gt;u&lt;/b&gt;&lt;/font&gt;" style="text;html=1;align=center;verticalAlign=middle;resizable=0;points=[];autosize=1;strokeColor=none;fillColor=none;fontSize=12;fontColor=#FF0000;" vertex="1" parent="1">
          <mxGeometry x="1477" y="-178" width="17" height="18" as="geometry" />
        </mxCell>
        <mxCell id="II4349LH6-apqSPDigs--8" value="&lt;font color=&quot;#000000&quot;&gt;&lt;b&gt;v&lt;/b&gt;&lt;/font&gt;" style="text;html=1;align=center;verticalAlign=middle;resizable=0;points=[];autosize=1;strokeColor=none;fillColor=none;fontSize=12;fontColor=#FF0000;" vertex="1" parent="1">
          <mxGeometry x="1603.5" y="-178" width="16" height="18" as="geometry" />
        </mxCell>
        <mxCell id="II4349LH6-apqSPDigs--9" value="&lt;b&gt;&lt;font style=&quot;font-size: 14px&quot;&gt;Drugs&lt;/font&gt;&lt;/b&gt;" style="text;html=1;align=center;verticalAlign=middle;resizable=0;points=[];autosize=1;strokeColor=none;fillColor=none;fontSize=11;" vertex="1" parent="1">
          <mxGeometry x="1488.5" y="-255.5" width="50" height="17" as="geometry" />
        </mxCell>
        <mxCell id="II4349LH6-apqSPDigs--10" value="&lt;b&gt;&lt;font style=&quot;font-size: 14px&quot;&gt;Diseases&lt;/font&gt;&lt;/b&gt;" style="text;html=1;align=center;verticalAlign=middle;resizable=0;points=[];autosize=1;strokeColor=none;fillColor=none;fontSize=11;" vertex="1" parent="1">
          <mxGeometry x="1552" y="-255.5" width="71" height="17" as="geometry" />
        </mxCell>
        <mxCell id="II4349LH6-apqSPDigs--11" value="" style="endArrow=none;html=1;rounded=1;labelBackgroundColor=none;sketch=0;fontSize=12;fontColor=#000000;strokeColor=#000000;strokeWidth=1;curved=0;exitX=0;exitY=0.5;exitDx=0;exitDy=0;entryX=1;entryY=0.5;entryDx=0;entryDy=0;" edge="1" parent="1" source="II4349LH6-apqSPDigs--5" target="II4349LH6-apqSPDigs--4">
          <mxGeometry width="50" height="50" relative="1" as="geometry">
            <mxPoint x="1598.5" y="-159" as="sourcePoint" />
            <mxPoint x="1545" y="-159.5" as="targetPoint" />
          </mxGeometry>
        </mxCell>
        <mxCell id="II4349LH6-apqSPDigs--12" value="" style="endArrow=none;html=1;rounded=1;labelBackgroundColor=none;sketch=0;fontSize=12;fontColor=#000000;strokeColor=#000000;strokeWidth=1;curved=0;exitX=0;exitY=0.5;exitDx=0;exitDy=0;entryX=1;entryY=0.5;entryDx=0;entryDy=0;" edge="1" parent="1" source="II4349LH6-apqSPDigs--2" target="II4349LH6-apqSPDigs--3">
          <mxGeometry width="50" height="50" relative="1" as="geometry">
            <mxPoint x="1579.0000000000084" y="-113" as="sourcePoint" />
            <mxPoint x="1534.9999999999916" y="-113" as="targetPoint" />
          </mxGeometry>
        </mxCell>
        <mxCell id="II4349LH6-apqSPDigs--13" value="" style="endArrow=none;html=1;rounded=1;labelBackgroundColor=none;sketch=0;fontSize=12;fontColor=#000000;strokeColor=#000000;strokeWidth=1;curved=0;exitX=0;exitY=0.5;exitDx=0;exitDy=0;entryX=1;entryY=0.5;entryDx=0;entryDy=0;" edge="1" parent="1" source="II4349LH6-apqSPDigs--5" target="II4349LH6-apqSPDigs--3">
          <mxGeometry width="50" height="50" relative="1" as="geometry">
            <mxPoint x="1579" y="-202" as="sourcePoint" />
            <mxPoint x="1535" y="-159" as="targetPoint" />
          </mxGeometry>
        </mxCell>
        <mxCell id="II4349LH6-apqSPDigs--14" value="" style="endArrow=none;html=1;rounded=1;labelBackgroundColor=none;sketch=0;fontSize=12;fontColor=#000000;strokeColor=#000000;strokeWidth=1;curved=0;exitX=0;exitY=0.5;exitDx=0;exitDy=0;entryX=1;entryY=0.5;entryDx=0;entryDy=0;" edge="1" parent="1" source="II4349LH6-apqSPDigs--2" target="II4349LH6-apqSPDigs--1">
          <mxGeometry width="50" height="50" relative="1" as="geometry">
            <mxPoint x="1579.0000000000027" y="-202" as="sourcePoint" />
            <mxPoint x="1534.9999999999973" y="-159" as="targetPoint" />
          </mxGeometry>
        </mxCell>
        <mxCell id="II4349LH6-apqSPDigs--15" value="" style="endArrow=none;html=1;rounded=1;labelBackgroundColor=none;sketch=0;fontSize=12;fontColor=#000000;strokeColor=#000000;strokeWidth=1;curved=0;exitX=0;exitY=0.5;exitDx=0;exitDy=0;entryX=1;entryY=0.5;entryDx=0;entryDy=0;" edge="1" parent="1" source="II4349LH6-apqSPDigs--6" target="II4349LH6-apqSPDigs--1">
          <mxGeometry width="50" height="50" relative="1" as="geometry">
            <mxPoint x="1578.9999999999832" y="-202" as="sourcePoint" />
            <mxPoint x="1534.9999999999975" y="-202" as="targetPoint" />
          </mxGeometry>
        </mxCell>
        <mxCell id="II4349LH6-apqSPDigs--16" value="" style="endArrow=none;html=1;rounded=1;labelBackgroundColor=none;sketch=0;fontSize=12;fontColor=#000000;strokeColor=#000000;strokeWidth=1;curved=0;exitX=0;exitY=0.5;exitDx=0;exitDy=0;" edge="1" parent="1" source="II4349LH6-apqSPDigs--6">
          <mxGeometry width="50" height="50" relative="1" as="geometry">
            <mxPoint x="1578.9999999999832" y="-113" as="sourcePoint" />
            <mxPoint x="1525" y="-122.5" as="targetPoint" />
          </mxGeometry>
        </mxCell>
        <mxCell id="II4349LH6-apqSPDigs--17" value="" style="endArrow=none;dashed=1;html=1;rounded=1;labelBackgroundColor=none;sketch=0;fontSize=9;fontColor=#FF0000;strokeColor=#FF0000;strokeWidth=1;curved=0;entryX=1;entryY=0.5;entryDx=0;entryDy=0;" edge="1" parent="1" source="II4349LH6-apqSPDigs--19" target="II4349LH6-apqSPDigs--3">
          <mxGeometry width="50" height="50" relative="1" as="geometry">
            <mxPoint x="1541.805" y="-168.84349999999995" as="sourcePoint" />
            <mxPoint x="1631" y="-212.5" as="targetPoint" />
          </mxGeometry>
        </mxCell>
        <mxCell id="II4349LH6-apqSPDigs--18" value="" style="endArrow=none;dashed=1;html=1;rounded=1;labelBackgroundColor=none;sketch=0;fontSize=9;fontColor=#FF0000;strokeColor=#FF0000;strokeWidth=1;curved=0;entryX=0.973;entryY=0.6;entryDx=0;entryDy=0;exitX=0;exitY=0.5;exitDx=0;exitDy=0;entryPerimeter=0;" edge="1" parent="1" source="II4349LH6-apqSPDigs--6">
          <mxGeometry width="50" height="50" relative="1" as="geometry">
            <mxPoint x="1551.805" y="-158.84350000000006" as="sourcePoint" />
            <mxPoint x="1554.6490000000003" y="-168.80000000000018" as="targetPoint" />
          </mxGeometry>
        </mxCell>
        <mxCell id="II4349LH6-apqSPDigs--19" value="？" style="text;html=1;align=center;verticalAlign=middle;resizable=0;points=[];autosize=1;strokeColor=none;fillColor=none;fontSize=9;fontColor=#FF0000;" vertex="1" parent="1">
          <mxGeometry x="1539" y="-176.5" width="22" height="15" as="geometry" />
        </mxCell>
        <mxCell id="II4349LH6-apqSPDigs--20" value="&lt;b&gt;&lt;font style=&quot;font-size: 16px&quot;&gt;&lt;font color=&quot;#000000&quot;&gt;1-hop&amp;nbsp;&lt;/font&gt;&lt;span style=&quot;color: rgb(0 , 0 , 0)&quot;&gt;Neighborhood Subgraph of &lt;br&gt;Node-Pair Extraction&lt;/span&gt;&lt;/font&gt;&lt;/b&gt;&lt;font color=&quot;#000000&quot;&gt;&lt;br&gt;&lt;/font&gt;" style="text;html=1;align=center;verticalAlign=middle;resizable=0;points=[];autosize=1;strokeColor=none;fillColor=none;fontSize=9;fontColor=#FF0000;" vertex="1" parent="1">
          <mxGeometry x="1422" y="-88.5" width="266" height="28" as="geometry" />
        </mxCell>
        <mxCell id="II4349LH6-apqSPDigs--21" value="" style="shape=flexArrow;endArrow=classic;html=1;rounded=1;labelBackgroundColor=none;sketch=0;fontSize=9;fontColor=#FF0000;strokeColor=none;strokeWidth=1;curved=0;fillColor=#858585;gradientColor=#ffffff;endWidth=16.380952380952383;endSize=5.576470588235295;width=10.588235294117647;gradientDirection=north;" edge="1" parent="1">
          <mxGeometry width="50" height="50" relative="1" as="geometry">
            <mxPoint x="1422" y="-168.5" as="sourcePoint" />
            <mxPoint x="1477" y="-169.5" as="targetPoint" />
          </mxGeometry>
        </mxCell>
        <mxCell id="II4349LH6-apqSPDigs--22" value="" style="endArrow=none;html=1;rounded=0;exitX=1;exitY=0.5;exitDx=0;exitDy=0;strokeColor=#FF0000;entryX=0;entryY=0.5;entryDx=0;entryDy=0;" edge="1" parent="1" source="23pJZIWyzSni5zogjpeQ-81" target="23pJZIWyzSni5zogjpeQ-84">
          <mxGeometry width="50" height="50" relative="1" as="geometry">
            <mxPoint x="1277" y="-409" as="sourcePoint" />
            <mxPoint x="1317" y="-409" as="targetPoint" />
          </mxGeometry>
        </mxCell>
      </root>
    </mxGraphModel>
  </diagram>
  <diagram id="qw3JtPUCDlyNYamGuqfe" name="第 3 页">
    <mxGraphModel dx="720" dy="1070" grid="0" gridSize="10" guides="1" tooltips="1" connect="1" arrows="1" fold="1" page="0" pageScale="1" pageWidth="1169" pageHeight="827" math="0" shadow="0">
      <root>
        <mxCell id="0" />
        <mxCell id="1" parent="0" />
        <mxCell id="HVZsB7m7buRWevIK5m7f-1" value="&lt;p class=&quot;MsoNormal&quot; style=&quot;margin-top: 6.0pt ; line-height: 200%&quot;&gt;&lt;b&gt;&lt;span lang=&quot;EN-US&quot; style=&quot;font-size: 11.0pt ; line-height: 200%&quot;&gt;Neighborhood Subgraph Encoder&lt;/span&gt;&lt;/b&gt;&lt;/p&gt;" style="text;html=1;align=center;verticalAlign=middle;resizable=0;points=[];autosize=1;strokeColor=none;fillColor=none;" vertex="1" parent="1">
          <mxGeometry x="572.5" y="-32" width="246" height="53" as="geometry" />
        </mxCell>
        <mxCell id="xJgOJbL_Bns6qG098R1J-1" value="" style="ellipse;whiteSpace=wrap;html=1;aspect=fixed;rounded=0;sketch=0;strokeWidth=1;fillColor=#dae8fc;strokeColor=#6c8ebf;gradientColor=#7ea6e0;" vertex="1" parent="1">
          <mxGeometry x="608" y="161" width="25" height="25" as="geometry" />
        </mxCell>
        <mxCell id="xJgOJbL_Bns6qG098R1J-2" value="" style="ellipse;whiteSpace=wrap;html=1;aspect=fixed;rounded=0;sketch=0;strokeWidth=1;fillColor=#fff2cc;strokeColor=#d6b656;gradientColor=#ffd966;" vertex="1" parent="1">
          <mxGeometry x="677" y="161" width="25" height="25" as="geometry" />
        </mxCell>
        <mxCell id="xJgOJbL_Bns6qG098R1J-3" value="" style="ellipse;whiteSpace=wrap;html=1;aspect=fixed;rounded=0;sketch=0;strokeWidth=1;fillColor=#dae8fc;strokeColor=#6c8ebf;gradientColor=#7ea6e0;" vertex="1" parent="1">
          <mxGeometry x="608" y="204" width="25" height="25" as="geometry" />
        </mxCell>
        <mxCell id="xJgOJbL_Bns6qG098R1J-4" value="" style="ellipse;whiteSpace=wrap;html=1;aspect=fixed;rounded=0;sketch=0;strokeWidth=1;fillColor=#dae8fc;strokeColor=#6c8ebf;gradientColor=#7ea6e0;" vertex="1" parent="1">
          <mxGeometry x="608" y="250" width="25" height="25" as="geometry" />
        </mxCell>
        <mxCell id="xJgOJbL_Bns6qG098R1J-5" value="" style="ellipse;whiteSpace=wrap;html=1;aspect=fixed;rounded=0;sketch=0;strokeWidth=1;fillColor=#fff2cc;strokeColor=#d6b656;gradientColor=#ffd966;" vertex="1" parent="1">
          <mxGeometry x="677" y="250" width="25" height="25" as="geometry" />
        </mxCell>
        <mxCell id="xJgOJbL_Bns6qG098R1J-6" value="" style="ellipse;whiteSpace=wrap;html=1;aspect=fixed;rounded=0;sketch=0;strokeWidth=1;fillColor=#fff2cc;strokeColor=#d6b656;gradientColor=#ffd966;" vertex="1" parent="1">
          <mxGeometry x="677" y="204" width="25" height="25" as="geometry" />
        </mxCell>
        <mxCell id="xJgOJbL_Bns6qG098R1J-7" value="&lt;font color=&quot;#000000&quot;&gt;&lt;b&gt;B&lt;/b&gt;&lt;/font&gt;" style="text;html=1;align=center;verticalAlign=middle;resizable=0;points=[];autosize=1;strokeColor=none;fillColor=none;fontSize=12;fontColor=#FF0000;" vertex="1" parent="1">
          <mxGeometry x="578.5" y="207.5" width="19" height="18" as="geometry" />
        </mxCell>
        <mxCell id="xJgOJbL_Bns6qG098R1J-8" value="&lt;font color=&quot;#000000&quot;&gt;&lt;b&gt;E&lt;/b&gt;&lt;/font&gt;" style="text;html=1;align=center;verticalAlign=middle;resizable=0;points=[];autosize=1;strokeColor=none;fillColor=none;fontSize=12;fontColor=#FF0000;" vertex="1" parent="1">
          <mxGeometry x="709" y="207.5" width="18" height="18" as="geometry" />
        </mxCell>
        <mxCell id="xJgOJbL_Bns6qG098R1J-9" value="&lt;b&gt;&lt;font style=&quot;font-size: 14px&quot;&gt;Drugs&lt;/font&gt;&lt;/b&gt;" style="text;html=1;align=center;verticalAlign=middle;resizable=0;points=[];autosize=1;strokeColor=none;fillColor=none;fontSize=11;" vertex="1" parent="1">
          <mxGeometry x="596.5" y="130" width="50" height="17" as="geometry" />
        </mxCell>
        <mxCell id="xJgOJbL_Bns6qG098R1J-10" value="&lt;b&gt;&lt;font style=&quot;font-size: 14px&quot;&gt;Diseases&lt;/font&gt;&lt;/b&gt;" style="text;html=1;align=center;verticalAlign=middle;resizable=0;points=[];autosize=1;strokeColor=none;fillColor=none;fontSize=11;" vertex="1" parent="1">
          <mxGeometry x="660" y="130" width="71" height="17" as="geometry" />
        </mxCell>
        <mxCell id="xJgOJbL_Bns6qG098R1J-12" value="" style="endArrow=none;html=1;rounded=1;labelBackgroundColor=none;sketch=0;fontSize=12;fontColor=#000000;strokeColor=#000000;strokeWidth=1;curved=0;exitX=0;exitY=0.5;exitDx=0;exitDy=0;entryX=1;entryY=0.5;entryDx=0;entryDy=0;" edge="1" parent="1" source="xJgOJbL_Bns6qG098R1J-2" target="xJgOJbL_Bns6qG098R1J-3">
          <mxGeometry width="50" height="50" relative="1" as="geometry">
            <mxPoint x="687.0000000000084" y="272.5" as="sourcePoint" />
            <mxPoint x="642.9999999999916" y="272.5" as="targetPoint" />
          </mxGeometry>
        </mxCell>
        <mxCell id="xJgOJbL_Bns6qG098R1J-13" value="" style="endArrow=none;html=1;rounded=1;labelBackgroundColor=none;sketch=0;fontSize=12;fontColor=#000000;strokeColor=#000000;strokeWidth=1;curved=0;exitX=0;exitY=0.5;exitDx=0;exitDy=0;entryX=1;entryY=0.5;entryDx=0;entryDy=0;" edge="1" parent="1" source="xJgOJbL_Bns6qG098R1J-5" target="xJgOJbL_Bns6qG098R1J-3">
          <mxGeometry width="50" height="50" relative="1" as="geometry">
            <mxPoint x="687" y="183.5" as="sourcePoint" />
            <mxPoint x="643" y="226.5" as="targetPoint" />
          </mxGeometry>
        </mxCell>
        <mxCell id="xJgOJbL_Bns6qG098R1J-14" value="" style="endArrow=none;html=1;rounded=1;labelBackgroundColor=none;sketch=0;fontSize=12;fontColor=#000000;strokeColor=#000000;strokeWidth=1;curved=0;exitX=0;exitY=0.5;exitDx=0;exitDy=0;entryX=1;entryY=0.5;entryDx=0;entryDy=0;" edge="1" parent="1" source="xJgOJbL_Bns6qG098R1J-2" target="xJgOJbL_Bns6qG098R1J-1">
          <mxGeometry width="50" height="50" relative="1" as="geometry">
            <mxPoint x="687.0000000000027" y="183.5" as="sourcePoint" />
            <mxPoint x="642.9999999999973" y="226.5" as="targetPoint" />
          </mxGeometry>
        </mxCell>
        <mxCell id="xJgOJbL_Bns6qG098R1J-15" value="" style="endArrow=none;html=1;rounded=1;labelBackgroundColor=none;sketch=0;fontSize=12;fontColor=#000000;strokeColor=#000000;strokeWidth=1;curved=0;exitX=0;exitY=0.5;exitDx=0;exitDy=0;entryX=1;entryY=0.5;entryDx=0;entryDy=0;" edge="1" parent="1" source="xJgOJbL_Bns6qG098R1J-6" target="xJgOJbL_Bns6qG098R1J-1">
          <mxGeometry width="50" height="50" relative="1" as="geometry">
            <mxPoint x="686.9999999999832" y="183.5" as="sourcePoint" />
            <mxPoint x="642.9999999999975" y="183.5" as="targetPoint" />
          </mxGeometry>
        </mxCell>
        <mxCell id="xJgOJbL_Bns6qG098R1J-16" value="" style="endArrow=none;html=1;rounded=1;labelBackgroundColor=none;sketch=0;fontSize=12;fontColor=#000000;strokeColor=#000000;strokeWidth=1;curved=0;exitX=0;exitY=0.5;exitDx=0;exitDy=0;" edge="1" parent="1" source="xJgOJbL_Bns6qG098R1J-6">
          <mxGeometry width="50" height="50" relative="1" as="geometry">
            <mxPoint x="686.9999999999832" y="272.5" as="sourcePoint" />
            <mxPoint x="633" y="263" as="targetPoint" />
          </mxGeometry>
        </mxCell>
        <mxCell id="xJgOJbL_Bns6qG098R1J-20" value="&lt;font color=&quot;#000000&quot;&gt;&lt;b&gt;A&lt;/b&gt;&lt;/font&gt;" style="text;html=1;align=center;verticalAlign=middle;resizable=0;points=[];autosize=1;strokeColor=none;fillColor=none;fontSize=12;fontColor=#FF0000;" vertex="1" parent="1">
          <mxGeometry x="578.5" y="164.5" width="19" height="18" as="geometry" />
        </mxCell>
        <mxCell id="xJgOJbL_Bns6qG098R1J-21" value="&lt;font color=&quot;#000000&quot;&gt;&lt;b&gt;C&lt;/b&gt;&lt;/font&gt;" style="text;html=1;align=center;verticalAlign=middle;resizable=0;points=[];autosize=1;strokeColor=none;fillColor=none;fontSize=12;fontColor=#FF0000;" vertex="1" parent="1">
          <mxGeometry x="578.5" y="253.5" width="19" height="18" as="geometry" />
        </mxCell>
        <mxCell id="xJgOJbL_Bns6qG098R1J-22" value="&lt;font color=&quot;#000000&quot;&gt;&lt;b&gt;D&lt;/b&gt;&lt;/font&gt;" style="text;html=1;align=center;verticalAlign=middle;resizable=0;points=[];autosize=1;strokeColor=none;fillColor=none;fontSize=12;fontColor=#FF0000;" vertex="1" parent="1">
          <mxGeometry x="709" y="164.5" width="19" height="18" as="geometry" />
        </mxCell>
        <mxCell id="xJgOJbL_Bns6qG098R1J-23" value="&lt;font color=&quot;#000000&quot;&gt;&lt;b&gt;F&lt;/b&gt;&lt;/font&gt;" style="text;html=1;align=center;verticalAlign=middle;resizable=0;points=[];autosize=1;strokeColor=none;fillColor=none;fontSize=12;fontColor=#FF0000;" vertex="1" parent="1">
          <mxGeometry x="710" y="253.5" width="17" height="18" as="geometry" />
        </mxCell>
        <mxCell id="xJgOJbL_Bns6qG098R1J-25" value="" style="endArrow=none;html=1;rounded=0;exitX=1;exitY=0.5;exitDx=0;exitDy=0;entryX=0;entryY=0.5;entryDx=0;entryDy=0;" edge="1" parent="1" source="xJgOJbL_Bns6qG098R1J-3" target="xJgOJbL_Bns6qG098R1J-6">
          <mxGeometry width="50" height="50" relative="1" as="geometry">
            <mxPoint x="623" y="222" as="sourcePoint" />
            <mxPoint x="673" y="172" as="targetPoint" />
          </mxGeometry>
        </mxCell>
        <mxCell id="xJgOJbL_Bns6qG098R1J-26" value="" style="ellipse;whiteSpace=wrap;html=1;aspect=fixed;rounded=0;sketch=0;strokeWidth=1;fillColor=#dae8fc;strokeColor=#6c8ebf;gradientColor=#7ea6e0;" vertex="1" parent="1">
          <mxGeometry x="894" y="164.5" width="25" height="25" as="geometry" />
        </mxCell>
        <mxCell id="xJgOJbL_Bns6qG098R1J-27" value="" style="ellipse;whiteSpace=wrap;html=1;aspect=fixed;rounded=0;sketch=0;strokeWidth=1;fillColor=#fff2cc;strokeColor=#d6b656;gradientColor=#ffd966;" vertex="1" parent="1">
          <mxGeometry x="949" y="164.5" width="25" height="25" as="geometry" />
        </mxCell>
        <mxCell id="xJgOJbL_Bns6qG098R1J-28" value="" style="ellipse;whiteSpace=wrap;html=1;aspect=fixed;rounded=0;sketch=0;strokeWidth=1;fillColor=#dae8fc;strokeColor=#6c8ebf;gradientColor=#7ea6e0;" vertex="1" parent="1">
          <mxGeometry x="825.5" y="222" width="25" height="25" as="geometry" />
        </mxCell>
        <mxCell id="xJgOJbL_Bns6qG098R1J-29" value="" style="ellipse;whiteSpace=wrap;html=1;aspect=fixed;rounded=0;sketch=0;strokeWidth=1;fillColor=#fff2cc;strokeColor=#d6b656;gradientColor=#ffd966;" vertex="1" parent="1">
          <mxGeometry x="894.5" y="222" width="25" height="25" as="geometry" />
        </mxCell>
        <mxCell id="xJgOJbL_Bns6qG098R1J-30" value="" style="ellipse;whiteSpace=wrap;html=1;aspect=fixed;rounded=0;sketch=0;strokeWidth=1;fillColor=#dae8fc;strokeColor=#6c8ebf;gradientColor=#7ea6e0;" vertex="1" parent="1">
          <mxGeometry x="825.5" y="265" width="25" height="25" as="geometry" />
        </mxCell>
        <mxCell id="xJgOJbL_Bns6qG098R1J-31" value="" style="ellipse;whiteSpace=wrap;html=1;aspect=fixed;rounded=0;sketch=0;strokeWidth=1;fillColor=#dae8fc;strokeColor=#6c8ebf;gradientColor=#7ea6e0;" vertex="1" parent="1">
          <mxGeometry x="825.5" y="311" width="25" height="25" as="geometry" />
        </mxCell>
        <mxCell id="xJgOJbL_Bns6qG098R1J-32" value="" style="ellipse;whiteSpace=wrap;html=1;aspect=fixed;rounded=0;sketch=0;strokeWidth=1;fillColor=#fff2cc;strokeColor=#d6b656;gradientColor=#ffd966;" vertex="1" parent="1">
          <mxGeometry x="894.5" y="311" width="25" height="25" as="geometry" />
        </mxCell>
        <mxCell id="xJgOJbL_Bns6qG098R1J-33" value="" style="ellipse;whiteSpace=wrap;html=1;aspect=fixed;rounded=0;sketch=0;strokeWidth=1;fillColor=#fff2cc;strokeColor=#d6b656;gradientColor=#ffd966;" vertex="1" parent="1">
          <mxGeometry x="894.5" y="265" width="25" height="25" as="geometry" />
        </mxCell>
        <mxCell id="xJgOJbL_Bns6qG098R1J-34" value="&lt;font color=&quot;#000000&quot;&gt;&lt;b&gt;B&lt;/b&gt;&lt;/font&gt;" style="text;html=1;align=center;verticalAlign=middle;resizable=0;points=[];autosize=1;strokeColor=none;fillColor=none;fontSize=12;fontColor=#FF0000;" vertex="1" parent="1">
          <mxGeometry x="796" y="268.5" width="19" height="18" as="geometry" />
        </mxCell>
        <mxCell id="xJgOJbL_Bns6qG098R1J-35" value="&lt;font color=&quot;#000000&quot;&gt;&lt;b&gt;E&lt;/b&gt;&lt;/font&gt;" style="text;html=1;align=center;verticalAlign=middle;resizable=0;points=[];autosize=1;strokeColor=none;fillColor=none;fontSize=12;fontColor=#FF0000;" vertex="1" parent="1">
          <mxGeometry x="926.5" y="268.5" width="18" height="18" as="geometry" />
        </mxCell>
        <mxCell id="xJgOJbL_Bns6qG098R1J-36" value="" style="endArrow=none;html=1;rounded=1;labelBackgroundColor=none;sketch=0;fontSize=12;fontColor=#000000;strokeColor=#000000;strokeWidth=1;curved=0;exitX=0;exitY=0.5;exitDx=0;exitDy=0;entryX=1;entryY=0.5;entryDx=0;entryDy=0;" edge="1" parent="1" source="xJgOJbL_Bns6qG098R1J-29" target="xJgOJbL_Bns6qG098R1J-30">
          <mxGeometry width="50" height="50" relative="1" as="geometry">
            <mxPoint x="904.5000000000084" y="333.5" as="sourcePoint" />
            <mxPoint x="860.4999999999916" y="333.5" as="targetPoint" />
          </mxGeometry>
        </mxCell>
        <mxCell id="xJgOJbL_Bns6qG098R1J-37" value="" style="endArrow=none;html=1;rounded=1;labelBackgroundColor=none;sketch=0;fontSize=12;fontColor=#000000;strokeColor=#000000;strokeWidth=1;curved=0;exitX=0;exitY=0.5;exitDx=0;exitDy=0;entryX=1;entryY=0.5;entryDx=0;entryDy=0;" edge="1" parent="1" source="xJgOJbL_Bns6qG098R1J-32" target="xJgOJbL_Bns6qG098R1J-30">
          <mxGeometry width="50" height="50" relative="1" as="geometry">
            <mxPoint x="904.5" y="244.5" as="sourcePoint" />
            <mxPoint x="860.5" y="287.5" as="targetPoint" />
          </mxGeometry>
        </mxCell>
        <mxCell id="xJgOJbL_Bns6qG098R1J-38" value="" style="endArrow=none;html=1;rounded=1;labelBackgroundColor=none;sketch=0;fontSize=12;fontColor=#000000;strokeColor=#000000;strokeWidth=1;curved=0;exitX=0;exitY=0.5;exitDx=0;exitDy=0;entryX=1;entryY=0.5;entryDx=0;entryDy=0;" edge="1" parent="1" source="xJgOJbL_Bns6qG098R1J-29" target="xJgOJbL_Bns6qG098R1J-28">
          <mxGeometry width="50" height="50" relative="1" as="geometry">
            <mxPoint x="904.5000000000027" y="244.5" as="sourcePoint" />
            <mxPoint x="860.4999999999973" y="287.5" as="targetPoint" />
          </mxGeometry>
        </mxCell>
        <mxCell id="xJgOJbL_Bns6qG098R1J-39" value="" style="endArrow=none;html=1;rounded=1;labelBackgroundColor=none;sketch=0;fontSize=12;fontColor=#000000;strokeColor=#000000;strokeWidth=1;curved=0;exitX=0;exitY=0.5;exitDx=0;exitDy=0;entryX=1;entryY=0.5;entryDx=0;entryDy=0;" edge="1" parent="1" source="xJgOJbL_Bns6qG098R1J-33" target="xJgOJbL_Bns6qG098R1J-28">
          <mxGeometry width="50" height="50" relative="1" as="geometry">
            <mxPoint x="904.4999999999832" y="244.5" as="sourcePoint" />
            <mxPoint x="860.4999999999975" y="244.5" as="targetPoint" />
          </mxGeometry>
        </mxCell>
        <mxCell id="xJgOJbL_Bns6qG098R1J-40" value="" style="endArrow=none;html=1;rounded=1;labelBackgroundColor=none;sketch=0;fontSize=12;fontColor=#000000;strokeColor=#000000;strokeWidth=1;curved=0;exitX=0;exitY=0.5;exitDx=0;exitDy=0;" edge="1" parent="1" source="xJgOJbL_Bns6qG098R1J-33">
          <mxGeometry width="50" height="50" relative="1" as="geometry">
            <mxPoint x="904.4999999999832" y="333.5" as="sourcePoint" />
            <mxPoint x="850.4999999999999" y="324" as="targetPoint" />
          </mxGeometry>
        </mxCell>
        <mxCell id="xJgOJbL_Bns6qG098R1J-41" value="&lt;font color=&quot;#000000&quot;&gt;&lt;b&gt;A&lt;/b&gt;&lt;/font&gt;" style="text;html=1;align=center;verticalAlign=middle;resizable=0;points=[];autosize=1;strokeColor=none;fillColor=none;fontSize=12;fontColor=#FF0000;" vertex="1" parent="1">
          <mxGeometry x="796" y="225.5" width="19" height="18" as="geometry" />
        </mxCell>
        <mxCell id="xJgOJbL_Bns6qG098R1J-42" value="&lt;font color=&quot;#000000&quot;&gt;&lt;b&gt;C&lt;/b&gt;&lt;/font&gt;" style="text;html=1;align=center;verticalAlign=middle;resizable=0;points=[];autosize=1;strokeColor=none;fillColor=none;fontSize=12;fontColor=#FF0000;" vertex="1" parent="1">
          <mxGeometry x="796" y="314.5" width="19" height="18" as="geometry" />
        </mxCell>
        <mxCell id="xJgOJbL_Bns6qG098R1J-43" value="&lt;font color=&quot;#000000&quot;&gt;&lt;b&gt;D&lt;/b&gt;&lt;/font&gt;" style="text;html=1;align=center;verticalAlign=middle;resizable=0;points=[];autosize=1;strokeColor=none;fillColor=none;fontSize=12;fontColor=#FF0000;" vertex="1" parent="1">
          <mxGeometry x="926.5" y="225.5" width="19" height="18" as="geometry" />
        </mxCell>
        <mxCell id="xJgOJbL_Bns6qG098R1J-44" value="&lt;font color=&quot;#000000&quot;&gt;&lt;b&gt;F&lt;/b&gt;&lt;/font&gt;" style="text;html=1;align=center;verticalAlign=middle;resizable=0;points=[];autosize=1;strokeColor=none;fillColor=none;fontSize=12;fontColor=#FF0000;" vertex="1" parent="1">
          <mxGeometry x="927.5" y="314.5" width="17" height="18" as="geometry" />
        </mxCell>
        <mxCell id="xJgOJbL_Bns6qG098R1J-45" value="" style="endArrow=none;html=1;rounded=0;exitX=1;exitY=0.5;exitDx=0;exitDy=0;entryX=0;entryY=0.5;entryDx=0;entryDy=0;" edge="1" parent="1" source="xJgOJbL_Bns6qG098R1J-30" target="xJgOJbL_Bns6qG098R1J-33">
          <mxGeometry width="50" height="50" relative="1" as="geometry">
            <mxPoint x="840.5" y="283" as="sourcePoint" />
            <mxPoint x="890.5" y="233" as="targetPoint" />
          </mxGeometry>
        </mxCell>
        <mxCell id="xJgOJbL_Bns6qG098R1J-47" value="" style="ellipse;whiteSpace=wrap;html=1;aspect=fixed;rounded=0;sketch=0;strokeWidth=1;fillColor=#dae8fc;strokeColor=#6c8ebf;gradientColor=#7ea6e0;" vertex="1" parent="1">
          <mxGeometry x="585.5" y="355" width="25" height="25" as="geometry" />
        </mxCell>
        <mxCell id="xJgOJbL_Bns6qG098R1J-48" value="" style="ellipse;whiteSpace=wrap;html=1;aspect=fixed;rounded=0;sketch=0;strokeWidth=1;fillColor=#fff2cc;strokeColor=#d6b656;gradientColor=#ffd966;" vertex="1" parent="1">
          <mxGeometry x="654.5" y="355" width="25" height="25" as="geometry" />
        </mxCell>
        <mxCell id="xJgOJbL_Bns6qG098R1J-49" value="" style="ellipse;whiteSpace=wrap;html=1;aspect=fixed;rounded=0;sketch=0;strokeWidth=1;fillColor=#dae8fc;strokeColor=#6c8ebf;gradientColor=#7ea6e0;" vertex="1" parent="1">
          <mxGeometry x="585.5" y="398" width="25" height="25" as="geometry" />
        </mxCell>
        <mxCell id="xJgOJbL_Bns6qG098R1J-50" value="" style="ellipse;whiteSpace=wrap;html=1;aspect=fixed;rounded=0;sketch=0;strokeWidth=1;fillColor=#dae8fc;strokeColor=#6c8ebf;gradientColor=#7ea6e0;" vertex="1" parent="1">
          <mxGeometry x="585.5" y="444" width="25" height="25" as="geometry" />
        </mxCell>
        <mxCell id="xJgOJbL_Bns6qG098R1J-51" value="" style="ellipse;whiteSpace=wrap;html=1;aspect=fixed;rounded=0;sketch=0;strokeWidth=1;fillColor=#fff2cc;strokeColor=#d6b656;gradientColor=#ffd966;" vertex="1" parent="1">
          <mxGeometry x="654.5" y="444" width="25" height="25" as="geometry" />
        </mxCell>
        <mxCell id="xJgOJbL_Bns6qG098R1J-52" value="" style="ellipse;whiteSpace=wrap;html=1;aspect=fixed;rounded=0;sketch=0;strokeWidth=1;fillColor=#fff2cc;strokeColor=#d6b656;gradientColor=#ffd966;" vertex="1" parent="1">
          <mxGeometry x="654.5" y="398" width="25" height="25" as="geometry" />
        </mxCell>
        <mxCell id="xJgOJbL_Bns6qG098R1J-53" value="&lt;font color=&quot;#000000&quot;&gt;&lt;b&gt;B&lt;/b&gt;&lt;/font&gt;" style="text;html=1;align=center;verticalAlign=middle;resizable=0;points=[];autosize=1;strokeColor=none;fillColor=none;fontSize=12;fontColor=#FF0000;" vertex="1" parent="1">
          <mxGeometry x="556" y="401.5" width="19" height="18" as="geometry" />
        </mxCell>
        <mxCell id="xJgOJbL_Bns6qG098R1J-54" value="&lt;font color=&quot;#000000&quot;&gt;&lt;b&gt;E&lt;/b&gt;&lt;/font&gt;" style="text;html=1;align=center;verticalAlign=middle;resizable=0;points=[];autosize=1;strokeColor=none;fillColor=none;fontSize=12;fontColor=#FF0000;" vertex="1" parent="1">
          <mxGeometry x="686.5" y="401.5" width="18" height="18" as="geometry" />
        </mxCell>
        <mxCell id="xJgOJbL_Bns6qG098R1J-55" value="" style="endArrow=none;html=1;rounded=1;labelBackgroundColor=none;sketch=0;fontSize=12;fontColor=#000000;strokeColor=#000000;strokeWidth=1;curved=0;exitX=0;exitY=0.5;exitDx=0;exitDy=0;entryX=1;entryY=0.5;entryDx=0;entryDy=0;" edge="1" parent="1" source="xJgOJbL_Bns6qG098R1J-48" target="xJgOJbL_Bns6qG098R1J-49">
          <mxGeometry width="50" height="50" relative="1" as="geometry">
            <mxPoint x="664.5000000000084" y="466.5" as="sourcePoint" />
            <mxPoint x="620.4999999999916" y="466.5" as="targetPoint" />
          </mxGeometry>
        </mxCell>
        <mxCell id="xJgOJbL_Bns6qG098R1J-56" value="" style="endArrow=none;html=1;rounded=1;labelBackgroundColor=none;sketch=0;fontSize=12;fontColor=#000000;strokeColor=#000000;strokeWidth=1;curved=0;exitX=0;exitY=0.5;exitDx=0;exitDy=0;entryX=1;entryY=0.5;entryDx=0;entryDy=0;" edge="1" parent="1" source="xJgOJbL_Bns6qG098R1J-51" target="xJgOJbL_Bns6qG098R1J-49">
          <mxGeometry width="50" height="50" relative="1" as="geometry">
            <mxPoint x="664.5" y="377.5" as="sourcePoint" />
            <mxPoint x="620.5" y="420.5" as="targetPoint" />
          </mxGeometry>
        </mxCell>
        <mxCell id="xJgOJbL_Bns6qG098R1J-57" value="" style="endArrow=none;html=1;rounded=1;labelBackgroundColor=none;sketch=0;fontSize=12;fontColor=#000000;strokeColor=#000000;strokeWidth=1;curved=0;exitX=0;exitY=0.5;exitDx=0;exitDy=0;entryX=1;entryY=0.5;entryDx=0;entryDy=0;" edge="1" parent="1" source="xJgOJbL_Bns6qG098R1J-48" target="xJgOJbL_Bns6qG098R1J-47">
          <mxGeometry width="50" height="50" relative="1" as="geometry">
            <mxPoint x="664.5000000000027" y="377.5" as="sourcePoint" />
            <mxPoint x="620.4999999999973" y="420.5" as="targetPoint" />
          </mxGeometry>
        </mxCell>
        <mxCell id="xJgOJbL_Bns6qG098R1J-58" value="" style="endArrow=none;html=1;rounded=1;labelBackgroundColor=none;sketch=0;fontSize=12;fontColor=#000000;strokeColor=#000000;strokeWidth=1;curved=0;exitX=0;exitY=0.5;exitDx=0;exitDy=0;entryX=1;entryY=0.5;entryDx=0;entryDy=0;" edge="1" parent="1" source="xJgOJbL_Bns6qG098R1J-52" target="xJgOJbL_Bns6qG098R1J-47">
          <mxGeometry width="50" height="50" relative="1" as="geometry">
            <mxPoint x="664.4999999999832" y="377.5" as="sourcePoint" />
            <mxPoint x="620.4999999999975" y="377.5" as="targetPoint" />
          </mxGeometry>
        </mxCell>
        <mxCell id="xJgOJbL_Bns6qG098R1J-59" value="" style="endArrow=none;html=1;rounded=1;labelBackgroundColor=none;sketch=0;fontSize=12;fontColor=#000000;strokeColor=#000000;strokeWidth=1;curved=0;exitX=0;exitY=0.5;exitDx=0;exitDy=0;" edge="1" parent="1" source="xJgOJbL_Bns6qG098R1J-52">
          <mxGeometry width="50" height="50" relative="1" as="geometry">
            <mxPoint x="664.4999999999832" y="466.5" as="sourcePoint" />
            <mxPoint x="610.5" y="457" as="targetPoint" />
          </mxGeometry>
        </mxCell>
        <mxCell id="xJgOJbL_Bns6qG098R1J-60" value="&lt;font color=&quot;#000000&quot;&gt;&lt;b&gt;A&lt;/b&gt;&lt;/font&gt;" style="text;html=1;align=center;verticalAlign=middle;resizable=0;points=[];autosize=1;strokeColor=none;fillColor=none;fontSize=12;fontColor=#FF0000;" vertex="1" parent="1">
          <mxGeometry x="556" y="358.5" width="19" height="18" as="geometry" />
        </mxCell>
        <mxCell id="xJgOJbL_Bns6qG098R1J-61" value="&lt;font color=&quot;#000000&quot;&gt;&lt;b&gt;C&lt;/b&gt;&lt;/font&gt;" style="text;html=1;align=center;verticalAlign=middle;resizable=0;points=[];autosize=1;strokeColor=none;fillColor=none;fontSize=12;fontColor=#FF0000;" vertex="1" parent="1">
          <mxGeometry x="556" y="447.5" width="19" height="18" as="geometry" />
        </mxCell>
        <mxCell id="xJgOJbL_Bns6qG098R1J-62" value="&lt;font color=&quot;#000000&quot;&gt;&lt;b&gt;D&lt;/b&gt;&lt;/font&gt;" style="text;html=1;align=center;verticalAlign=middle;resizable=0;points=[];autosize=1;strokeColor=none;fillColor=none;fontSize=12;fontColor=#FF0000;" vertex="1" parent="1">
          <mxGeometry x="686.5" y="358.5" width="19" height="18" as="geometry" />
        </mxCell>
        <mxCell id="xJgOJbL_Bns6qG098R1J-63" value="&lt;font color=&quot;#000000&quot;&gt;&lt;b&gt;F&lt;/b&gt;&lt;/font&gt;" style="text;html=1;align=center;verticalAlign=middle;resizable=0;points=[];autosize=1;strokeColor=none;fillColor=none;fontSize=12;fontColor=#FF0000;" vertex="1" parent="1">
          <mxGeometry x="687.5" y="447.5" width="17" height="18" as="geometry" />
        </mxCell>
        <mxCell id="xJgOJbL_Bns6qG098R1J-64" value="" style="endArrow=none;html=1;rounded=0;exitX=1;exitY=0.5;exitDx=0;exitDy=0;entryX=0;entryY=0.5;entryDx=0;entryDy=0;" edge="1" parent="1" source="xJgOJbL_Bns6qG098R1J-49" target="xJgOJbL_Bns6qG098R1J-52">
          <mxGeometry width="50" height="50" relative="1" as="geometry">
            <mxPoint x="600.5" y="416" as="sourcePoint" />
            <mxPoint x="650.5" y="366" as="targetPoint" />
          </mxGeometry>
        </mxCell>
      </root>
    </mxGraphModel>
  </diagram>
</mxfile>
